%TF.GenerationSoftware,KiCad,Pcbnew,(5.1.8)-1*%
%TF.CreationDate,2020-12-28T06:59:24-08:00*%
%TF.ProjectId,atmega32u4_dev_board,61746d65-6761-4333-9275-345f6465765f,rev?*%
%TF.SameCoordinates,Original*%
%TF.FileFunction,Legend,Bot*%
%TF.FilePolarity,Positive*%
%FSLAX46Y46*%
G04 Gerber Fmt 4.6, Leading zero omitted, Abs format (unit mm)*
G04 Created by KiCad (PCBNEW (5.1.8)-1) date 2020-12-28 06:59:24*
%MOMM*%
%LPD*%
G01*
G04 APERTURE LIST*
%ADD10C,0.100000*%
%ADD11C,0.150000*%
%ADD12C,0.010000*%
%ADD13C,0.120000*%
G04 APERTURE END LIST*
D10*
X146610714Y-113303571D02*
X147360714Y-113303571D01*
X147360714Y-113125000D01*
X147325000Y-113017857D01*
X147253571Y-112946428D01*
X147182142Y-112910714D01*
X147039285Y-112875000D01*
X146932142Y-112875000D01*
X146789285Y-112910714D01*
X146717857Y-112946428D01*
X146646428Y-113017857D01*
X146610714Y-113125000D01*
X146610714Y-113303571D01*
X147360714Y-112232142D02*
X147360714Y-112375000D01*
X147325000Y-112446428D01*
X147289285Y-112482142D01*
X147182142Y-112553571D01*
X147039285Y-112589285D01*
X146753571Y-112589285D01*
X146682142Y-112553571D01*
X146646428Y-112517857D01*
X146610714Y-112446428D01*
X146610714Y-112303571D01*
X146646428Y-112232142D01*
X146682142Y-112196428D01*
X146753571Y-112160714D01*
X146932142Y-112160714D01*
X147003571Y-112196428D01*
X147039285Y-112232142D01*
X147075000Y-112303571D01*
X147075000Y-112446428D01*
X147039285Y-112517857D01*
X147003571Y-112553571D01*
X146932142Y-112589285D01*
X146610714Y-115853571D02*
X147360714Y-115853571D01*
X147360714Y-115675000D01*
X147325000Y-115567857D01*
X147253571Y-115496428D01*
X147182142Y-115460714D01*
X147039285Y-115425000D01*
X146932142Y-115425000D01*
X146789285Y-115460714D01*
X146717857Y-115496428D01*
X146646428Y-115567857D01*
X146610714Y-115675000D01*
X146610714Y-115853571D01*
X147360714Y-115175000D02*
X147360714Y-114675000D01*
X146610714Y-114996428D01*
X146610714Y-110753571D02*
X147360714Y-110753571D01*
X147360714Y-110575000D01*
X147325000Y-110467857D01*
X147253571Y-110396428D01*
X147182142Y-110360714D01*
X147039285Y-110325000D01*
X146932142Y-110325000D01*
X146789285Y-110360714D01*
X146717857Y-110396428D01*
X146646428Y-110467857D01*
X146610714Y-110575000D01*
X146610714Y-110753571D01*
X147360714Y-109646428D02*
X147360714Y-110003571D01*
X147003571Y-110039285D01*
X147039285Y-110003571D01*
X147075000Y-109932142D01*
X147075000Y-109753571D01*
X147039285Y-109682142D01*
X147003571Y-109646428D01*
X146932142Y-109610714D01*
X146753571Y-109610714D01*
X146682142Y-109646428D01*
X146646428Y-109682142D01*
X146610714Y-109753571D01*
X146610714Y-109932142D01*
X146646428Y-110003571D01*
X146682142Y-110039285D01*
X146610714Y-118353571D02*
X147360714Y-118353571D01*
X147360714Y-118175000D01*
X147325000Y-118067857D01*
X147253571Y-117996428D01*
X147182142Y-117960714D01*
X147039285Y-117925000D01*
X146932142Y-117925000D01*
X146789285Y-117960714D01*
X146717857Y-117996428D01*
X146646428Y-118067857D01*
X146610714Y-118175000D01*
X146610714Y-118353571D01*
X147039285Y-117496428D02*
X147075000Y-117567857D01*
X147110714Y-117603571D01*
X147182142Y-117639285D01*
X147217857Y-117639285D01*
X147289285Y-117603571D01*
X147325000Y-117567857D01*
X147360714Y-117496428D01*
X147360714Y-117353571D01*
X147325000Y-117282142D01*
X147289285Y-117246428D01*
X147217857Y-117210714D01*
X147182142Y-117210714D01*
X147110714Y-117246428D01*
X147075000Y-117282142D01*
X147039285Y-117353571D01*
X147039285Y-117496428D01*
X147003571Y-117567857D01*
X146967857Y-117603571D01*
X146896428Y-117639285D01*
X146753571Y-117639285D01*
X146682142Y-117603571D01*
X146646428Y-117567857D01*
X146610714Y-117496428D01*
X146610714Y-117353571D01*
X146646428Y-117282142D01*
X146682142Y-117246428D01*
X146753571Y-117210714D01*
X146896428Y-117210714D01*
X146967857Y-117246428D01*
X147003571Y-117282142D01*
X147039285Y-117353571D01*
X146610714Y-108203571D02*
X147360714Y-108203571D01*
X147360714Y-108025000D01*
X147325000Y-107917857D01*
X147253571Y-107846428D01*
X147182142Y-107810714D01*
X147039285Y-107775000D01*
X146932142Y-107775000D01*
X146789285Y-107810714D01*
X146717857Y-107846428D01*
X146646428Y-107917857D01*
X146610714Y-108025000D01*
X146610714Y-108203571D01*
X147110714Y-107132142D02*
X146610714Y-107132142D01*
X147396428Y-107310714D02*
X146860714Y-107489285D01*
X146860714Y-107025000D01*
X146610714Y-105653571D02*
X147360714Y-105653571D01*
X147360714Y-105475000D01*
X147325000Y-105367857D01*
X147253571Y-105296428D01*
X147182142Y-105260714D01*
X147039285Y-105225000D01*
X146932142Y-105225000D01*
X146789285Y-105260714D01*
X146717857Y-105296428D01*
X146646428Y-105367857D01*
X146610714Y-105475000D01*
X146610714Y-105653571D01*
X147360714Y-104975000D02*
X147360714Y-104510714D01*
X147075000Y-104760714D01*
X147075000Y-104653571D01*
X147039285Y-104582142D01*
X147003571Y-104546428D01*
X146932142Y-104510714D01*
X146753571Y-104510714D01*
X146682142Y-104546428D01*
X146646428Y-104582142D01*
X146610714Y-104653571D01*
X146610714Y-104867857D01*
X146646428Y-104939285D01*
X146682142Y-104975000D01*
X147360714Y-85621428D02*
X146610714Y-85371428D01*
X147360714Y-85121428D01*
X146610714Y-84871428D02*
X147360714Y-84871428D01*
X146610714Y-84514285D02*
X147360714Y-84514285D01*
X146610714Y-84085714D01*
X147360714Y-84085714D01*
X146610714Y-100603571D02*
X147360714Y-100603571D01*
X147360714Y-100425000D01*
X147325000Y-100317857D01*
X147253571Y-100246428D01*
X147182142Y-100210714D01*
X147039285Y-100175000D01*
X146932142Y-100175000D01*
X146789285Y-100210714D01*
X146717857Y-100246428D01*
X146646428Y-100317857D01*
X146610714Y-100425000D01*
X146610714Y-100603571D01*
X146610714Y-99460714D02*
X146610714Y-99889285D01*
X146610714Y-99675000D02*
X147360714Y-99675000D01*
X147253571Y-99746428D01*
X147182142Y-99817857D01*
X147146428Y-99889285D01*
X146610714Y-103153571D02*
X147360714Y-103153571D01*
X147360714Y-102975000D01*
X147325000Y-102867857D01*
X147253571Y-102796428D01*
X147182142Y-102760714D01*
X147039285Y-102725000D01*
X146932142Y-102725000D01*
X146789285Y-102760714D01*
X146717857Y-102796428D01*
X146646428Y-102867857D01*
X146610714Y-102975000D01*
X146610714Y-103153571D01*
X147289285Y-102439285D02*
X147325000Y-102403571D01*
X147360714Y-102332142D01*
X147360714Y-102153571D01*
X147325000Y-102082142D01*
X147289285Y-102046428D01*
X147217857Y-102010714D01*
X147146428Y-102010714D01*
X147039285Y-102046428D01*
X146610714Y-102475000D01*
X146610714Y-102010714D01*
X146610714Y-98053571D02*
X147360714Y-98053571D01*
X147360714Y-97875000D01*
X147325000Y-97767857D01*
X147253571Y-97696428D01*
X147182142Y-97660714D01*
X147039285Y-97625000D01*
X146932142Y-97625000D01*
X146789285Y-97660714D01*
X146717857Y-97696428D01*
X146646428Y-97767857D01*
X146610714Y-97875000D01*
X146610714Y-98053571D01*
X147360714Y-97160714D02*
X147360714Y-97089285D01*
X147325000Y-97017857D01*
X147289285Y-96982142D01*
X147217857Y-96946428D01*
X147075000Y-96910714D01*
X146896428Y-96910714D01*
X146753571Y-96946428D01*
X146682142Y-96982142D01*
X146646428Y-97017857D01*
X146610714Y-97089285D01*
X146610714Y-97160714D01*
X146646428Y-97232142D01*
X146682142Y-97267857D01*
X146753571Y-97303571D01*
X146896428Y-97339285D01*
X147075000Y-97339285D01*
X147217857Y-97303571D01*
X147289285Y-97267857D01*
X147325000Y-97232142D01*
X147360714Y-97160714D01*
X146610714Y-95735714D02*
X147360714Y-95735714D01*
X146825000Y-95569047D01*
X147360714Y-95402380D01*
X146610714Y-95402380D01*
X146610714Y-95164285D02*
X147360714Y-95164285D01*
X146646428Y-94950000D02*
X146610714Y-94878571D01*
X146610714Y-94759523D01*
X146646428Y-94711904D01*
X146682142Y-94688095D01*
X146753571Y-94664285D01*
X146825000Y-94664285D01*
X146896428Y-94688095D01*
X146932142Y-94711904D01*
X146967857Y-94759523D01*
X147003571Y-94854761D01*
X147039285Y-94902380D01*
X147075000Y-94926190D01*
X147146428Y-94950000D01*
X147217857Y-94950000D01*
X147289285Y-94926190D01*
X147325000Y-94902380D01*
X147360714Y-94854761D01*
X147360714Y-94735714D01*
X147325000Y-94664285D01*
X147360714Y-94354761D02*
X147360714Y-94259523D01*
X147325000Y-94211904D01*
X147253571Y-94164285D01*
X147110714Y-94140476D01*
X146860714Y-94140476D01*
X146717857Y-94164285D01*
X146646428Y-94211904D01*
X146610714Y-94259523D01*
X146610714Y-94354761D01*
X146646428Y-94402380D01*
X146717857Y-94450000D01*
X146860714Y-94473809D01*
X147110714Y-94473809D01*
X147253571Y-94450000D01*
X147325000Y-94402380D01*
X147360714Y-94354761D01*
X146610714Y-93185714D02*
X147360714Y-93185714D01*
X146825000Y-93019047D01*
X147360714Y-92852380D01*
X146610714Y-92852380D01*
X147360714Y-92519047D02*
X147360714Y-92423809D01*
X147325000Y-92376190D01*
X147253571Y-92328571D01*
X147110714Y-92304761D01*
X146860714Y-92304761D01*
X146717857Y-92328571D01*
X146646428Y-92376190D01*
X146610714Y-92423809D01*
X146610714Y-92519047D01*
X146646428Y-92566666D01*
X146717857Y-92614285D01*
X146860714Y-92638095D01*
X147110714Y-92638095D01*
X147253571Y-92614285D01*
X147325000Y-92566666D01*
X147360714Y-92519047D01*
X146646428Y-92114285D02*
X146610714Y-92042857D01*
X146610714Y-91923809D01*
X146646428Y-91876190D01*
X146682142Y-91852380D01*
X146753571Y-91828571D01*
X146825000Y-91828571D01*
X146896428Y-91852380D01*
X146932142Y-91876190D01*
X146967857Y-91923809D01*
X147003571Y-92019047D01*
X147039285Y-92066666D01*
X147075000Y-92090476D01*
X147146428Y-92114285D01*
X147217857Y-92114285D01*
X147289285Y-92090476D01*
X147325000Y-92066666D01*
X147360714Y-92019047D01*
X147360714Y-91900000D01*
X147325000Y-91828571D01*
X146610714Y-91614285D02*
X147360714Y-91614285D01*
X146646428Y-90864285D02*
X146610714Y-90757142D01*
X146610714Y-90578571D01*
X146646428Y-90507142D01*
X146682142Y-90471428D01*
X146753571Y-90435714D01*
X146825000Y-90435714D01*
X146896428Y-90471428D01*
X146932142Y-90507142D01*
X146967857Y-90578571D01*
X147003571Y-90721428D01*
X147039285Y-90792857D01*
X147075000Y-90828571D01*
X147146428Y-90864285D01*
X147217857Y-90864285D01*
X147289285Y-90828571D01*
X147325000Y-90792857D01*
X147360714Y-90721428D01*
X147360714Y-90542857D01*
X147325000Y-90435714D01*
X146682142Y-89685714D02*
X146646428Y-89721428D01*
X146610714Y-89828571D01*
X146610714Y-89900000D01*
X146646428Y-90007142D01*
X146717857Y-90078571D01*
X146789285Y-90114285D01*
X146932142Y-90150000D01*
X147039285Y-90150000D01*
X147182142Y-90114285D01*
X147253571Y-90078571D01*
X147325000Y-90007142D01*
X147360714Y-89900000D01*
X147360714Y-89828571D01*
X147325000Y-89721428D01*
X147289285Y-89685714D01*
X146610714Y-89364285D02*
X147360714Y-89364285D01*
X146610714Y-88935714D02*
X147039285Y-89257142D01*
X147360714Y-88935714D02*
X146932142Y-89364285D01*
X147325000Y-87921428D02*
X147360714Y-87992857D01*
X147360714Y-88100000D01*
X147325000Y-88207142D01*
X147253571Y-88278571D01*
X147182142Y-88314285D01*
X147039285Y-88350000D01*
X146932142Y-88350000D01*
X146789285Y-88314285D01*
X146717857Y-88278571D01*
X146646428Y-88207142D01*
X146610714Y-88100000D01*
X146610714Y-88028571D01*
X146646428Y-87921428D01*
X146682142Y-87885714D01*
X146932142Y-87885714D01*
X146932142Y-88028571D01*
X146610714Y-87564285D02*
X147360714Y-87564285D01*
X146610714Y-87135714D01*
X147360714Y-87135714D01*
X146610714Y-86778571D02*
X147360714Y-86778571D01*
X147360714Y-86600000D01*
X147325000Y-86492857D01*
X147253571Y-86421428D01*
X147182142Y-86385714D01*
X147039285Y-86350000D01*
X146932142Y-86350000D01*
X146789285Y-86385714D01*
X146717857Y-86421428D01*
X146646428Y-86492857D01*
X146610714Y-86600000D01*
X146610714Y-86778571D01*
X160389285Y-111789285D02*
X159639285Y-111789285D01*
X159639285Y-111967857D01*
X159675000Y-112075000D01*
X159746428Y-112146428D01*
X159817857Y-112182142D01*
X159960714Y-112217857D01*
X160067857Y-112217857D01*
X160210714Y-112182142D01*
X160282142Y-112146428D01*
X160353571Y-112075000D01*
X160389285Y-111967857D01*
X160389285Y-111789285D01*
X160389285Y-112932142D02*
X160389285Y-112503571D01*
X160389285Y-112717857D02*
X159639285Y-112717857D01*
X159746428Y-112646428D01*
X159817857Y-112575000D01*
X159853571Y-112503571D01*
X160389285Y-113646428D02*
X160389285Y-113217857D01*
X160389285Y-113432142D02*
X159639285Y-113432142D01*
X159746428Y-113360714D01*
X159817857Y-113289285D01*
X159853571Y-113217857D01*
X159639285Y-86300000D02*
X160389285Y-86550000D01*
X159639285Y-86800000D01*
X160317857Y-87478571D02*
X160353571Y-87442857D01*
X160389285Y-87335714D01*
X160389285Y-87264285D01*
X160353571Y-87157142D01*
X160282142Y-87085714D01*
X160210714Y-87050000D01*
X160067857Y-87014285D01*
X159960714Y-87014285D01*
X159817857Y-87050000D01*
X159746428Y-87085714D01*
X159675000Y-87157142D01*
X159639285Y-87264285D01*
X159639285Y-87335714D01*
X159675000Y-87442857D01*
X159710714Y-87478571D01*
X160317857Y-88228571D02*
X160353571Y-88192857D01*
X160389285Y-88085714D01*
X160389285Y-88014285D01*
X160353571Y-87907142D01*
X160282142Y-87835714D01*
X160210714Y-87800000D01*
X160067857Y-87764285D01*
X159960714Y-87764285D01*
X159817857Y-87800000D01*
X159746428Y-87835714D01*
X159675000Y-87907142D01*
X159639285Y-88014285D01*
X159639285Y-88085714D01*
X159675000Y-88192857D01*
X159710714Y-88228571D01*
X160175000Y-91864285D02*
X160175000Y-92221428D01*
X160389285Y-91792857D02*
X159639285Y-92042857D01*
X160389285Y-92292857D01*
X159639285Y-92900000D02*
X159639285Y-92542857D01*
X159996428Y-92507142D01*
X159960714Y-92542857D01*
X159925000Y-92614285D01*
X159925000Y-92792857D01*
X159960714Y-92864285D01*
X159996428Y-92900000D01*
X160067857Y-92935714D01*
X160246428Y-92935714D01*
X160317857Y-92900000D01*
X160353571Y-92864285D01*
X160389285Y-92792857D01*
X160389285Y-92614285D01*
X160353571Y-92542857D01*
X160317857Y-92507142D01*
X160175000Y-101964285D02*
X160175000Y-102321428D01*
X160389285Y-101892857D02*
X159639285Y-102142857D01*
X160389285Y-102392857D01*
X160389285Y-103035714D02*
X160389285Y-102607142D01*
X160389285Y-102821428D02*
X159639285Y-102821428D01*
X159746428Y-102750000D01*
X159817857Y-102678571D01*
X159853571Y-102607142D01*
X160175000Y-99464285D02*
X160175000Y-99821428D01*
X160389285Y-99392857D02*
X159639285Y-99642857D01*
X160389285Y-99892857D01*
X159710714Y-100107142D02*
X159675000Y-100142857D01*
X159639285Y-100214285D01*
X159639285Y-100392857D01*
X159675000Y-100464285D01*
X159710714Y-100500000D01*
X159782142Y-100535714D01*
X159853571Y-100535714D01*
X159960714Y-100500000D01*
X160389285Y-100071428D01*
X160389285Y-100535714D01*
X160389285Y-117246428D02*
X159639285Y-117246428D01*
X159639285Y-117425000D01*
X159675000Y-117532142D01*
X159746428Y-117603571D01*
X159817857Y-117639285D01*
X159960714Y-117675000D01*
X160067857Y-117675000D01*
X160210714Y-117639285D01*
X160282142Y-117603571D01*
X160353571Y-117532142D01*
X160389285Y-117425000D01*
X160389285Y-117246428D01*
X160389285Y-118032142D02*
X160389285Y-118175000D01*
X160353571Y-118246428D01*
X160317857Y-118282142D01*
X160210714Y-118353571D01*
X160067857Y-118389285D01*
X159782142Y-118389285D01*
X159710714Y-118353571D01*
X159675000Y-118317857D01*
X159639285Y-118246428D01*
X159639285Y-118103571D01*
X159675000Y-118032142D01*
X159710714Y-117996428D01*
X159782142Y-117960714D01*
X159960714Y-117960714D01*
X160032142Y-117996428D01*
X160067857Y-118032142D01*
X160103571Y-118103571D01*
X160103571Y-118246428D01*
X160067857Y-118317857D01*
X160032142Y-118353571D01*
X159960714Y-118389285D01*
X159675000Y-89278571D02*
X159639285Y-89207142D01*
X159639285Y-89100000D01*
X159675000Y-88992857D01*
X159746428Y-88921428D01*
X159817857Y-88885714D01*
X159960714Y-88850000D01*
X160067857Y-88850000D01*
X160210714Y-88885714D01*
X160282142Y-88921428D01*
X160353571Y-88992857D01*
X160389285Y-89100000D01*
X160389285Y-89171428D01*
X160353571Y-89278571D01*
X160317857Y-89314285D01*
X160067857Y-89314285D01*
X160067857Y-89171428D01*
X160389285Y-89635714D02*
X159639285Y-89635714D01*
X160389285Y-90064285D01*
X159639285Y-90064285D01*
X160389285Y-90421428D02*
X159639285Y-90421428D01*
X159639285Y-90600000D01*
X159675000Y-90707142D01*
X159746428Y-90778571D01*
X159817857Y-90814285D01*
X159960714Y-90850000D01*
X160067857Y-90850000D01*
X160210714Y-90814285D01*
X160282142Y-90778571D01*
X160353571Y-90707142D01*
X160389285Y-90600000D01*
X160389285Y-90421428D01*
X160389285Y-114339285D02*
X159639285Y-114339285D01*
X159639285Y-114517857D01*
X159675000Y-114625000D01*
X159746428Y-114696428D01*
X159817857Y-114732142D01*
X159960714Y-114767857D01*
X160067857Y-114767857D01*
X160210714Y-114732142D01*
X160282142Y-114696428D01*
X160353571Y-114625000D01*
X160389285Y-114517857D01*
X160389285Y-114339285D01*
X160389285Y-115482142D02*
X160389285Y-115053571D01*
X160389285Y-115267857D02*
X159639285Y-115267857D01*
X159746428Y-115196428D01*
X159817857Y-115125000D01*
X159853571Y-115053571D01*
X159639285Y-115946428D02*
X159639285Y-116017857D01*
X159675000Y-116089285D01*
X159710714Y-116125000D01*
X159782142Y-116160714D01*
X159925000Y-116196428D01*
X160103571Y-116196428D01*
X160246428Y-116160714D01*
X160317857Y-116125000D01*
X160353571Y-116089285D01*
X160389285Y-116017857D01*
X160389285Y-115946428D01*
X160353571Y-115875000D01*
X160317857Y-115839285D01*
X160246428Y-115803571D01*
X160103571Y-115767857D01*
X159925000Y-115767857D01*
X159782142Y-115803571D01*
X159710714Y-115839285D01*
X159675000Y-115875000D01*
X159639285Y-115946428D01*
X160389285Y-84339285D02*
X160032142Y-84089285D01*
X160389285Y-83910714D02*
X159639285Y-83910714D01*
X159639285Y-84196428D01*
X159675000Y-84267857D01*
X159710714Y-84303571D01*
X159782142Y-84339285D01*
X159889285Y-84339285D01*
X159960714Y-84303571D01*
X159996428Y-84267857D01*
X160032142Y-84196428D01*
X160032142Y-83910714D01*
X160353571Y-84625000D02*
X160389285Y-84732142D01*
X160389285Y-84910714D01*
X160353571Y-84982142D01*
X160317857Y-85017857D01*
X160246428Y-85053571D01*
X160175000Y-85053571D01*
X160103571Y-85017857D01*
X160067857Y-84982142D01*
X160032142Y-84910714D01*
X159996428Y-84767857D01*
X159960714Y-84696428D01*
X159925000Y-84660714D01*
X159853571Y-84625000D01*
X159782142Y-84625000D01*
X159710714Y-84660714D01*
X159675000Y-84696428D01*
X159639285Y-84767857D01*
X159639285Y-84946428D01*
X159675000Y-85053571D01*
X159639285Y-85267857D02*
X159639285Y-85696428D01*
X160389285Y-85482142D02*
X159639285Y-85482142D01*
X160389285Y-109239285D02*
X159639285Y-109239285D01*
X159639285Y-109417857D01*
X159675000Y-109525000D01*
X159746428Y-109596428D01*
X159817857Y-109632142D01*
X159960714Y-109667857D01*
X160067857Y-109667857D01*
X160210714Y-109632142D01*
X160282142Y-109596428D01*
X160353571Y-109525000D01*
X160389285Y-109417857D01*
X160389285Y-109239285D01*
X160389285Y-110382142D02*
X160389285Y-109953571D01*
X160389285Y-110167857D02*
X159639285Y-110167857D01*
X159746428Y-110096428D01*
X159817857Y-110025000D01*
X159853571Y-109953571D01*
X159710714Y-110667857D02*
X159675000Y-110703571D01*
X159639285Y-110775000D01*
X159639285Y-110953571D01*
X159675000Y-111025000D01*
X159710714Y-111060714D01*
X159782142Y-111096428D01*
X159853571Y-111096428D01*
X159960714Y-111060714D01*
X160389285Y-110632142D01*
X160389285Y-111096428D01*
X160175000Y-104514285D02*
X160175000Y-104871428D01*
X160389285Y-104442857D02*
X159639285Y-104692857D01*
X160389285Y-104942857D01*
X159639285Y-105335714D02*
X159639285Y-105407142D01*
X159675000Y-105478571D01*
X159710714Y-105514285D01*
X159782142Y-105550000D01*
X159925000Y-105585714D01*
X160103571Y-105585714D01*
X160246428Y-105550000D01*
X160317857Y-105514285D01*
X160353571Y-105478571D01*
X160389285Y-105407142D01*
X160389285Y-105335714D01*
X160353571Y-105264285D01*
X160317857Y-105228571D01*
X160246428Y-105192857D01*
X160103571Y-105157142D01*
X159925000Y-105157142D01*
X159782142Y-105192857D01*
X159710714Y-105228571D01*
X159675000Y-105264285D01*
X159639285Y-105335714D01*
X160175000Y-94414285D02*
X160175000Y-94771428D01*
X160389285Y-94342857D02*
X159639285Y-94592857D01*
X160389285Y-94842857D01*
X159889285Y-95414285D02*
X160389285Y-95414285D01*
X159603571Y-95235714D02*
X160139285Y-95057142D01*
X160139285Y-95521428D01*
X160175000Y-96914285D02*
X160175000Y-97271428D01*
X160389285Y-96842857D02*
X159639285Y-97092857D01*
X160389285Y-97342857D01*
X159639285Y-97521428D02*
X159639285Y-97985714D01*
X159925000Y-97735714D01*
X159925000Y-97842857D01*
X159960714Y-97914285D01*
X159996428Y-97950000D01*
X160067857Y-97985714D01*
X160246428Y-97985714D01*
X160317857Y-97950000D01*
X160353571Y-97914285D01*
X160389285Y-97842857D01*
X160389285Y-97628571D01*
X160353571Y-97557142D01*
X160317857Y-97521428D01*
X160389285Y-106689285D02*
X159639285Y-106689285D01*
X159639285Y-106867857D01*
X159675000Y-106975000D01*
X159746428Y-107046428D01*
X159817857Y-107082142D01*
X159960714Y-107117857D01*
X160067857Y-107117857D01*
X160210714Y-107082142D01*
X160282142Y-107046428D01*
X160353571Y-106975000D01*
X160389285Y-106867857D01*
X160389285Y-106689285D01*
X160389285Y-107832142D02*
X160389285Y-107403571D01*
X160389285Y-107617857D02*
X159639285Y-107617857D01*
X159746428Y-107546428D01*
X159817857Y-107475000D01*
X159853571Y-107403571D01*
X159639285Y-108082142D02*
X159639285Y-108546428D01*
X159925000Y-108296428D01*
X159925000Y-108403571D01*
X159960714Y-108475000D01*
X159996428Y-108510714D01*
X160067857Y-108546428D01*
X160246428Y-108546428D01*
X160317857Y-108510714D01*
X160353571Y-108475000D01*
X160389285Y-108403571D01*
X160389285Y-108189285D01*
X160353571Y-108117857D01*
X160317857Y-108082142D01*
D11*
X156295238Y-107820000D02*
X156247619Y-107915238D01*
X156247619Y-108105714D01*
X156295238Y-108200952D01*
X156342857Y-108248571D01*
X156438095Y-108296190D01*
X156723809Y-108296190D01*
X156819047Y-108248571D01*
X156866666Y-108200952D01*
X156914285Y-108105714D01*
X156914285Y-107915238D01*
X156866666Y-107820000D01*
X156247619Y-107248571D02*
X156295238Y-107343809D01*
X156342857Y-107391428D01*
X156438095Y-107439047D01*
X156723809Y-107439047D01*
X156819047Y-107391428D01*
X156866666Y-107343809D01*
X156914285Y-107248571D01*
X156914285Y-107105714D01*
X156866666Y-107010476D01*
X156819047Y-106962857D01*
X156723809Y-106915238D01*
X156438095Y-106915238D01*
X156342857Y-106962857D01*
X156295238Y-107010476D01*
X156247619Y-107105714D01*
X156247619Y-107248571D01*
X156247619Y-106343809D02*
X156295238Y-106439047D01*
X156342857Y-106486666D01*
X156438095Y-106534285D01*
X156723809Y-106534285D01*
X156819047Y-106486666D01*
X156866666Y-106439047D01*
X156914285Y-106343809D01*
X156914285Y-106200952D01*
X156866666Y-106105714D01*
X156819047Y-106058095D01*
X156723809Y-106010476D01*
X156438095Y-106010476D01*
X156342857Y-106058095D01*
X156295238Y-106105714D01*
X156247619Y-106200952D01*
X156247619Y-106343809D01*
X156247619Y-105439047D02*
X156295238Y-105534285D01*
X156390476Y-105581904D01*
X157247619Y-105581904D01*
X156247619Y-105058095D02*
X157247619Y-105058095D01*
X156866666Y-105058095D02*
X156914285Y-104962857D01*
X156914285Y-104772380D01*
X156866666Y-104677142D01*
X156819047Y-104629523D01*
X156723809Y-104581904D01*
X156438095Y-104581904D01*
X156342857Y-104629523D01*
X156295238Y-104677142D01*
X156247619Y-104772380D01*
X156247619Y-104962857D01*
X156295238Y-105058095D01*
X156247619Y-104010476D02*
X156295238Y-104105714D01*
X156342857Y-104153333D01*
X156438095Y-104200952D01*
X156723809Y-104200952D01*
X156819047Y-104153333D01*
X156866666Y-104105714D01*
X156914285Y-104010476D01*
X156914285Y-103867619D01*
X156866666Y-103772380D01*
X156819047Y-103724761D01*
X156723809Y-103677142D01*
X156438095Y-103677142D01*
X156342857Y-103724761D01*
X156295238Y-103772380D01*
X156247619Y-103867619D01*
X156247619Y-104010476D01*
X156914285Y-103391428D02*
X156914285Y-103010476D01*
X157247619Y-103248571D02*
X156390476Y-103248571D01*
X156295238Y-103200952D01*
X156247619Y-103105714D01*
X156247619Y-103010476D01*
X156295238Y-102724761D02*
X156247619Y-102629523D01*
X156247619Y-102439047D01*
X156295238Y-102343809D01*
X156390476Y-102296190D01*
X156438095Y-102296190D01*
X156533333Y-102343809D01*
X156580952Y-102439047D01*
X156580952Y-102581904D01*
X156628571Y-102677142D01*
X156723809Y-102724761D01*
X156771428Y-102724761D01*
X156866666Y-102677142D01*
X156914285Y-102581904D01*
X156914285Y-102439047D01*
X156866666Y-102343809D01*
X157247619Y-101962857D02*
X157247619Y-101296190D01*
X156247619Y-101724761D01*
X150652380Y-108247142D02*
X150700000Y-108199523D01*
X150747619Y-108104285D01*
X150747619Y-107866190D01*
X150700000Y-107770952D01*
X150652380Y-107723333D01*
X150557142Y-107675714D01*
X150461904Y-107675714D01*
X150319047Y-107723333D01*
X149747619Y-108294761D01*
X149747619Y-107675714D01*
X150747619Y-107056666D02*
X150747619Y-106961428D01*
X150700000Y-106866190D01*
X150652380Y-106818571D01*
X150557142Y-106770952D01*
X150366666Y-106723333D01*
X150128571Y-106723333D01*
X149938095Y-106770952D01*
X149842857Y-106818571D01*
X149795238Y-106866190D01*
X149747619Y-106961428D01*
X149747619Y-107056666D01*
X149795238Y-107151904D01*
X149842857Y-107199523D01*
X149938095Y-107247142D01*
X150128571Y-107294761D01*
X150366666Y-107294761D01*
X150557142Y-107247142D01*
X150652380Y-107199523D01*
X150700000Y-107151904D01*
X150747619Y-107056666D01*
X150652380Y-106342380D02*
X150700000Y-106294761D01*
X150747619Y-106199523D01*
X150747619Y-105961428D01*
X150700000Y-105866190D01*
X150652380Y-105818571D01*
X150557142Y-105770952D01*
X150461904Y-105770952D01*
X150319047Y-105818571D01*
X149747619Y-106390000D01*
X149747619Y-105770952D01*
X150747619Y-105151904D02*
X150747619Y-105056666D01*
X150700000Y-104961428D01*
X150652380Y-104913809D01*
X150557142Y-104866190D01*
X150366666Y-104818571D01*
X150128571Y-104818571D01*
X149938095Y-104866190D01*
X149842857Y-104913809D01*
X149795238Y-104961428D01*
X149747619Y-105056666D01*
X149747619Y-105151904D01*
X149795238Y-105247142D01*
X149842857Y-105294761D01*
X149938095Y-105342380D01*
X150128571Y-105390000D01*
X150366666Y-105390000D01*
X150557142Y-105342380D01*
X150652380Y-105294761D01*
X150700000Y-105247142D01*
X150747619Y-105151904D01*
X150128571Y-104390000D02*
X150128571Y-103628095D01*
X149747619Y-102628095D02*
X149747619Y-103199523D01*
X149747619Y-102913809D02*
X150747619Y-102913809D01*
X150604761Y-103009047D01*
X150509523Y-103104285D01*
X150461904Y-103199523D01*
X150652380Y-102247142D02*
X150700000Y-102199523D01*
X150747619Y-102104285D01*
X150747619Y-101866190D01*
X150700000Y-101770952D01*
X150652380Y-101723333D01*
X150557142Y-101675714D01*
X150461904Y-101675714D01*
X150319047Y-101723333D01*
X149747619Y-102294761D01*
X149747619Y-101675714D01*
X150128571Y-101247142D02*
X150128571Y-100485238D01*
X150652380Y-100056666D02*
X150700000Y-100009047D01*
X150747619Y-99913809D01*
X150747619Y-99675714D01*
X150700000Y-99580476D01*
X150652380Y-99532857D01*
X150557142Y-99485238D01*
X150461904Y-99485238D01*
X150319047Y-99532857D01*
X149747619Y-100104285D01*
X149747619Y-99485238D01*
X150319047Y-98913809D02*
X150366666Y-99009047D01*
X150414285Y-99056666D01*
X150509523Y-99104285D01*
X150557142Y-99104285D01*
X150652380Y-99056666D01*
X150700000Y-99009047D01*
X150747619Y-98913809D01*
X150747619Y-98723333D01*
X150700000Y-98628095D01*
X150652380Y-98580476D01*
X150557142Y-98532857D01*
X150509523Y-98532857D01*
X150414285Y-98580476D01*
X150366666Y-98628095D01*
X150319047Y-98723333D01*
X150319047Y-98913809D01*
X150271428Y-99009047D01*
X150223809Y-99056666D01*
X150128571Y-99104285D01*
X149938095Y-99104285D01*
X149842857Y-99056666D01*
X149795238Y-99009047D01*
X149747619Y-98913809D01*
X149747619Y-98723333D01*
X149795238Y-98628095D01*
X149842857Y-98580476D01*
X149938095Y-98532857D01*
X150128571Y-98532857D01*
X150223809Y-98580476D01*
X150271428Y-98628095D01*
X150319047Y-98723333D01*
X153714285Y-108342857D02*
X153047619Y-108104761D01*
X153714285Y-107866666D01*
X153047619Y-106961904D02*
X153047619Y-107533333D01*
X153047619Y-107247619D02*
X154047619Y-107247619D01*
X153904761Y-107342857D01*
X153809523Y-107438095D01*
X153761904Y-107533333D01*
X153142857Y-106533333D02*
X153095238Y-106485714D01*
X153047619Y-106533333D01*
X153095238Y-106580952D01*
X153142857Y-106533333D01*
X153047619Y-106533333D01*
X154047619Y-105866666D02*
X154047619Y-105771428D01*
X154000000Y-105676190D01*
X153952380Y-105628571D01*
X153857142Y-105580952D01*
X153666666Y-105533333D01*
X153428571Y-105533333D01*
X153238095Y-105580952D01*
X153142857Y-105628571D01*
X153095238Y-105676190D01*
X153047619Y-105771428D01*
X153047619Y-105866666D01*
X153095238Y-105961904D01*
X153142857Y-106009523D01*
X153238095Y-106057142D01*
X153428571Y-106104761D01*
X153666666Y-106104761D01*
X153857142Y-106057142D01*
X153952380Y-106009523D01*
X154000000Y-105961904D01*
X154047619Y-105866666D01*
X153142857Y-105104761D02*
X153095238Y-105057142D01*
X153047619Y-105104761D01*
X153095238Y-105152380D01*
X153142857Y-105104761D01*
X153047619Y-105104761D01*
X154047619Y-104438095D02*
X154047619Y-104342857D01*
X154000000Y-104247619D01*
X153952380Y-104200000D01*
X153857142Y-104152380D01*
X153666666Y-104104761D01*
X153428571Y-104104761D01*
X153238095Y-104152380D01*
X153142857Y-104200000D01*
X153095238Y-104247619D01*
X153047619Y-104342857D01*
X153047619Y-104438095D01*
X153095238Y-104533333D01*
X153142857Y-104580952D01*
X153238095Y-104628571D01*
X153428571Y-104676190D01*
X153666666Y-104676190D01*
X153857142Y-104628571D01*
X153952380Y-104580952D01*
X154000000Y-104533333D01*
X154047619Y-104438095D01*
D12*
%TO.C,G\u002A\u002A\u002A*%
G36*
X150152868Y-88407385D02*
G01*
X150174095Y-88454445D01*
X150206840Y-88495437D01*
X150250495Y-88529132D01*
X150264266Y-88536920D01*
X150299600Y-88555547D01*
X156700400Y-88555547D01*
X156735733Y-88536920D01*
X156782270Y-88505437D01*
X156818061Y-88466320D01*
X156842501Y-88420799D01*
X156854983Y-88370103D01*
X156854902Y-88315459D01*
X156852609Y-88299977D01*
X156850786Y-88293272D01*
X156846923Y-88282565D01*
X156840825Y-88267449D01*
X156832300Y-88247519D01*
X156821157Y-88222372D01*
X156807200Y-88191601D01*
X156790239Y-88154801D01*
X156770080Y-88111567D01*
X156746530Y-88061495D01*
X156719396Y-88004178D01*
X156688486Y-87939213D01*
X156653606Y-87866193D01*
X156614565Y-87784714D01*
X156571168Y-87694371D01*
X156523224Y-87594759D01*
X156470540Y-87485471D01*
X156412922Y-87366105D01*
X156350178Y-87236253D01*
X156282115Y-87095512D01*
X156208540Y-86943475D01*
X156129260Y-86779739D01*
X156114256Y-86748760D01*
X155383508Y-85240000D01*
X156114228Y-83731240D01*
X156192811Y-83568975D01*
X156265695Y-83418441D01*
X156333093Y-83279181D01*
X156395218Y-83150737D01*
X156452284Y-83032652D01*
X156504503Y-82924468D01*
X156552089Y-82825727D01*
X156595254Y-82735972D01*
X156634210Y-82654746D01*
X156669172Y-82581590D01*
X156700353Y-82516048D01*
X156727964Y-82457662D01*
X156752219Y-82405974D01*
X156773331Y-82360527D01*
X156791513Y-82320863D01*
X156806979Y-82286524D01*
X156819939Y-82257054D01*
X156830609Y-82231994D01*
X156839201Y-82210887D01*
X156845927Y-82193275D01*
X156851002Y-82178702D01*
X156854636Y-82166709D01*
X156857045Y-82156839D01*
X156858440Y-82148634D01*
X156859035Y-82141636D01*
X156859042Y-82135389D01*
X156858831Y-82131489D01*
X156857091Y-82118349D01*
X156853674Y-82098711D01*
X156852519Y-82092728D01*
X156836103Y-82043744D01*
X156807834Y-82000325D01*
X156768711Y-81963750D01*
X156735733Y-81943079D01*
X156700400Y-81924453D01*
X154811082Y-81924453D01*
X154811082Y-82205547D01*
X154962609Y-82205560D01*
X155110556Y-82205599D01*
X155254353Y-82205663D01*
X155393432Y-82205751D01*
X155527221Y-82205861D01*
X155655152Y-82205992D01*
X155776655Y-82206144D01*
X155891160Y-82206315D01*
X155998098Y-82206503D01*
X156096899Y-82206709D01*
X156186993Y-82206930D01*
X156267811Y-82207166D01*
X156338783Y-82207415D01*
X156399340Y-82207676D01*
X156448911Y-82207949D01*
X156486928Y-82208231D01*
X156512820Y-82208522D01*
X156526019Y-82208821D01*
X156527680Y-82208972D01*
X156524771Y-82215307D01*
X156516225Y-82233272D01*
X156502312Y-82262307D01*
X156483303Y-82301852D01*
X156459468Y-82351346D01*
X156431079Y-82410229D01*
X156398406Y-82477941D01*
X156361719Y-82553921D01*
X156321290Y-82637610D01*
X156277388Y-82728447D01*
X156230286Y-82825871D01*
X156180252Y-82929323D01*
X156127558Y-83038242D01*
X156072475Y-83152069D01*
X156015273Y-83270241D01*
X155956223Y-83392201D01*
X155896978Y-83514532D01*
X155836065Y-83640282D01*
X155776546Y-83763133D01*
X155718706Y-83882501D01*
X155662826Y-83997803D01*
X155609191Y-84108454D01*
X155558084Y-84213872D01*
X155509787Y-84313471D01*
X155464585Y-84406669D01*
X155422760Y-84492880D01*
X155384596Y-84571521D01*
X155350375Y-84642009D01*
X155320383Y-84703759D01*
X155294900Y-84756188D01*
X155274212Y-84798711D01*
X155258601Y-84830744D01*
X155248350Y-84851705D01*
X155243904Y-84860693D01*
X155221532Y-84904720D01*
X155142403Y-84742160D01*
X155118647Y-84693338D01*
X155094431Y-84643534D01*
X155071126Y-84595573D01*
X155050103Y-84552279D01*
X155032736Y-84516475D01*
X155023943Y-84498320D01*
X154994713Y-84443235D01*
X154965709Y-84400382D01*
X154935530Y-84368542D01*
X154902773Y-84346499D01*
X154866038Y-84333036D01*
X154826786Y-84327126D01*
X154778795Y-84327921D01*
X154737710Y-84338671D01*
X154700276Y-84360613D01*
X154671853Y-84385951D01*
X154661881Y-84396518D01*
X154652470Y-84407806D01*
X154642892Y-84421139D01*
X154632420Y-84437843D01*
X154620326Y-84459243D01*
X154605882Y-84486663D01*
X154588359Y-84521428D01*
X154567031Y-84564864D01*
X154541169Y-84618295D01*
X154519824Y-84662672D01*
X154494424Y-84715133D01*
X154470692Y-84763326D01*
X154449284Y-84805980D01*
X154430856Y-84841821D01*
X154416066Y-84869580D01*
X154405568Y-84887983D01*
X154400021Y-84895760D01*
X154399450Y-84895866D01*
X154396123Y-84889454D01*
X154387221Y-84871530D01*
X154373073Y-84842774D01*
X154354009Y-84803864D01*
X154330360Y-84755480D01*
X154302454Y-84698302D01*
X154270622Y-84633010D01*
X154235194Y-84560282D01*
X154196499Y-84480799D01*
X154154868Y-84395240D01*
X154110629Y-84304284D01*
X154064114Y-84208611D01*
X154015652Y-84108901D01*
X153965572Y-84005833D01*
X153914205Y-83900086D01*
X153861881Y-83792340D01*
X153808929Y-83683275D01*
X153755678Y-83573570D01*
X153702460Y-83463905D01*
X153649604Y-83354958D01*
X153597440Y-83247411D01*
X153546297Y-83141941D01*
X153500000Y-83046439D01*
X153500000Y-83716265D01*
X153503583Y-83722229D01*
X153512581Y-83739519D01*
X153526563Y-83767244D01*
X153545097Y-83804510D01*
X153567751Y-83850423D01*
X153594096Y-83904091D01*
X153623699Y-83964620D01*
X153656130Y-84031117D01*
X153690957Y-84102688D01*
X153727748Y-84178442D01*
X153766074Y-84257483D01*
X153805502Y-84338920D01*
X153845602Y-84421858D01*
X153885942Y-84505405D01*
X153926090Y-84588668D01*
X153965617Y-84670753D01*
X154004090Y-84750767D01*
X154041079Y-84827817D01*
X154076152Y-84901009D01*
X154108877Y-84969451D01*
X154138825Y-85032250D01*
X154165563Y-85088511D01*
X154188661Y-85137342D01*
X154207687Y-85177850D01*
X154222209Y-85209141D01*
X154231798Y-85230322D01*
X154236021Y-85240501D01*
X154236187Y-85241237D01*
X154233125Y-85248662D01*
X154224507Y-85267527D01*
X154210688Y-85297083D01*
X154192028Y-85336585D01*
X154168884Y-85385284D01*
X154141613Y-85442432D01*
X154110574Y-85507283D01*
X154076123Y-85579089D01*
X154038620Y-85657103D01*
X153998420Y-85740576D01*
X153955883Y-85828762D01*
X153911365Y-85920914D01*
X153869147Y-86008183D01*
X153823168Y-86103105D01*
X153778806Y-86194583D01*
X153736418Y-86281883D01*
X153696363Y-86364272D01*
X153658999Y-86441016D01*
X153624684Y-86511381D01*
X153593778Y-86574634D01*
X153566639Y-86630041D01*
X153543624Y-86676868D01*
X153525093Y-86714383D01*
X153511404Y-86741850D01*
X153502914Y-86758538D01*
X153500000Y-86763739D01*
X153496495Y-86757779D01*
X153487575Y-86740492D01*
X153473672Y-86712772D01*
X153455215Y-86675512D01*
X153432636Y-86629606D01*
X153406366Y-86575947D01*
X153376836Y-86515429D01*
X153344476Y-86448946D01*
X153309719Y-86377390D01*
X153272994Y-86301656D01*
X153234732Y-86222636D01*
X153195366Y-86141225D01*
X153155324Y-86058316D01*
X153115040Y-85974803D01*
X153074942Y-85891578D01*
X153035463Y-85809537D01*
X152997034Y-85729571D01*
X152960085Y-85652575D01*
X152925047Y-85579442D01*
X152892351Y-85511066D01*
X152862429Y-85448340D01*
X152835710Y-85392158D01*
X152812627Y-85343414D01*
X152793610Y-85303000D01*
X152779090Y-85271810D01*
X152769497Y-85250739D01*
X152765264Y-85240678D01*
X152765093Y-85240000D01*
X152767968Y-85232732D01*
X152776306Y-85214236D01*
X152789676Y-85185407D01*
X152807647Y-85147138D01*
X152829789Y-85100323D01*
X152855669Y-85045855D01*
X152884857Y-84984627D01*
X152916923Y-84917533D01*
X152951435Y-84845467D01*
X152987962Y-84769322D01*
X153026073Y-84689992D01*
X153065338Y-84608370D01*
X153105326Y-84525349D01*
X153145605Y-84441824D01*
X153185744Y-84358688D01*
X153225313Y-84276834D01*
X153263881Y-84197155D01*
X153301016Y-84120546D01*
X153336288Y-84047900D01*
X153369266Y-83980111D01*
X153399519Y-83918071D01*
X153426615Y-83862675D01*
X153450125Y-83814815D01*
X153469616Y-83775387D01*
X153484659Y-83745282D01*
X153494821Y-83725395D01*
X153499673Y-83716618D01*
X153500000Y-83716265D01*
X153500000Y-83046439D01*
X153496505Y-83039229D01*
X153448395Y-82939955D01*
X153402296Y-82844797D01*
X153358538Y-82754435D01*
X153317450Y-82669550D01*
X153279364Y-82590819D01*
X153244608Y-82518923D01*
X153213512Y-82454542D01*
X153186406Y-82398355D01*
X153163621Y-82351041D01*
X153145485Y-82313280D01*
X153132330Y-82285751D01*
X153127221Y-82274973D01*
X153094483Y-82205547D01*
X154811082Y-82205547D01*
X154811082Y-81924453D01*
X151778468Y-81924453D01*
X151778468Y-85575280D01*
X151857597Y-85737840D01*
X151881352Y-85786662D01*
X151905569Y-85836465D01*
X151928874Y-85884426D01*
X151949896Y-85927721D01*
X151967263Y-85963525D01*
X151976057Y-85981680D01*
X152005287Y-86036764D01*
X152034291Y-86079618D01*
X152064470Y-86111458D01*
X152097226Y-86133500D01*
X152133962Y-86146964D01*
X152173214Y-86152873D01*
X152221205Y-86152079D01*
X152262289Y-86141328D01*
X152299723Y-86119387D01*
X152328146Y-86094049D01*
X152338119Y-86083481D01*
X152347530Y-86072194D01*
X152357108Y-86058860D01*
X152367579Y-86042156D01*
X152379674Y-86020757D01*
X152394118Y-85993337D01*
X152411640Y-85958572D01*
X152432969Y-85915136D01*
X152458831Y-85861705D01*
X152480175Y-85817327D01*
X152505576Y-85764867D01*
X152529309Y-85716675D01*
X152550720Y-85674025D01*
X152569150Y-85638186D01*
X152583944Y-85610431D01*
X152594445Y-85592031D01*
X152599997Y-85584258D01*
X152600569Y-85584153D01*
X152604019Y-85590702D01*
X152613102Y-85608892D01*
X152627546Y-85638168D01*
X152647084Y-85677977D01*
X152671446Y-85727765D01*
X152700362Y-85786980D01*
X152733562Y-85855066D01*
X152770779Y-85931472D01*
X152811741Y-86015642D01*
X152856181Y-86107024D01*
X152903827Y-86205064D01*
X152954412Y-86309208D01*
X153007665Y-86418904D01*
X153063318Y-86533596D01*
X153121101Y-86652732D01*
X153180744Y-86775758D01*
X153241978Y-86902121D01*
X153255704Y-86930452D01*
X153905154Y-88271067D01*
X152191008Y-88272773D01*
X152039554Y-88272913D01*
X151891662Y-88273030D01*
X151747903Y-88273124D01*
X151608848Y-88273194D01*
X151475068Y-88273242D01*
X151347134Y-88273267D01*
X151225619Y-88273270D01*
X151111092Y-88273252D01*
X151004125Y-88273212D01*
X150905289Y-88273151D01*
X150815156Y-88273069D01*
X150734297Y-88272967D01*
X150663283Y-88272844D01*
X150602685Y-88272701D01*
X150553074Y-88272539D01*
X150515021Y-88272358D01*
X150489099Y-88272158D01*
X150475877Y-88271939D01*
X150474210Y-88271827D01*
X150476919Y-88265655D01*
X150485210Y-88247967D01*
X150498756Y-88219438D01*
X150517231Y-88180743D01*
X150540309Y-88132557D01*
X150567663Y-88075555D01*
X150598967Y-88010413D01*
X150633895Y-87937804D01*
X150672121Y-87858405D01*
X150713319Y-87772889D01*
X150757162Y-87681933D01*
X150803325Y-87586210D01*
X150851480Y-87486397D01*
X150901303Y-87383167D01*
X150952466Y-87277196D01*
X151004644Y-87169159D01*
X151057510Y-87059731D01*
X151110738Y-86949587D01*
X151164002Y-86839401D01*
X151216975Y-86729850D01*
X151269332Y-86621607D01*
X151320747Y-86515347D01*
X151370893Y-86411747D01*
X151419443Y-86311480D01*
X151466073Y-86215221D01*
X151510454Y-86123646D01*
X151552263Y-86037430D01*
X151591171Y-85957247D01*
X151626853Y-85883773D01*
X151658983Y-85817683D01*
X151687235Y-85759650D01*
X151711282Y-85710352D01*
X151730798Y-85670461D01*
X151745457Y-85640654D01*
X151754933Y-85621606D01*
X151756096Y-85619307D01*
X151778468Y-85575280D01*
X151778468Y-81924453D01*
X150299600Y-81924453D01*
X150264266Y-81943079D01*
X150217730Y-81974563D01*
X150181939Y-82013679D01*
X150157499Y-82059200D01*
X150145017Y-82109897D01*
X150145098Y-82164540D01*
X150147390Y-82180023D01*
X150149213Y-82186727D01*
X150153077Y-82197435D01*
X150159175Y-82212551D01*
X150167699Y-82232480D01*
X150178843Y-82257628D01*
X150192799Y-82288399D01*
X150209761Y-82325199D01*
X150229920Y-82368433D01*
X150253470Y-82418505D01*
X150280604Y-82475821D01*
X150311514Y-82540787D01*
X150346393Y-82613806D01*
X150385435Y-82695285D01*
X150428831Y-82785628D01*
X150476775Y-82885241D01*
X150529460Y-82994528D01*
X150587078Y-83113895D01*
X150649822Y-83243747D01*
X150717885Y-83384488D01*
X150791460Y-83536524D01*
X150870740Y-83700261D01*
X150885743Y-83731240D01*
X151616492Y-85240000D01*
X150885743Y-86748760D01*
X150805409Y-86914661D01*
X150730814Y-87068790D01*
X150661765Y-87211549D01*
X150598071Y-87343346D01*
X150539537Y-87464584D01*
X150485972Y-87575669D01*
X150437183Y-87677006D01*
X150392976Y-87769000D01*
X150353159Y-87852056D01*
X150317539Y-87926580D01*
X150285924Y-87992976D01*
X150258119Y-88051650D01*
X150233934Y-88103006D01*
X150213174Y-88147449D01*
X150195647Y-88185386D01*
X150181160Y-88217221D01*
X150169520Y-88243358D01*
X150160535Y-88264204D01*
X150154011Y-88280162D01*
X150149757Y-88291639D01*
X150147578Y-88299040D01*
X150147390Y-88299977D01*
X150143765Y-88355486D01*
X150152868Y-88407385D01*
G37*
X150152868Y-88407385D02*
X150174095Y-88454445D01*
X150206840Y-88495437D01*
X150250495Y-88529132D01*
X150264266Y-88536920D01*
X150299600Y-88555547D01*
X156700400Y-88555547D01*
X156735733Y-88536920D01*
X156782270Y-88505437D01*
X156818061Y-88466320D01*
X156842501Y-88420799D01*
X156854983Y-88370103D01*
X156854902Y-88315459D01*
X156852609Y-88299977D01*
X156850786Y-88293272D01*
X156846923Y-88282565D01*
X156840825Y-88267449D01*
X156832300Y-88247519D01*
X156821157Y-88222372D01*
X156807200Y-88191601D01*
X156790239Y-88154801D01*
X156770080Y-88111567D01*
X156746530Y-88061495D01*
X156719396Y-88004178D01*
X156688486Y-87939213D01*
X156653606Y-87866193D01*
X156614565Y-87784714D01*
X156571168Y-87694371D01*
X156523224Y-87594759D01*
X156470540Y-87485471D01*
X156412922Y-87366105D01*
X156350178Y-87236253D01*
X156282115Y-87095512D01*
X156208540Y-86943475D01*
X156129260Y-86779739D01*
X156114256Y-86748760D01*
X155383508Y-85240000D01*
X156114228Y-83731240D01*
X156192811Y-83568975D01*
X156265695Y-83418441D01*
X156333093Y-83279181D01*
X156395218Y-83150737D01*
X156452284Y-83032652D01*
X156504503Y-82924468D01*
X156552089Y-82825727D01*
X156595254Y-82735972D01*
X156634210Y-82654746D01*
X156669172Y-82581590D01*
X156700353Y-82516048D01*
X156727964Y-82457662D01*
X156752219Y-82405974D01*
X156773331Y-82360527D01*
X156791513Y-82320863D01*
X156806979Y-82286524D01*
X156819939Y-82257054D01*
X156830609Y-82231994D01*
X156839201Y-82210887D01*
X156845927Y-82193275D01*
X156851002Y-82178702D01*
X156854636Y-82166709D01*
X156857045Y-82156839D01*
X156858440Y-82148634D01*
X156859035Y-82141636D01*
X156859042Y-82135389D01*
X156858831Y-82131489D01*
X156857091Y-82118349D01*
X156853674Y-82098711D01*
X156852519Y-82092728D01*
X156836103Y-82043744D01*
X156807834Y-82000325D01*
X156768711Y-81963750D01*
X156735733Y-81943079D01*
X156700400Y-81924453D01*
X154811082Y-81924453D01*
X154811082Y-82205547D01*
X154962609Y-82205560D01*
X155110556Y-82205599D01*
X155254353Y-82205663D01*
X155393432Y-82205751D01*
X155527221Y-82205861D01*
X155655152Y-82205992D01*
X155776655Y-82206144D01*
X155891160Y-82206315D01*
X155998098Y-82206503D01*
X156096899Y-82206709D01*
X156186993Y-82206930D01*
X156267811Y-82207166D01*
X156338783Y-82207415D01*
X156399340Y-82207676D01*
X156448911Y-82207949D01*
X156486928Y-82208231D01*
X156512820Y-82208522D01*
X156526019Y-82208821D01*
X156527680Y-82208972D01*
X156524771Y-82215307D01*
X156516225Y-82233272D01*
X156502312Y-82262307D01*
X156483303Y-82301852D01*
X156459468Y-82351346D01*
X156431079Y-82410229D01*
X156398406Y-82477941D01*
X156361719Y-82553921D01*
X156321290Y-82637610D01*
X156277388Y-82728447D01*
X156230286Y-82825871D01*
X156180252Y-82929323D01*
X156127558Y-83038242D01*
X156072475Y-83152069D01*
X156015273Y-83270241D01*
X155956223Y-83392201D01*
X155896978Y-83514532D01*
X155836065Y-83640282D01*
X155776546Y-83763133D01*
X155718706Y-83882501D01*
X155662826Y-83997803D01*
X155609191Y-84108454D01*
X155558084Y-84213872D01*
X155509787Y-84313471D01*
X155464585Y-84406669D01*
X155422760Y-84492880D01*
X155384596Y-84571521D01*
X155350375Y-84642009D01*
X155320383Y-84703759D01*
X155294900Y-84756188D01*
X155274212Y-84798711D01*
X155258601Y-84830744D01*
X155248350Y-84851705D01*
X155243904Y-84860693D01*
X155221532Y-84904720D01*
X155142403Y-84742160D01*
X155118647Y-84693338D01*
X155094431Y-84643534D01*
X155071126Y-84595573D01*
X155050103Y-84552279D01*
X155032736Y-84516475D01*
X155023943Y-84498320D01*
X154994713Y-84443235D01*
X154965709Y-84400382D01*
X154935530Y-84368542D01*
X154902773Y-84346499D01*
X154866038Y-84333036D01*
X154826786Y-84327126D01*
X154778795Y-84327921D01*
X154737710Y-84338671D01*
X154700276Y-84360613D01*
X154671853Y-84385951D01*
X154661881Y-84396518D01*
X154652470Y-84407806D01*
X154642892Y-84421139D01*
X154632420Y-84437843D01*
X154620326Y-84459243D01*
X154605882Y-84486663D01*
X154588359Y-84521428D01*
X154567031Y-84564864D01*
X154541169Y-84618295D01*
X154519824Y-84662672D01*
X154494424Y-84715133D01*
X154470692Y-84763326D01*
X154449284Y-84805980D01*
X154430856Y-84841821D01*
X154416066Y-84869580D01*
X154405568Y-84887983D01*
X154400021Y-84895760D01*
X154399450Y-84895866D01*
X154396123Y-84889454D01*
X154387221Y-84871530D01*
X154373073Y-84842774D01*
X154354009Y-84803864D01*
X154330360Y-84755480D01*
X154302454Y-84698302D01*
X154270622Y-84633010D01*
X154235194Y-84560282D01*
X154196499Y-84480799D01*
X154154868Y-84395240D01*
X154110629Y-84304284D01*
X154064114Y-84208611D01*
X154015652Y-84108901D01*
X153965572Y-84005833D01*
X153914205Y-83900086D01*
X153861881Y-83792340D01*
X153808929Y-83683275D01*
X153755678Y-83573570D01*
X153702460Y-83463905D01*
X153649604Y-83354958D01*
X153597440Y-83247411D01*
X153546297Y-83141941D01*
X153500000Y-83046439D01*
X153500000Y-83716265D01*
X153503583Y-83722229D01*
X153512581Y-83739519D01*
X153526563Y-83767244D01*
X153545097Y-83804510D01*
X153567751Y-83850423D01*
X153594096Y-83904091D01*
X153623699Y-83964620D01*
X153656130Y-84031117D01*
X153690957Y-84102688D01*
X153727748Y-84178442D01*
X153766074Y-84257483D01*
X153805502Y-84338920D01*
X153845602Y-84421858D01*
X153885942Y-84505405D01*
X153926090Y-84588668D01*
X153965617Y-84670753D01*
X154004090Y-84750767D01*
X154041079Y-84827817D01*
X154076152Y-84901009D01*
X154108877Y-84969451D01*
X154138825Y-85032250D01*
X154165563Y-85088511D01*
X154188661Y-85137342D01*
X154207687Y-85177850D01*
X154222209Y-85209141D01*
X154231798Y-85230322D01*
X154236021Y-85240501D01*
X154236187Y-85241237D01*
X154233125Y-85248662D01*
X154224507Y-85267527D01*
X154210688Y-85297083D01*
X154192028Y-85336585D01*
X154168884Y-85385284D01*
X154141613Y-85442432D01*
X154110574Y-85507283D01*
X154076123Y-85579089D01*
X154038620Y-85657103D01*
X153998420Y-85740576D01*
X153955883Y-85828762D01*
X153911365Y-85920914D01*
X153869147Y-86008183D01*
X153823168Y-86103105D01*
X153778806Y-86194583D01*
X153736418Y-86281883D01*
X153696363Y-86364272D01*
X153658999Y-86441016D01*
X153624684Y-86511381D01*
X153593778Y-86574634D01*
X153566639Y-86630041D01*
X153543624Y-86676868D01*
X153525093Y-86714383D01*
X153511404Y-86741850D01*
X153502914Y-86758538D01*
X153500000Y-86763739D01*
X153496495Y-86757779D01*
X153487575Y-86740492D01*
X153473672Y-86712772D01*
X153455215Y-86675512D01*
X153432636Y-86629606D01*
X153406366Y-86575947D01*
X153376836Y-86515429D01*
X153344476Y-86448946D01*
X153309719Y-86377390D01*
X153272994Y-86301656D01*
X153234732Y-86222636D01*
X153195366Y-86141225D01*
X153155324Y-86058316D01*
X153115040Y-85974803D01*
X153074942Y-85891578D01*
X153035463Y-85809537D01*
X152997034Y-85729571D01*
X152960085Y-85652575D01*
X152925047Y-85579442D01*
X152892351Y-85511066D01*
X152862429Y-85448340D01*
X152835710Y-85392158D01*
X152812627Y-85343414D01*
X152793610Y-85303000D01*
X152779090Y-85271810D01*
X152769497Y-85250739D01*
X152765264Y-85240678D01*
X152765093Y-85240000D01*
X152767968Y-85232732D01*
X152776306Y-85214236D01*
X152789676Y-85185407D01*
X152807647Y-85147138D01*
X152829789Y-85100323D01*
X152855669Y-85045855D01*
X152884857Y-84984627D01*
X152916923Y-84917533D01*
X152951435Y-84845467D01*
X152987962Y-84769322D01*
X153026073Y-84689992D01*
X153065338Y-84608370D01*
X153105326Y-84525349D01*
X153145605Y-84441824D01*
X153185744Y-84358688D01*
X153225313Y-84276834D01*
X153263881Y-84197155D01*
X153301016Y-84120546D01*
X153336288Y-84047900D01*
X153369266Y-83980111D01*
X153399519Y-83918071D01*
X153426615Y-83862675D01*
X153450125Y-83814815D01*
X153469616Y-83775387D01*
X153484659Y-83745282D01*
X153494821Y-83725395D01*
X153499673Y-83716618D01*
X153500000Y-83716265D01*
X153500000Y-83046439D01*
X153496505Y-83039229D01*
X153448395Y-82939955D01*
X153402296Y-82844797D01*
X153358538Y-82754435D01*
X153317450Y-82669550D01*
X153279364Y-82590819D01*
X153244608Y-82518923D01*
X153213512Y-82454542D01*
X153186406Y-82398355D01*
X153163621Y-82351041D01*
X153145485Y-82313280D01*
X153132330Y-82285751D01*
X153127221Y-82274973D01*
X153094483Y-82205547D01*
X154811082Y-82205547D01*
X154811082Y-81924453D01*
X151778468Y-81924453D01*
X151778468Y-85575280D01*
X151857597Y-85737840D01*
X151881352Y-85786662D01*
X151905569Y-85836465D01*
X151928874Y-85884426D01*
X151949896Y-85927721D01*
X151967263Y-85963525D01*
X151976057Y-85981680D01*
X152005287Y-86036764D01*
X152034291Y-86079618D01*
X152064470Y-86111458D01*
X152097226Y-86133500D01*
X152133962Y-86146964D01*
X152173214Y-86152873D01*
X152221205Y-86152079D01*
X152262289Y-86141328D01*
X152299723Y-86119387D01*
X152328146Y-86094049D01*
X152338119Y-86083481D01*
X152347530Y-86072194D01*
X152357108Y-86058860D01*
X152367579Y-86042156D01*
X152379674Y-86020757D01*
X152394118Y-85993337D01*
X152411640Y-85958572D01*
X152432969Y-85915136D01*
X152458831Y-85861705D01*
X152480175Y-85817327D01*
X152505576Y-85764867D01*
X152529309Y-85716675D01*
X152550720Y-85674025D01*
X152569150Y-85638186D01*
X152583944Y-85610431D01*
X152594445Y-85592031D01*
X152599997Y-85584258D01*
X152600569Y-85584153D01*
X152604019Y-85590702D01*
X152613102Y-85608892D01*
X152627546Y-85638168D01*
X152647084Y-85677977D01*
X152671446Y-85727765D01*
X152700362Y-85786980D01*
X152733562Y-85855066D01*
X152770779Y-85931472D01*
X152811741Y-86015642D01*
X152856181Y-86107024D01*
X152903827Y-86205064D01*
X152954412Y-86309208D01*
X153007665Y-86418904D01*
X153063318Y-86533596D01*
X153121101Y-86652732D01*
X153180744Y-86775758D01*
X153241978Y-86902121D01*
X153255704Y-86930452D01*
X153905154Y-88271067D01*
X152191008Y-88272773D01*
X152039554Y-88272913D01*
X151891662Y-88273030D01*
X151747903Y-88273124D01*
X151608848Y-88273194D01*
X151475068Y-88273242D01*
X151347134Y-88273267D01*
X151225619Y-88273270D01*
X151111092Y-88273252D01*
X151004125Y-88273212D01*
X150905289Y-88273151D01*
X150815156Y-88273069D01*
X150734297Y-88272967D01*
X150663283Y-88272844D01*
X150602685Y-88272701D01*
X150553074Y-88272539D01*
X150515021Y-88272358D01*
X150489099Y-88272158D01*
X150475877Y-88271939D01*
X150474210Y-88271827D01*
X150476919Y-88265655D01*
X150485210Y-88247967D01*
X150498756Y-88219438D01*
X150517231Y-88180743D01*
X150540309Y-88132557D01*
X150567663Y-88075555D01*
X150598967Y-88010413D01*
X150633895Y-87937804D01*
X150672121Y-87858405D01*
X150713319Y-87772889D01*
X150757162Y-87681933D01*
X150803325Y-87586210D01*
X150851480Y-87486397D01*
X150901303Y-87383167D01*
X150952466Y-87277196D01*
X151004644Y-87169159D01*
X151057510Y-87059731D01*
X151110738Y-86949587D01*
X151164002Y-86839401D01*
X151216975Y-86729850D01*
X151269332Y-86621607D01*
X151320747Y-86515347D01*
X151370893Y-86411747D01*
X151419443Y-86311480D01*
X151466073Y-86215221D01*
X151510454Y-86123646D01*
X151552263Y-86037430D01*
X151591171Y-85957247D01*
X151626853Y-85883773D01*
X151658983Y-85817683D01*
X151687235Y-85759650D01*
X151711282Y-85710352D01*
X151730798Y-85670461D01*
X151745457Y-85640654D01*
X151754933Y-85621606D01*
X151756096Y-85619307D01*
X151778468Y-85575280D01*
X151778468Y-81924453D01*
X150299600Y-81924453D01*
X150264266Y-81943079D01*
X150217730Y-81974563D01*
X150181939Y-82013679D01*
X150157499Y-82059200D01*
X150145017Y-82109897D01*
X150145098Y-82164540D01*
X150147390Y-82180023D01*
X150149213Y-82186727D01*
X150153077Y-82197435D01*
X150159175Y-82212551D01*
X150167699Y-82232480D01*
X150178843Y-82257628D01*
X150192799Y-82288399D01*
X150209761Y-82325199D01*
X150229920Y-82368433D01*
X150253470Y-82418505D01*
X150280604Y-82475821D01*
X150311514Y-82540787D01*
X150346393Y-82613806D01*
X150385435Y-82695285D01*
X150428831Y-82785628D01*
X150476775Y-82885241D01*
X150529460Y-82994528D01*
X150587078Y-83113895D01*
X150649822Y-83243747D01*
X150717885Y-83384488D01*
X150791460Y-83536524D01*
X150870740Y-83700261D01*
X150885743Y-83731240D01*
X151616492Y-85240000D01*
X150885743Y-86748760D01*
X150805409Y-86914661D01*
X150730814Y-87068790D01*
X150661765Y-87211549D01*
X150598071Y-87343346D01*
X150539537Y-87464584D01*
X150485972Y-87575669D01*
X150437183Y-87677006D01*
X150392976Y-87769000D01*
X150353159Y-87852056D01*
X150317539Y-87926580D01*
X150285924Y-87992976D01*
X150258119Y-88051650D01*
X150233934Y-88103006D01*
X150213174Y-88147449D01*
X150195647Y-88185386D01*
X150181160Y-88217221D01*
X150169520Y-88243358D01*
X150160535Y-88264204D01*
X150154011Y-88280162D01*
X150149757Y-88291639D01*
X150147578Y-88299040D01*
X150147390Y-88299977D01*
X150143765Y-88355486D01*
X150152868Y-88407385D01*
G36*
X156013542Y-109632708D02*
G01*
X156013542Y-110426458D01*
X156807292Y-110426458D01*
X156807292Y-109632708D01*
X156013542Y-109632708D01*
G37*
X156013542Y-109632708D02*
X156013542Y-110426458D01*
X156807292Y-110426458D01*
X156807292Y-109632708D01*
X156013542Y-109632708D01*
G36*
X156013542Y-115453542D02*
G01*
X156013542Y-116247292D01*
X156807292Y-116247292D01*
X156807292Y-115453542D01*
X156013542Y-115453542D01*
G37*
X156013542Y-115453542D02*
X156013542Y-116247292D01*
X156807292Y-116247292D01*
X156807292Y-115453542D01*
X156013542Y-115453542D01*
G36*
X154161458Y-112278542D02*
G01*
X154161458Y-112543125D01*
X154426042Y-112543125D01*
X154426042Y-112278542D01*
X154161458Y-112278542D01*
G37*
X154161458Y-112278542D02*
X154161458Y-112543125D01*
X154426042Y-112543125D01*
X154426042Y-112278542D01*
X154161458Y-112278542D01*
G36*
X153896875Y-113336875D02*
G01*
X153896875Y-113601458D01*
X154161458Y-113601458D01*
X154161458Y-113336875D01*
X153896875Y-113336875D01*
G37*
X153896875Y-113336875D02*
X153896875Y-113601458D01*
X154161458Y-113601458D01*
X154161458Y-113336875D01*
X153896875Y-113336875D01*
G36*
X153632292Y-113866042D02*
G01*
X153632292Y-114130625D01*
X153896875Y-114130625D01*
X153896875Y-113866042D01*
X153632292Y-113866042D01*
G37*
X153632292Y-113866042D02*
X153632292Y-114130625D01*
X153896875Y-114130625D01*
X153896875Y-113866042D01*
X153632292Y-113866042D01*
G36*
X154161458Y-115188958D02*
G01*
X154161458Y-114924375D01*
X153896875Y-114924375D01*
X153896875Y-115188958D01*
X154161458Y-115188958D01*
G37*
X154161458Y-115188958D02*
X154161458Y-114924375D01*
X153896875Y-114924375D01*
X153896875Y-115188958D01*
X154161458Y-115188958D01*
G36*
X153632292Y-115188958D02*
G01*
X153632292Y-115718125D01*
X153896875Y-115718125D01*
X153896875Y-115188958D01*
X153632292Y-115188958D01*
G37*
X153632292Y-115188958D02*
X153632292Y-115718125D01*
X153896875Y-115718125D01*
X153896875Y-115188958D01*
X153632292Y-115188958D01*
G36*
X153103125Y-113601458D02*
G01*
X153103125Y-113866042D01*
X153367708Y-113866042D01*
X153367708Y-113601458D01*
X153103125Y-113601458D01*
G37*
X153103125Y-113601458D02*
X153103125Y-113866042D01*
X153367708Y-113866042D01*
X153367708Y-113601458D01*
X153103125Y-113601458D01*
G36*
X153103125Y-114130625D02*
G01*
X153103125Y-114395208D01*
X153367708Y-114395208D01*
X153367708Y-114130625D01*
X153103125Y-114130625D01*
G37*
X153103125Y-114130625D02*
X153103125Y-114395208D01*
X153367708Y-114395208D01*
X153367708Y-114130625D01*
X153103125Y-114130625D01*
G36*
X151251042Y-110691042D02*
G01*
X151251042Y-110955625D01*
X151515625Y-110955625D01*
X151515625Y-110691042D01*
X151251042Y-110691042D01*
G37*
X151251042Y-110691042D02*
X151251042Y-110955625D01*
X151515625Y-110955625D01*
X151515625Y-110691042D01*
X151251042Y-110691042D01*
G36*
X152573958Y-112278542D02*
G01*
X152573958Y-112013958D01*
X152309375Y-112013958D01*
X152309375Y-112278542D01*
X152573958Y-112278542D01*
G37*
X152573958Y-112278542D02*
X152573958Y-112013958D01*
X152309375Y-112013958D01*
X152309375Y-112278542D01*
X152573958Y-112278542D01*
G36*
X152044792Y-112278542D02*
G01*
X152044792Y-112543125D01*
X152309375Y-112543125D01*
X152309375Y-112278542D01*
X152044792Y-112278542D01*
G37*
X152044792Y-112278542D02*
X152044792Y-112543125D01*
X152309375Y-112543125D01*
X152309375Y-112278542D01*
X152044792Y-112278542D01*
G36*
X151251042Y-112013958D02*
G01*
X151251042Y-112278542D01*
X151515625Y-112278542D01*
X151515625Y-112013958D01*
X151251042Y-112013958D01*
G37*
X151251042Y-112013958D02*
X151251042Y-112278542D01*
X151515625Y-112278542D01*
X151515625Y-112013958D01*
X151251042Y-112013958D01*
G36*
X150192708Y-115453542D02*
G01*
X150192708Y-116247292D01*
X150986458Y-116247292D01*
X150986458Y-115453542D01*
X150192708Y-115453542D01*
G37*
X150192708Y-115453542D02*
X150192708Y-116247292D01*
X150986458Y-116247292D01*
X150986458Y-115453542D01*
X150192708Y-115453542D01*
G36*
X155484375Y-109103542D02*
G01*
X155484375Y-110955625D01*
X157071875Y-110955625D01*
X157071875Y-110657969D01*
X155748958Y-110657969D01*
X155748958Y-109368125D01*
X157071875Y-109368125D01*
X157071875Y-110657969D01*
X157071875Y-110955625D01*
X157336458Y-110955625D01*
X157336458Y-109103542D01*
X155484375Y-109103542D01*
G37*
X155484375Y-109103542D02*
X155484375Y-110955625D01*
X157071875Y-110955625D01*
X157071875Y-110657969D01*
X155748958Y-110657969D01*
X155748958Y-109368125D01*
X157071875Y-109368125D01*
X157071875Y-110657969D01*
X157071875Y-110955625D01*
X157336458Y-110955625D01*
X157336458Y-109103542D01*
X155484375Y-109103542D01*
G36*
X155484375Y-114395208D02*
G01*
X155484375Y-114659792D01*
X156013542Y-114659792D01*
X156013542Y-114395208D01*
X155484375Y-114395208D01*
G37*
X155484375Y-114395208D02*
X155484375Y-114659792D01*
X156013542Y-114659792D01*
X156013542Y-114395208D01*
X155484375Y-114395208D01*
G36*
X155484375Y-114924375D02*
G01*
X155484375Y-116776458D01*
X157071875Y-116776458D01*
X157071875Y-116478802D01*
X155748958Y-116478802D01*
X155748958Y-115188958D01*
X157071875Y-115188958D01*
X157071875Y-116478802D01*
X157071875Y-116776458D01*
X157336458Y-116776458D01*
X157336458Y-114924375D01*
X155484375Y-114924375D01*
G37*
X155484375Y-114924375D02*
X155484375Y-116776458D01*
X157071875Y-116776458D01*
X157071875Y-116478802D01*
X155748958Y-116478802D01*
X155748958Y-115188958D01*
X157071875Y-115188958D01*
X157071875Y-116478802D01*
X157071875Y-116776458D01*
X157336458Y-116776458D01*
X157336458Y-114924375D01*
X155484375Y-114924375D01*
G36*
X154161458Y-109103542D02*
G01*
X154161458Y-109368125D01*
X154426042Y-109368125D01*
X154426042Y-109103542D01*
X154161458Y-109103542D01*
G37*
X154161458Y-109103542D02*
X154161458Y-109368125D01*
X154426042Y-109368125D01*
X154426042Y-109103542D01*
X154161458Y-109103542D01*
G36*
X149928125Y-109103542D02*
G01*
X149928125Y-109368125D01*
X150192708Y-109368125D01*
X150192708Y-109103542D01*
X149928125Y-109103542D01*
G37*
X149928125Y-109103542D02*
X149928125Y-109368125D01*
X150192708Y-109368125D01*
X150192708Y-109103542D01*
X149928125Y-109103542D01*
G36*
X150196701Y-109368125D02*
G01*
X150186437Y-109492148D01*
X150176172Y-109616172D01*
X149919857Y-109625831D01*
X149663542Y-109635491D01*
X149663542Y-110426458D01*
X149793837Y-110426458D01*
X149878097Y-110422477D01*
X149917027Y-110398304D01*
X149931417Y-110335596D01*
X149934397Y-110302435D01*
X149946503Y-110220518D01*
X149978439Y-110183365D01*
X150051291Y-110169606D01*
X150066801Y-110168259D01*
X150147948Y-110155949D01*
X150184515Y-110123035D01*
X150198062Y-110047959D01*
X150199092Y-110035967D01*
X150211208Y-109955284D01*
X150243560Y-109918632D01*
X150317519Y-109904923D01*
X150333268Y-109903563D01*
X150457292Y-109893299D01*
X150457292Y-109368125D01*
X150196701Y-109368125D01*
G37*
X150196701Y-109368125D02*
X150186437Y-109492148D01*
X150176172Y-109616172D01*
X149919857Y-109625831D01*
X149663542Y-109635491D01*
X149663542Y-110426458D01*
X149793837Y-110426458D01*
X149878097Y-110422477D01*
X149917027Y-110398304D01*
X149931417Y-110335596D01*
X149934397Y-110302435D01*
X149946503Y-110220518D01*
X149978439Y-110183365D01*
X150051291Y-110169606D01*
X150066801Y-110168259D01*
X150147948Y-110155949D01*
X150184515Y-110123035D01*
X150198062Y-110047959D01*
X150199092Y-110035967D01*
X150211208Y-109955284D01*
X150243560Y-109918632D01*
X150317519Y-109904923D01*
X150333268Y-109903563D01*
X150457292Y-109893299D01*
X150457292Y-109368125D01*
X150196701Y-109368125D01*
G36*
X149663542Y-112013958D02*
G01*
X149663542Y-112807708D01*
X149928125Y-112807708D01*
X149928125Y-112013958D01*
X149663542Y-112013958D01*
G37*
X149663542Y-112013958D02*
X149663542Y-112807708D01*
X149928125Y-112807708D01*
X149928125Y-112013958D01*
X149663542Y-112013958D01*
G36*
X156013542Y-112807708D02*
G01*
X156434462Y-112807708D01*
X156434462Y-112543125D01*
X156339557Y-112535913D01*
X156293311Y-112503010D01*
X156278822Y-112427516D01*
X156278125Y-112386788D01*
X156282233Y-112313804D01*
X156307581Y-112284424D01*
X156373706Y-112282584D01*
X156402148Y-112284813D01*
X156484030Y-112296871D01*
X156521174Y-112328870D01*
X156534974Y-112402202D01*
X156536437Y-112419102D01*
X156539425Y-112500124D01*
X156519364Y-112534907D01*
X156460190Y-112542987D01*
X156434462Y-112543125D01*
X156434462Y-112807708D01*
X156542708Y-112807708D01*
X156542708Y-112675417D01*
X156545926Y-112590739D01*
X156568118Y-112553112D01*
X156628089Y-112543443D01*
X156673004Y-112543125D01*
X156757264Y-112539144D01*
X156796194Y-112514971D01*
X156810584Y-112452263D01*
X156813563Y-112419102D01*
X156825621Y-112337220D01*
X156857620Y-112300076D01*
X156930952Y-112286276D01*
X156947852Y-112284813D01*
X157071875Y-112274549D01*
X157071875Y-112543125D01*
X157336458Y-112543125D01*
X157336458Y-112278542D01*
X157204167Y-112278542D01*
X157119489Y-112275324D01*
X157081862Y-112253132D01*
X157072193Y-112193161D01*
X157071875Y-112148246D01*
X157067894Y-112063986D01*
X157043721Y-112025056D01*
X156981013Y-112010666D01*
X156947852Y-112007687D01*
X156866577Y-111996168D01*
X156831801Y-111966709D01*
X156823908Y-111899376D01*
X156823828Y-111881667D01*
X156823828Y-111765911D01*
X157336458Y-111746593D01*
X157336458Y-111220208D01*
X157206163Y-111220208D01*
X157121903Y-111224190D01*
X157082973Y-111248362D01*
X157068583Y-111311071D01*
X157065603Y-111344232D01*
X157054085Y-111425507D01*
X157024625Y-111460282D01*
X156957292Y-111468175D01*
X156939583Y-111468255D01*
X156863302Y-111463121D01*
X156828488Y-111434641D01*
X156815208Y-111363199D01*
X156813563Y-111344232D01*
X156803299Y-111220208D01*
X156278125Y-111220208D01*
X156278125Y-111480799D01*
X156402148Y-111491063D01*
X156526172Y-111501328D01*
X156526172Y-111997422D01*
X156402148Y-112007687D01*
X156322258Y-112018481D01*
X156287106Y-112046786D01*
X156278349Y-112113390D01*
X156278125Y-112148246D01*
X156274858Y-112231646D01*
X156252326Y-112268705D01*
X156191436Y-112278229D01*
X156145833Y-112278542D01*
X156013542Y-112278542D01*
X156013542Y-112807708D01*
G37*
X156013542Y-112807708D02*
X156434462Y-112807708D01*
X156434462Y-112543125D01*
X156339557Y-112535913D01*
X156293311Y-112503010D01*
X156278822Y-112427516D01*
X156278125Y-112386788D01*
X156282233Y-112313804D01*
X156307581Y-112284424D01*
X156373706Y-112282584D01*
X156402148Y-112284813D01*
X156484030Y-112296871D01*
X156521174Y-112328870D01*
X156534974Y-112402202D01*
X156536437Y-112419102D01*
X156539425Y-112500124D01*
X156519364Y-112534907D01*
X156460190Y-112542987D01*
X156434462Y-112543125D01*
X156434462Y-112807708D01*
X156542708Y-112807708D01*
X156542708Y-112675417D01*
X156545926Y-112590739D01*
X156568118Y-112553112D01*
X156628089Y-112543443D01*
X156673004Y-112543125D01*
X156757264Y-112539144D01*
X156796194Y-112514971D01*
X156810584Y-112452263D01*
X156813563Y-112419102D01*
X156825621Y-112337220D01*
X156857620Y-112300076D01*
X156930952Y-112286276D01*
X156947852Y-112284813D01*
X157071875Y-112274549D01*
X157071875Y-112543125D01*
X157336458Y-112543125D01*
X157336458Y-112278542D01*
X157204167Y-112278542D01*
X157119489Y-112275324D01*
X157081862Y-112253132D01*
X157072193Y-112193161D01*
X157071875Y-112148246D01*
X157067894Y-112063986D01*
X157043721Y-112025056D01*
X156981013Y-112010666D01*
X156947852Y-112007687D01*
X156866577Y-111996168D01*
X156831801Y-111966709D01*
X156823908Y-111899376D01*
X156823828Y-111881667D01*
X156823828Y-111765911D01*
X157336458Y-111746593D01*
X157336458Y-111220208D01*
X157206163Y-111220208D01*
X157121903Y-111224190D01*
X157082973Y-111248362D01*
X157068583Y-111311071D01*
X157065603Y-111344232D01*
X157054085Y-111425507D01*
X157024625Y-111460282D01*
X156957292Y-111468175D01*
X156939583Y-111468255D01*
X156863302Y-111463121D01*
X156828488Y-111434641D01*
X156815208Y-111363199D01*
X156813563Y-111344232D01*
X156803299Y-111220208D01*
X156278125Y-111220208D01*
X156278125Y-111480799D01*
X156402148Y-111491063D01*
X156526172Y-111501328D01*
X156526172Y-111997422D01*
X156402148Y-112007687D01*
X156322258Y-112018481D01*
X156287106Y-112046786D01*
X156278349Y-112113390D01*
X156278125Y-112148246D01*
X156274858Y-112231646D01*
X156252326Y-112268705D01*
X156191436Y-112278229D01*
X156145833Y-112278542D01*
X156013542Y-112278542D01*
X156013542Y-112807708D01*
G36*
X156542708Y-112938004D02*
G01*
X156546690Y-113022264D01*
X156570862Y-113061194D01*
X156633571Y-113075584D01*
X156666732Y-113078563D01*
X156790755Y-113088828D01*
X156790755Y-113584922D01*
X156675000Y-113584922D01*
X156598414Y-113579688D01*
X156563656Y-113550839D01*
X156550479Y-113478658D01*
X156549061Y-113462255D01*
X156538877Y-113339588D01*
X156284478Y-113329963D01*
X156030078Y-113320339D01*
X156020419Y-113064023D01*
X156010759Y-112807708D01*
X155484375Y-112807708D01*
X155484375Y-112938004D01*
X155488356Y-113022264D01*
X155512529Y-113061194D01*
X155575237Y-113075584D01*
X155608398Y-113078563D01*
X155689673Y-113090082D01*
X155724449Y-113119541D01*
X155732342Y-113186874D01*
X155732422Y-113204583D01*
X155727302Y-113282166D01*
X155698417Y-113313983D01*
X155625477Y-113320324D01*
X155616667Y-113320339D01*
X155540385Y-113315205D01*
X155505571Y-113286725D01*
X155492291Y-113215282D01*
X155490647Y-113196315D01*
X155479966Y-113116722D01*
X155451988Y-113081484D01*
X155386052Y-113072547D01*
X155348696Y-113072292D01*
X155219792Y-113072292D01*
X155219792Y-113599779D01*
X155740690Y-113608887D01*
X156261589Y-113617995D01*
X156271853Y-113742018D01*
X156281813Y-113862354D01*
X156402148Y-113872313D01*
X156483423Y-113883832D01*
X156518199Y-113913291D01*
X156526092Y-113980624D01*
X156526172Y-113998333D01*
X156521038Y-114074615D01*
X156492558Y-114109429D01*
X156421115Y-114122709D01*
X156402148Y-114124353D01*
X156278125Y-114134618D01*
X156278125Y-114659792D01*
X156408420Y-114659792D01*
X156492681Y-114655810D01*
X156531611Y-114631638D01*
X156546000Y-114568929D01*
X156548980Y-114535768D01*
X156560498Y-114454493D01*
X156589958Y-114419718D01*
X156657291Y-114411825D01*
X156675000Y-114411745D01*
X156751281Y-114416879D01*
X156786096Y-114445359D01*
X156799376Y-114516801D01*
X156801020Y-114535768D01*
X156811982Y-114616094D01*
X156840770Y-114651117D01*
X156908359Y-114659610D01*
X156939583Y-114659792D01*
X157023023Y-114655621D01*
X157061325Y-114630595D01*
X157075462Y-114565938D01*
X157078147Y-114535768D01*
X157090205Y-114453887D01*
X157122203Y-114416742D01*
X157195536Y-114402943D01*
X157212435Y-114401480D01*
X157292628Y-114390569D01*
X157327691Y-114361930D01*
X157336264Y-114294643D01*
X157336458Y-114262311D01*
X157336458Y-114133407D01*
X156823828Y-114114089D01*
X156823828Y-113998333D01*
X156829038Y-113921821D01*
X156857798Y-113887049D01*
X156929801Y-113873847D01*
X156946819Y-113872375D01*
X157069809Y-113862172D01*
X157088411Y-113088828D01*
X157212435Y-113078563D01*
X157292326Y-113067769D01*
X157327478Y-113039464D01*
X157336234Y-112972860D01*
X157336458Y-112938004D01*
X157336458Y-112807708D01*
X156542708Y-112807708D01*
X156542708Y-112938004D01*
G37*
X156542708Y-112938004D02*
X156546690Y-113022264D01*
X156570862Y-113061194D01*
X156633571Y-113075584D01*
X156666732Y-113078563D01*
X156790755Y-113088828D01*
X156790755Y-113584922D01*
X156675000Y-113584922D01*
X156598414Y-113579688D01*
X156563656Y-113550839D01*
X156550479Y-113478658D01*
X156549061Y-113462255D01*
X156538877Y-113339588D01*
X156284478Y-113329963D01*
X156030078Y-113320339D01*
X156020419Y-113064023D01*
X156010759Y-112807708D01*
X155484375Y-112807708D01*
X155484375Y-112938004D01*
X155488356Y-113022264D01*
X155512529Y-113061194D01*
X155575237Y-113075584D01*
X155608398Y-113078563D01*
X155689673Y-113090082D01*
X155724449Y-113119541D01*
X155732342Y-113186874D01*
X155732422Y-113204583D01*
X155727302Y-113282166D01*
X155698417Y-113313983D01*
X155625477Y-113320324D01*
X155616667Y-113320339D01*
X155540385Y-113315205D01*
X155505571Y-113286725D01*
X155492291Y-113215282D01*
X155490647Y-113196315D01*
X155479966Y-113116722D01*
X155451988Y-113081484D01*
X155386052Y-113072547D01*
X155348696Y-113072292D01*
X155219792Y-113072292D01*
X155219792Y-113599779D01*
X155740690Y-113608887D01*
X156261589Y-113617995D01*
X156271853Y-113742018D01*
X156281813Y-113862354D01*
X156402148Y-113872313D01*
X156483423Y-113883832D01*
X156518199Y-113913291D01*
X156526092Y-113980624D01*
X156526172Y-113998333D01*
X156521038Y-114074615D01*
X156492558Y-114109429D01*
X156421115Y-114122709D01*
X156402148Y-114124353D01*
X156278125Y-114134618D01*
X156278125Y-114659792D01*
X156408420Y-114659792D01*
X156492681Y-114655810D01*
X156531611Y-114631638D01*
X156546000Y-114568929D01*
X156548980Y-114535768D01*
X156560498Y-114454493D01*
X156589958Y-114419718D01*
X156657291Y-114411825D01*
X156675000Y-114411745D01*
X156751281Y-114416879D01*
X156786096Y-114445359D01*
X156799376Y-114516801D01*
X156801020Y-114535768D01*
X156811982Y-114616094D01*
X156840770Y-114651117D01*
X156908359Y-114659610D01*
X156939583Y-114659792D01*
X157023023Y-114655621D01*
X157061325Y-114630595D01*
X157075462Y-114565938D01*
X157078147Y-114535768D01*
X157090205Y-114453887D01*
X157122203Y-114416742D01*
X157195536Y-114402943D01*
X157212435Y-114401480D01*
X157292628Y-114390569D01*
X157327691Y-114361930D01*
X157336264Y-114294643D01*
X157336458Y-114262311D01*
X157336458Y-114133407D01*
X156823828Y-114114089D01*
X156823828Y-113998333D01*
X156829038Y-113921821D01*
X156857798Y-113887049D01*
X156929801Y-113873847D01*
X156946819Y-113872375D01*
X157069809Y-113862172D01*
X157088411Y-113088828D01*
X157212435Y-113078563D01*
X157292326Y-113067769D01*
X157327478Y-113039464D01*
X157336234Y-112972860D01*
X157336458Y-112938004D01*
X157336458Y-112807708D01*
X156542708Y-112807708D01*
X156542708Y-112938004D01*
G36*
X156013542Y-111484792D02*
G01*
X156013542Y-111749375D01*
X156278125Y-111749375D01*
X156278125Y-111484792D01*
X156013542Y-111484792D01*
G37*
X156013542Y-111484792D02*
X156013542Y-111749375D01*
X156278125Y-111749375D01*
X156278125Y-111484792D01*
X156013542Y-111484792D01*
G36*
X155484375Y-113866042D02*
G01*
X155484375Y-114130625D01*
X156278125Y-114130625D01*
X156278125Y-113866042D01*
X155484375Y-113866042D01*
G37*
X155484375Y-113866042D02*
X155484375Y-114130625D01*
X156278125Y-114130625D01*
X156278125Y-113866042D01*
X155484375Y-113866042D01*
G36*
X156013542Y-112013958D02*
G01*
X155748958Y-112013958D01*
X155748958Y-112278542D01*
X156013542Y-112278542D01*
X156013542Y-112013958D01*
G37*
X156013542Y-112013958D02*
X155748958Y-112013958D01*
X155748958Y-112278542D01*
X156013542Y-112278542D01*
X156013542Y-112013958D01*
G36*
X154690625Y-113336875D02*
G01*
X154690625Y-113866042D01*
X154955208Y-113866042D01*
X154955208Y-113336875D01*
X154690625Y-113336875D01*
G37*
X154690625Y-113336875D02*
X154690625Y-113866042D01*
X154955208Y-113866042D01*
X154955208Y-113336875D01*
X154690625Y-113336875D01*
G36*
X155744846Y-112327749D02*
G01*
X155720083Y-112289258D01*
X155656027Y-112275045D01*
X155624935Y-112272270D01*
X155543660Y-112260752D01*
X155508885Y-112231292D01*
X155500991Y-112163959D01*
X155500911Y-112146250D01*
X155506045Y-112069969D01*
X155534525Y-112035154D01*
X155605968Y-112021874D01*
X155624935Y-112020230D01*
X155748958Y-112009965D01*
X155748958Y-111749375D01*
X155222574Y-111749375D01*
X155212915Y-112005690D01*
X155203255Y-112262005D01*
X154946940Y-112271665D01*
X154694400Y-112281182D01*
X154684353Y-112402565D01*
X154672295Y-112484447D01*
X154640297Y-112521591D01*
X154566964Y-112535390D01*
X154550065Y-112536853D01*
X154426042Y-112547118D01*
X154426042Y-113336875D01*
X154686632Y-113336875D01*
X154696897Y-113212852D01*
X154707161Y-113088828D01*
X154963477Y-113079169D01*
X155217110Y-113069610D01*
X155226669Y-112815977D01*
X155236328Y-112559661D01*
X155748958Y-112540343D01*
X155748958Y-112411439D01*
X155744846Y-112327749D01*
G37*
X155744846Y-112327749D02*
X155720083Y-112289258D01*
X155656027Y-112275045D01*
X155624935Y-112272270D01*
X155543660Y-112260752D01*
X155508885Y-112231292D01*
X155500991Y-112163959D01*
X155500911Y-112146250D01*
X155506045Y-112069969D01*
X155534525Y-112035154D01*
X155605968Y-112021874D01*
X155624935Y-112020230D01*
X155748958Y-112009965D01*
X155748958Y-111749375D01*
X155222574Y-111749375D01*
X155212915Y-112005690D01*
X155203255Y-112262005D01*
X154946940Y-112271665D01*
X154694400Y-112281182D01*
X154684353Y-112402565D01*
X154672295Y-112484447D01*
X154640297Y-112521591D01*
X154566964Y-112535390D01*
X154550065Y-112536853D01*
X154426042Y-112547118D01*
X154426042Y-113336875D01*
X154686632Y-113336875D01*
X154696897Y-113212852D01*
X154707161Y-113088828D01*
X154963477Y-113079169D01*
X155217110Y-113069610D01*
X155226669Y-112815977D01*
X155236328Y-112559661D01*
X155748958Y-112540343D01*
X155748958Y-112411439D01*
X155744846Y-112327749D01*
G36*
X154963477Y-115446665D02*
G01*
X154707161Y-115437005D01*
X154707161Y-114940911D01*
X154822917Y-114940911D01*
X154899198Y-114946045D01*
X154934012Y-114974525D01*
X154947292Y-115045968D01*
X154948937Y-115064935D01*
X154959731Y-115144826D01*
X154988036Y-115179978D01*
X155054640Y-115188734D01*
X155089496Y-115188958D01*
X155219792Y-115188958D01*
X155219792Y-113866042D01*
X154959201Y-113866042D01*
X154948937Y-113990065D01*
X154938672Y-114114089D01*
X154442578Y-114114089D01*
X154432919Y-113857773D01*
X154423259Y-113601458D01*
X154164241Y-113601458D01*
X154154581Y-113857773D01*
X154144922Y-114114089D01*
X154020898Y-114124353D01*
X153896875Y-114134618D01*
X153896875Y-114657009D01*
X154153190Y-114666669D01*
X154409505Y-114676328D01*
X154409505Y-115172422D01*
X154285482Y-115182687D01*
X154205156Y-115193649D01*
X154170133Y-115222437D01*
X154161640Y-115290025D01*
X154161458Y-115321250D01*
X154165629Y-115404690D01*
X154190655Y-115442991D01*
X154255312Y-115457129D01*
X154285482Y-115459813D01*
X154367398Y-115471920D01*
X154404551Y-115503855D01*
X154418311Y-115576708D01*
X154419658Y-115592217D01*
X154431968Y-115673365D01*
X154464881Y-115709932D01*
X154539957Y-115723479D01*
X154551949Y-115724509D01*
X154632422Y-115736196D01*
X154666531Y-115766510D01*
X154674036Y-115835819D01*
X154674089Y-115850417D01*
X154668969Y-115927999D01*
X154640084Y-115959817D01*
X154567144Y-115966157D01*
X154558333Y-115966172D01*
X154482052Y-115961038D01*
X154447238Y-115932558D01*
X154433958Y-115861115D01*
X154432313Y-115842148D01*
X154422049Y-115718125D01*
X153896875Y-115718125D01*
X153896875Y-115978715D01*
X154020898Y-115988980D01*
X154144922Y-115999245D01*
X154154547Y-116253644D01*
X154164172Y-116508044D01*
X154286838Y-116518228D01*
X154367857Y-116530327D01*
X154404647Y-116562578D01*
X154418381Y-116636359D01*
X154419770Y-116652435D01*
X154430681Y-116732628D01*
X154459320Y-116767691D01*
X154526607Y-116776264D01*
X154558939Y-116776458D01*
X154687843Y-116776458D01*
X154707161Y-116263828D01*
X154938672Y-116263828D01*
X154948331Y-116520143D01*
X154957991Y-116776458D01*
X155219792Y-116776458D01*
X155219792Y-115456324D01*
X154963477Y-115446665D01*
G37*
X154963477Y-115446665D02*
X154707161Y-115437005D01*
X154707161Y-114940911D01*
X154822917Y-114940911D01*
X154899198Y-114946045D01*
X154934012Y-114974525D01*
X154947292Y-115045968D01*
X154948937Y-115064935D01*
X154959731Y-115144826D01*
X154988036Y-115179978D01*
X155054640Y-115188734D01*
X155089496Y-115188958D01*
X155219792Y-115188958D01*
X155219792Y-113866042D01*
X154959201Y-113866042D01*
X154948937Y-113990065D01*
X154938672Y-114114089D01*
X154442578Y-114114089D01*
X154432919Y-113857773D01*
X154423259Y-113601458D01*
X154164241Y-113601458D01*
X154154581Y-113857773D01*
X154144922Y-114114089D01*
X154020898Y-114124353D01*
X153896875Y-114134618D01*
X153896875Y-114657009D01*
X154153190Y-114666669D01*
X154409505Y-114676328D01*
X154409505Y-115172422D01*
X154285482Y-115182687D01*
X154205156Y-115193649D01*
X154170133Y-115222437D01*
X154161640Y-115290025D01*
X154161458Y-115321250D01*
X154165629Y-115404690D01*
X154190655Y-115442991D01*
X154255312Y-115457129D01*
X154285482Y-115459813D01*
X154367398Y-115471920D01*
X154404551Y-115503855D01*
X154418311Y-115576708D01*
X154419658Y-115592217D01*
X154431968Y-115673365D01*
X154464881Y-115709932D01*
X154539957Y-115723479D01*
X154551949Y-115724509D01*
X154632422Y-115736196D01*
X154666531Y-115766510D01*
X154674036Y-115835819D01*
X154674089Y-115850417D01*
X154668969Y-115927999D01*
X154640084Y-115959817D01*
X154567144Y-115966157D01*
X154558333Y-115966172D01*
X154482052Y-115961038D01*
X154447238Y-115932558D01*
X154433958Y-115861115D01*
X154432313Y-115842148D01*
X154422049Y-115718125D01*
X153896875Y-115718125D01*
X153896875Y-115978715D01*
X154020898Y-115988980D01*
X154144922Y-115999245D01*
X154154547Y-116253644D01*
X154164172Y-116508044D01*
X154286838Y-116518228D01*
X154367857Y-116530327D01*
X154404647Y-116562578D01*
X154418381Y-116636359D01*
X154419770Y-116652435D01*
X154430681Y-116732628D01*
X154459320Y-116767691D01*
X154526607Y-116776264D01*
X154558939Y-116776458D01*
X154687843Y-116776458D01*
X154707161Y-116263828D01*
X154938672Y-116263828D01*
X154948331Y-116520143D01*
X154957991Y-116776458D01*
X155219792Y-116776458D01*
X155219792Y-115456324D01*
X154963477Y-115446665D01*
G36*
X155492643Y-111213331D02*
G01*
X155236328Y-111203672D01*
X155226063Y-111079648D01*
X155215799Y-110955625D01*
X154693407Y-110955625D01*
X154674089Y-111468255D01*
X154165239Y-111487351D01*
X154155187Y-111608815D01*
X154144922Y-111732839D01*
X153632292Y-111752157D01*
X153632292Y-111881061D01*
X153636404Y-111964751D01*
X153661167Y-112003242D01*
X153725223Y-112017455D01*
X153756315Y-112020230D01*
X153838197Y-112032288D01*
X153875341Y-112064287D01*
X153889140Y-112137619D01*
X153890603Y-112154518D01*
X153901565Y-112234844D01*
X153930354Y-112269867D01*
X153997942Y-112278360D01*
X154029167Y-112278542D01*
X154112607Y-112274371D01*
X154150908Y-112249345D01*
X154165045Y-112184688D01*
X154167730Y-112154518D01*
X154179837Y-112072602D01*
X154211772Y-112035449D01*
X154284624Y-112021689D01*
X154300134Y-112020342D01*
X154381281Y-112008032D01*
X154417849Y-111975119D01*
X154431396Y-111900043D01*
X154432426Y-111888051D01*
X154444113Y-111807578D01*
X154474427Y-111773469D01*
X154543736Y-111765964D01*
X154558333Y-111765911D01*
X154634615Y-111771045D01*
X154669429Y-111799525D01*
X154682709Y-111870968D01*
X154684353Y-111889935D01*
X154694618Y-112013958D01*
X154426042Y-112013958D01*
X154426042Y-112278542D01*
X154690625Y-112278542D01*
X154690625Y-112147641D01*
X154693726Y-112062379D01*
X154715429Y-112024269D01*
X154774334Y-112014313D01*
X154821525Y-112013958D01*
X154952426Y-112013958D01*
X154962085Y-111757643D01*
X154971745Y-111501328D01*
X155360352Y-111492010D01*
X155748958Y-111482693D01*
X155748958Y-111222991D01*
X155492643Y-111213331D01*
G37*
X155492643Y-111213331D02*
X155236328Y-111203672D01*
X155226063Y-111079648D01*
X155215799Y-110955625D01*
X154693407Y-110955625D01*
X154674089Y-111468255D01*
X154165239Y-111487351D01*
X154155187Y-111608815D01*
X154144922Y-111732839D01*
X153632292Y-111752157D01*
X153632292Y-111881061D01*
X153636404Y-111964751D01*
X153661167Y-112003242D01*
X153725223Y-112017455D01*
X153756315Y-112020230D01*
X153838197Y-112032288D01*
X153875341Y-112064287D01*
X153889140Y-112137619D01*
X153890603Y-112154518D01*
X153901565Y-112234844D01*
X153930354Y-112269867D01*
X153997942Y-112278360D01*
X154029167Y-112278542D01*
X154112607Y-112274371D01*
X154150908Y-112249345D01*
X154165045Y-112184688D01*
X154167730Y-112154518D01*
X154179837Y-112072602D01*
X154211772Y-112035449D01*
X154284624Y-112021689D01*
X154300134Y-112020342D01*
X154381281Y-112008032D01*
X154417849Y-111975119D01*
X154431396Y-111900043D01*
X154432426Y-111888051D01*
X154444113Y-111807578D01*
X154474427Y-111773469D01*
X154543736Y-111765964D01*
X154558333Y-111765911D01*
X154634615Y-111771045D01*
X154669429Y-111799525D01*
X154682709Y-111870968D01*
X154684353Y-111889935D01*
X154694618Y-112013958D01*
X154426042Y-112013958D01*
X154426042Y-112278542D01*
X154690625Y-112278542D01*
X154690625Y-112147641D01*
X154693726Y-112062379D01*
X154715429Y-112024269D01*
X154774334Y-112014313D01*
X154821525Y-112013958D01*
X154952426Y-112013958D01*
X154962085Y-111757643D01*
X154971745Y-111501328D01*
X155360352Y-111492010D01*
X155748958Y-111482693D01*
X155748958Y-111222991D01*
X155492643Y-111213331D01*
G36*
X155215712Y-110475867D02*
G01*
X155191096Y-110437268D01*
X155127374Y-110423012D01*
X155095768Y-110420187D01*
X155014493Y-110408668D01*
X154979718Y-110379209D01*
X154971825Y-110311876D01*
X154971745Y-110294167D01*
X154976879Y-110217885D01*
X155005359Y-110183071D01*
X155076801Y-110169791D01*
X155095768Y-110168147D01*
X155175961Y-110157236D01*
X155211024Y-110128596D01*
X155219598Y-110061309D01*
X155219792Y-110028978D01*
X155219792Y-109900074D01*
X154963477Y-109890415D01*
X154707161Y-109880755D01*
X154696897Y-109756732D01*
X154686632Y-109632708D01*
X155219792Y-109632708D01*
X155219792Y-109368125D01*
X154690625Y-109368125D01*
X154690625Y-109500417D01*
X154687407Y-109585094D01*
X154665216Y-109622721D01*
X154605245Y-109632390D01*
X154560330Y-109632708D01*
X154476069Y-109636690D01*
X154437139Y-109660862D01*
X154422750Y-109723571D01*
X154419770Y-109756732D01*
X154407663Y-109838648D01*
X154375728Y-109875801D01*
X154302876Y-109889561D01*
X154287366Y-109890908D01*
X154206219Y-109903218D01*
X154169651Y-109936131D01*
X154156104Y-110011207D01*
X154155074Y-110023199D01*
X154142959Y-110103883D01*
X154110606Y-110140535D01*
X154036647Y-110154243D01*
X154020898Y-110155603D01*
X153898882Y-110165702D01*
X153889656Y-110550482D01*
X153880339Y-110939089D01*
X153756315Y-110949353D01*
X153632292Y-110959618D01*
X153632292Y-111484792D01*
X154157531Y-111484792D01*
X154167645Y-111362197D01*
X154179592Y-111279709D01*
X154210836Y-111242113D01*
X154282200Y-111228175D01*
X154300662Y-111226561D01*
X154423328Y-111216377D01*
X154432953Y-110961978D01*
X154442578Y-110707578D01*
X154597269Y-110703869D01*
X154597269Y-110420806D01*
X154494890Y-110420730D01*
X154441902Y-110380177D01*
X154431542Y-110293631D01*
X154432197Y-110286126D01*
X154445746Y-110213561D01*
X154481791Y-110183951D01*
X154558333Y-110178411D01*
X154635916Y-110183531D01*
X154667733Y-110212416D01*
X154674074Y-110285356D01*
X154674089Y-110294167D01*
X154666235Y-110375085D01*
X154634319Y-110411529D01*
X154597269Y-110420806D01*
X154597269Y-110703869D01*
X154831185Y-110698260D01*
X155219792Y-110688943D01*
X155219792Y-110559697D01*
X155215712Y-110475867D01*
G37*
X155215712Y-110475867D02*
X155191096Y-110437268D01*
X155127374Y-110423012D01*
X155095768Y-110420187D01*
X155014493Y-110408668D01*
X154979718Y-110379209D01*
X154971825Y-110311876D01*
X154971745Y-110294167D01*
X154976879Y-110217885D01*
X155005359Y-110183071D01*
X155076801Y-110169791D01*
X155095768Y-110168147D01*
X155175961Y-110157236D01*
X155211024Y-110128596D01*
X155219598Y-110061309D01*
X155219792Y-110028978D01*
X155219792Y-109900074D01*
X154963477Y-109890415D01*
X154707161Y-109880755D01*
X154696897Y-109756732D01*
X154686632Y-109632708D01*
X155219792Y-109632708D01*
X155219792Y-109368125D01*
X154690625Y-109368125D01*
X154690625Y-109500417D01*
X154687407Y-109585094D01*
X154665216Y-109622721D01*
X154605245Y-109632390D01*
X154560330Y-109632708D01*
X154476069Y-109636690D01*
X154437139Y-109660862D01*
X154422750Y-109723571D01*
X154419770Y-109756732D01*
X154407663Y-109838648D01*
X154375728Y-109875801D01*
X154302876Y-109889561D01*
X154287366Y-109890908D01*
X154206219Y-109903218D01*
X154169651Y-109936131D01*
X154156104Y-110011207D01*
X154155074Y-110023199D01*
X154142959Y-110103883D01*
X154110606Y-110140535D01*
X154036647Y-110154243D01*
X154020898Y-110155603D01*
X153898882Y-110165702D01*
X153889656Y-110550482D01*
X153880339Y-110939089D01*
X153756315Y-110949353D01*
X153632292Y-110959618D01*
X153632292Y-111484792D01*
X154157531Y-111484792D01*
X154167645Y-111362197D01*
X154179592Y-111279709D01*
X154210836Y-111242113D01*
X154282200Y-111228175D01*
X154300662Y-111226561D01*
X154423328Y-111216377D01*
X154432953Y-110961978D01*
X154442578Y-110707578D01*
X154597269Y-110703869D01*
X154597269Y-110420806D01*
X154494890Y-110420730D01*
X154441902Y-110380177D01*
X154431542Y-110293631D01*
X154432197Y-110286126D01*
X154445746Y-110213561D01*
X154481791Y-110183951D01*
X154558333Y-110178411D01*
X154635916Y-110183531D01*
X154667733Y-110212416D01*
X154674074Y-110285356D01*
X154674089Y-110294167D01*
X154666235Y-110375085D01*
X154634319Y-110411529D01*
X154597269Y-110420806D01*
X154597269Y-110703869D01*
X154831185Y-110698260D01*
X155219792Y-110688943D01*
X155219792Y-110559697D01*
X155215712Y-110475867D01*
G36*
X153893073Y-109948500D02*
G01*
X153869712Y-109908940D01*
X153808865Y-109894288D01*
X153772852Y-109891020D01*
X153691577Y-109879502D01*
X153656801Y-109850042D01*
X153648908Y-109782709D01*
X153648828Y-109765000D01*
X153653962Y-109688719D01*
X153682442Y-109653904D01*
X153753885Y-109640624D01*
X153772852Y-109638980D01*
X153853177Y-109628018D01*
X153888200Y-109599230D01*
X153896694Y-109531641D01*
X153896875Y-109500417D01*
X153892705Y-109416977D01*
X153867678Y-109378675D01*
X153803021Y-109364538D01*
X153772852Y-109361853D01*
X153690970Y-109349795D01*
X153653826Y-109317797D01*
X153640026Y-109244464D01*
X153638563Y-109227565D01*
X153628299Y-109103542D01*
X153103125Y-109103542D01*
X153103125Y-109628715D01*
X153227148Y-109638980D01*
X153351172Y-109649245D01*
X153360831Y-109905560D01*
X153370491Y-110161875D01*
X153896875Y-110161875D01*
X153896875Y-110033576D01*
X153893073Y-109948500D01*
G37*
X153893073Y-109948500D02*
X153869712Y-109908940D01*
X153808865Y-109894288D01*
X153772852Y-109891020D01*
X153691577Y-109879502D01*
X153656801Y-109850042D01*
X153648908Y-109782709D01*
X153648828Y-109765000D01*
X153653962Y-109688719D01*
X153682442Y-109653904D01*
X153753885Y-109640624D01*
X153772852Y-109638980D01*
X153853177Y-109628018D01*
X153888200Y-109599230D01*
X153896694Y-109531641D01*
X153896875Y-109500417D01*
X153892705Y-109416977D01*
X153867678Y-109378675D01*
X153803021Y-109364538D01*
X153772852Y-109361853D01*
X153690970Y-109349795D01*
X153653826Y-109317797D01*
X153640026Y-109244464D01*
X153638563Y-109227565D01*
X153628299Y-109103542D01*
X153103125Y-109103542D01*
X153103125Y-109628715D01*
X153227148Y-109638980D01*
X153351172Y-109649245D01*
X153360831Y-109905560D01*
X153370491Y-110161875D01*
X153896875Y-110161875D01*
X153896875Y-110033576D01*
X153893073Y-109948500D01*
G36*
X153370491Y-115982708D02*
G01*
X153360831Y-116239023D01*
X153351172Y-116495339D01*
X153227148Y-116505603D01*
X153103125Y-116515868D01*
X153103125Y-116776458D01*
X153629509Y-116776458D01*
X153639169Y-116520143D01*
X153648828Y-116263828D01*
X153772852Y-116253563D01*
X153852316Y-116242931D01*
X153887590Y-116215094D01*
X153896605Y-116149443D01*
X153896875Y-116111007D01*
X153896875Y-115982708D01*
X153370491Y-115982708D01*
G37*
X153370491Y-115982708D02*
X153360831Y-116239023D01*
X153351172Y-116495339D01*
X153227148Y-116505603D01*
X153103125Y-116515868D01*
X153103125Y-116776458D01*
X153629509Y-116776458D01*
X153639169Y-116520143D01*
X153648828Y-116263828D01*
X153772852Y-116253563D01*
X153852316Y-116242931D01*
X153887590Y-116215094D01*
X153896605Y-116149443D01*
X153896875Y-116111007D01*
X153896875Y-115982708D01*
X153370491Y-115982708D01*
G36*
X153238804Y-110161875D02*
G01*
X153153975Y-110165731D01*
X153114606Y-110189333D01*
X153100035Y-110250736D01*
X153096853Y-110285898D01*
X153085335Y-110367173D01*
X153055875Y-110401949D01*
X152988542Y-110409842D01*
X152970833Y-110409922D01*
X152855078Y-110409922D01*
X152845453Y-110155522D01*
X152835828Y-109901123D01*
X152713162Y-109890939D01*
X152632143Y-109878840D01*
X152595353Y-109846588D01*
X152581619Y-109772807D01*
X152580230Y-109756732D01*
X152569597Y-109677268D01*
X152541760Y-109641993D01*
X152476110Y-109632978D01*
X152437674Y-109632708D01*
X152309375Y-109632708D01*
X152309375Y-110157882D01*
X152433398Y-110168147D01*
X152557422Y-110178411D01*
X152567057Y-110433360D01*
X152576692Y-110688308D01*
X152831640Y-110697943D01*
X153086589Y-110707578D01*
X153096853Y-110831602D01*
X153107648Y-110911492D01*
X153135952Y-110946644D01*
X153202557Y-110955401D01*
X153237413Y-110955625D01*
X153367708Y-110955625D01*
X153367708Y-110161875D01*
X153238804Y-110161875D01*
G37*
X153238804Y-110161875D02*
X153153975Y-110165731D01*
X153114606Y-110189333D01*
X153100035Y-110250736D01*
X153096853Y-110285898D01*
X153085335Y-110367173D01*
X153055875Y-110401949D01*
X152988542Y-110409842D01*
X152970833Y-110409922D01*
X152855078Y-110409922D01*
X152845453Y-110155522D01*
X152835828Y-109901123D01*
X152713162Y-109890939D01*
X152632143Y-109878840D01*
X152595353Y-109846588D01*
X152581619Y-109772807D01*
X152580230Y-109756732D01*
X152569597Y-109677268D01*
X152541760Y-109641993D01*
X152476110Y-109632978D01*
X152437674Y-109632708D01*
X152309375Y-109632708D01*
X152309375Y-110157882D01*
X152433398Y-110168147D01*
X152557422Y-110178411D01*
X152567057Y-110433360D01*
X152576692Y-110688308D01*
X152831640Y-110697943D01*
X153086589Y-110707578D01*
X153096853Y-110831602D01*
X153107648Y-110911492D01*
X153135952Y-110946644D01*
X153202557Y-110955401D01*
X153237413Y-110955625D01*
X153367708Y-110955625D01*
X153367708Y-110161875D01*
X153238804Y-110161875D01*
G36*
X153099323Y-116298500D02*
G01*
X153075962Y-116258940D01*
X153015115Y-116244288D01*
X152979102Y-116241020D01*
X152897185Y-116228913D01*
X152860032Y-116196978D01*
X152846272Y-116124126D01*
X152844926Y-116108616D01*
X152832615Y-116027469D01*
X152799702Y-115990901D01*
X152724626Y-115977354D01*
X152712634Y-115976324D01*
X152631950Y-115964209D01*
X152595298Y-115931856D01*
X152581590Y-115857897D01*
X152580230Y-115842148D01*
X152569965Y-115718125D01*
X151780208Y-115718125D01*
X151780208Y-115848420D01*
X151784190Y-115932681D01*
X151808362Y-115971611D01*
X151871071Y-115986000D01*
X151904232Y-115988980D01*
X151986138Y-116001073D01*
X152023289Y-116033026D01*
X152037060Y-116106012D01*
X152038439Y-116121912D01*
X152048623Y-116244578D01*
X152303022Y-116254203D01*
X152557422Y-116263828D01*
X152557422Y-116495339D01*
X152168815Y-116504656D01*
X151780208Y-116513974D01*
X151780208Y-116776458D01*
X152834549Y-116776458D01*
X152844813Y-116652435D01*
X152856871Y-116570553D01*
X152888870Y-116533409D01*
X152962202Y-116519610D01*
X152979102Y-116518147D01*
X153103125Y-116507882D01*
X153103125Y-116383576D01*
X153099323Y-116298500D01*
G37*
X153099323Y-116298500D02*
X153075962Y-116258940D01*
X153015115Y-116244288D01*
X152979102Y-116241020D01*
X152897185Y-116228913D01*
X152860032Y-116196978D01*
X152846272Y-116124126D01*
X152844926Y-116108616D01*
X152832615Y-116027469D01*
X152799702Y-115990901D01*
X152724626Y-115977354D01*
X152712634Y-115976324D01*
X152631950Y-115964209D01*
X152595298Y-115931856D01*
X152581590Y-115857897D01*
X152580230Y-115842148D01*
X152569965Y-115718125D01*
X151780208Y-115718125D01*
X151780208Y-115848420D01*
X151784190Y-115932681D01*
X151808362Y-115971611D01*
X151871071Y-115986000D01*
X151904232Y-115988980D01*
X151986138Y-116001073D01*
X152023289Y-116033026D01*
X152037060Y-116106012D01*
X152038439Y-116121912D01*
X152048623Y-116244578D01*
X152303022Y-116254203D01*
X152557422Y-116263828D01*
X152557422Y-116495339D01*
X152168815Y-116504656D01*
X151780208Y-116513974D01*
X151780208Y-116776458D01*
X152834549Y-116776458D01*
X152844813Y-116652435D01*
X152856871Y-116570553D01*
X152888870Y-116533409D01*
X152962202Y-116519610D01*
X152979102Y-116518147D01*
X153103125Y-116507882D01*
X153103125Y-116383576D01*
X153099323Y-116298500D01*
G36*
X151776227Y-113386903D02*
G01*
X151752054Y-113347973D01*
X151689346Y-113333583D01*
X151656185Y-113330603D01*
X151574303Y-113318545D01*
X151537159Y-113286547D01*
X151523360Y-113213214D01*
X151521897Y-113196315D01*
X151511632Y-113072292D01*
X150986458Y-113072292D01*
X150986458Y-113201196D01*
X150990314Y-113286025D01*
X151013916Y-113325394D01*
X151075319Y-113339965D01*
X151110482Y-113343147D01*
X151192363Y-113355205D01*
X151229508Y-113387203D01*
X151243307Y-113460536D01*
X151244770Y-113477435D01*
X151255035Y-113601458D01*
X151780208Y-113601458D01*
X151780208Y-113471163D01*
X151776227Y-113386903D01*
G37*
X151776227Y-113386903D02*
X151752054Y-113347973D01*
X151689346Y-113333583D01*
X151656185Y-113330603D01*
X151574303Y-113318545D01*
X151537159Y-113286547D01*
X151523360Y-113213214D01*
X151521897Y-113196315D01*
X151511632Y-113072292D01*
X150986458Y-113072292D01*
X150986458Y-113201196D01*
X150990314Y-113286025D01*
X151013916Y-113325394D01*
X151075319Y-113339965D01*
X151110482Y-113343147D01*
X151192363Y-113355205D01*
X151229508Y-113387203D01*
X151243307Y-113460536D01*
X151244770Y-113477435D01*
X151255035Y-113601458D01*
X151780208Y-113601458D01*
X151780208Y-113471163D01*
X151776227Y-113386903D01*
G36*
X154031163Y-112543125D02*
G01*
X153946903Y-112547106D01*
X153907973Y-112571279D01*
X153893583Y-112633987D01*
X153890603Y-112667148D01*
X153879085Y-112748423D01*
X153849625Y-112783199D01*
X153782292Y-112791092D01*
X153764583Y-112791172D01*
X153687001Y-112786052D01*
X153655183Y-112757167D01*
X153648843Y-112684227D01*
X153648828Y-112675417D01*
X153653962Y-112599135D01*
X153682442Y-112564321D01*
X153753885Y-112551041D01*
X153772852Y-112549397D01*
X153853177Y-112538435D01*
X153888200Y-112509646D01*
X153896694Y-112442058D01*
X153896875Y-112410833D01*
X153892705Y-112327393D01*
X153867678Y-112289092D01*
X153803021Y-112274955D01*
X153772852Y-112272270D01*
X153690935Y-112260163D01*
X153653782Y-112228228D01*
X153640022Y-112155376D01*
X153638676Y-112139866D01*
X153626365Y-112058719D01*
X153593452Y-112022151D01*
X153518376Y-112008604D01*
X153506384Y-112007574D01*
X153425911Y-111995887D01*
X153391802Y-111965573D01*
X153384297Y-111896264D01*
X153384245Y-111881667D01*
X153389379Y-111805385D01*
X153417859Y-111770571D01*
X153489301Y-111757291D01*
X153508268Y-111755647D01*
X153588594Y-111744685D01*
X153623617Y-111715896D01*
X153632110Y-111648308D01*
X153632292Y-111617083D01*
X153628121Y-111533643D01*
X153603095Y-111495342D01*
X153538438Y-111481205D01*
X153508268Y-111478520D01*
X153426387Y-111466462D01*
X153389242Y-111434463D01*
X153375443Y-111361131D01*
X153373980Y-111344232D01*
X153363715Y-111220208D01*
X152577951Y-111220208D01*
X152567687Y-111344232D01*
X152556168Y-111425507D01*
X152526709Y-111460282D01*
X152459376Y-111468175D01*
X152441667Y-111468255D01*
X152325911Y-111468255D01*
X152307977Y-110161875D01*
X152198433Y-110161875D01*
X152116503Y-110155409D01*
X152066884Y-110139724D01*
X152065529Y-110138515D01*
X152055211Y-110096039D01*
X152050192Y-110006483D01*
X152051488Y-109888776D01*
X152051749Y-109882200D01*
X152061328Y-109649245D01*
X152185352Y-109638980D01*
X152305687Y-109629020D01*
X152315647Y-109508685D01*
X152325911Y-109384661D01*
X152582227Y-109375002D01*
X152838542Y-109365343D01*
X152838542Y-109103542D01*
X152048785Y-109103542D01*
X152038520Y-109227565D01*
X152028255Y-109351589D01*
X151515625Y-109370907D01*
X151515625Y-109628715D01*
X151639648Y-109638980D01*
X151763672Y-109649245D01*
X151763672Y-109897292D01*
X151762317Y-110023993D01*
X151755377Y-110099092D01*
X151738541Y-110137120D01*
X151707499Y-110152608D01*
X151686853Y-110156222D01*
X151605866Y-110161087D01*
X151555142Y-110140408D01*
X151527816Y-110083107D01*
X151517024Y-109978101D01*
X151515625Y-109879797D01*
X151515625Y-109636701D01*
X151391602Y-109626437D01*
X151267578Y-109616172D01*
X151257919Y-109359857D01*
X151248259Y-109103542D01*
X150721875Y-109103542D01*
X150721875Y-109894509D01*
X150978190Y-109904169D01*
X151234505Y-109913828D01*
X151234505Y-110145339D01*
X150980106Y-110154963D01*
X150725706Y-110164588D01*
X150715522Y-110287255D01*
X150705339Y-110409922D01*
X150450390Y-110419557D01*
X150195442Y-110429192D01*
X150185807Y-110684140D01*
X150176172Y-110939089D01*
X150060417Y-110939089D01*
X149984135Y-110933955D01*
X149949321Y-110905475D01*
X149936041Y-110834032D01*
X149934397Y-110815065D01*
X149923602Y-110735174D01*
X149895298Y-110700022D01*
X149828693Y-110691266D01*
X149793837Y-110691042D01*
X149663542Y-110691042D01*
X149663542Y-111749375D01*
X149793837Y-111749375D01*
X149878097Y-111745394D01*
X149917027Y-111721221D01*
X149931417Y-111658513D01*
X149934397Y-111625352D01*
X149946455Y-111543470D01*
X149978453Y-111506326D01*
X150051786Y-111492526D01*
X150068685Y-111491063D01*
X150189020Y-111481104D01*
X150198980Y-111360768D01*
X150210498Y-111279493D01*
X150239958Y-111244718D01*
X150307291Y-111236825D01*
X150325000Y-111236745D01*
X150401513Y-111241955D01*
X150436285Y-111270714D01*
X150449486Y-111342718D01*
X150450958Y-111359735D01*
X150461161Y-111482726D01*
X150628519Y-111486751D01*
X150628519Y-110949972D01*
X150526140Y-110949896D01*
X150473152Y-110909344D01*
X150462792Y-110822798D01*
X150463447Y-110815292D01*
X150476996Y-110742727D01*
X150513041Y-110713117D01*
X150589583Y-110707578D01*
X150667166Y-110712698D01*
X150698983Y-110741583D01*
X150705324Y-110814523D01*
X150705339Y-110823333D01*
X150697485Y-110904252D01*
X150665569Y-110940696D01*
X150628519Y-110949972D01*
X150628519Y-111486751D01*
X151234505Y-111501328D01*
X151244658Y-111623467D01*
X151256968Y-111704615D01*
X151270623Y-111719785D01*
X151270623Y-111215551D01*
X151145075Y-111214459D01*
X151058154Y-111210205D01*
X151028946Y-111205516D01*
X151008901Y-111182443D01*
X150996716Y-111125364D01*
X150991511Y-111024542D01*
X150992404Y-110870243D01*
X150993638Y-110815685D01*
X151002995Y-110442995D01*
X151763672Y-110442995D01*
X151763672Y-111203672D01*
X151418642Y-111213164D01*
X151270623Y-111215551D01*
X151270623Y-111719785D01*
X151289881Y-111741182D01*
X151364957Y-111754729D01*
X151376949Y-111755759D01*
X151457633Y-111767875D01*
X151494285Y-111800227D01*
X151507993Y-111874186D01*
X151509353Y-111889935D01*
X151520264Y-111970128D01*
X151548904Y-112005191D01*
X151616191Y-112013764D01*
X151648522Y-112013958D01*
X151777426Y-112013958D01*
X151787085Y-111757643D01*
X151796745Y-111501328D01*
X151912500Y-111501328D01*
X151988781Y-111506462D01*
X152023596Y-111534942D01*
X152036876Y-111606385D01*
X152038520Y-111625352D01*
X152048785Y-111749375D01*
X152834549Y-111749375D01*
X152844813Y-111625352D01*
X152856332Y-111544077D01*
X152885791Y-111509301D01*
X152953124Y-111501408D01*
X152970833Y-111501328D01*
X153086589Y-111501328D01*
X153086589Y-111997422D01*
X152964449Y-112007574D01*
X152883302Y-112019885D01*
X152846735Y-112052798D01*
X152833188Y-112127874D01*
X152832158Y-112139866D01*
X152819847Y-112221013D01*
X152786934Y-112257580D01*
X152711858Y-112271128D01*
X152699866Y-112272158D01*
X152618719Y-112284468D01*
X152582151Y-112317381D01*
X152568604Y-112392457D01*
X152567574Y-112404449D01*
X152555264Y-112485596D01*
X152522350Y-112522164D01*
X152447274Y-112535711D01*
X152435283Y-112536741D01*
X152354135Y-112549051D01*
X152317568Y-112581965D01*
X152304021Y-112657041D01*
X152302991Y-112669033D01*
X152291304Y-112749506D01*
X152260990Y-112783615D01*
X152191681Y-112791119D01*
X152177083Y-112791172D01*
X152100378Y-112785898D01*
X152065642Y-112756904D01*
X152052505Y-112684431D01*
X152051176Y-112669033D01*
X152038865Y-112587885D01*
X152005952Y-112551318D01*
X151930876Y-112537771D01*
X151918884Y-112536741D01*
X151838200Y-112524625D01*
X151801548Y-112492273D01*
X151787840Y-112418314D01*
X151786480Y-112402565D01*
X151775518Y-112322239D01*
X151746730Y-112287216D01*
X151679141Y-112278723D01*
X151647917Y-112278542D01*
X151564477Y-112282712D01*
X151526175Y-112307739D01*
X151512038Y-112372396D01*
X151509353Y-112402565D01*
X151497295Y-112484447D01*
X151465297Y-112521591D01*
X151391964Y-112535390D01*
X151375065Y-112536853D01*
X151251042Y-112547118D01*
X151251042Y-112804926D01*
X151507357Y-112814585D01*
X151763672Y-112824245D01*
X151773856Y-112946912D01*
X151784039Y-113069578D01*
X152292839Y-113088828D01*
X152303103Y-113212852D01*
X152313784Y-113292444D01*
X152341762Y-113327682D01*
X152407698Y-113336619D01*
X152445054Y-113336875D01*
X152571257Y-113336875D01*
X152580798Y-113082642D01*
X152590495Y-112824245D01*
X152822005Y-112824245D01*
X152822005Y-113320339D01*
X152696553Y-113330688D01*
X152576601Y-113340584D01*
X152567081Y-113593190D01*
X152557422Y-113849505D01*
X152441667Y-113849505D01*
X152365385Y-113844371D01*
X152330571Y-113815891D01*
X152317291Y-113744449D01*
X152315647Y-113725482D01*
X152304685Y-113645156D01*
X152275896Y-113610133D01*
X152208308Y-113601640D01*
X152177083Y-113601458D01*
X152093643Y-113605629D01*
X152055342Y-113630655D01*
X152041205Y-113695312D01*
X152038520Y-113725482D01*
X152026462Y-113807363D01*
X151994463Y-113844508D01*
X151921131Y-113858307D01*
X151904232Y-113859770D01*
X151824341Y-113870565D01*
X151789189Y-113898869D01*
X151780432Y-113965473D01*
X151780208Y-114000330D01*
X151776831Y-114084165D01*
X151753873Y-114121094D01*
X151692096Y-114130357D01*
X151649913Y-114130625D01*
X151565653Y-114134606D01*
X151526723Y-114158779D01*
X151512333Y-114221487D01*
X151509353Y-114254648D01*
X151497295Y-114336530D01*
X151465297Y-114373674D01*
X151391964Y-114387474D01*
X151375065Y-114388937D01*
X151295174Y-114399731D01*
X151260022Y-114428036D01*
X151251266Y-114494640D01*
X151251042Y-114529496D01*
X151251042Y-114659792D01*
X151780208Y-114659792D01*
X151780208Y-114127843D01*
X152036523Y-114137502D01*
X152292839Y-114147161D01*
X152292839Y-114643255D01*
X152036523Y-114652915D01*
X151780208Y-114662574D01*
X151780208Y-115188958D01*
X151910504Y-115188958D01*
X151994764Y-115184977D01*
X152033694Y-115160804D01*
X152048084Y-115098096D01*
X152051063Y-115064935D01*
X152062582Y-114983660D01*
X152092041Y-114948885D01*
X152159374Y-114940991D01*
X152177083Y-114940911D01*
X152253365Y-114946045D01*
X152288179Y-114974525D01*
X152301459Y-115045968D01*
X152303103Y-115064935D01*
X152313898Y-115144826D01*
X152342202Y-115179978D01*
X152408807Y-115188734D01*
X152443663Y-115188958D01*
X152527498Y-115192336D01*
X152564427Y-115215293D01*
X152569712Y-115250540D01*
X152569712Y-115193204D01*
X152580104Y-115067058D01*
X152591445Y-114984886D01*
X152619992Y-114949362D01*
X152685204Y-114941028D01*
X152706250Y-114940911D01*
X152783833Y-114946031D01*
X152815650Y-114974916D01*
X152821991Y-115047856D01*
X152822005Y-115056667D01*
X152817022Y-115132481D01*
X152789102Y-115167378D01*
X152718784Y-115180817D01*
X152695859Y-115182813D01*
X152569712Y-115193204D01*
X152569712Y-115250540D01*
X152573690Y-115277071D01*
X152573958Y-115319254D01*
X152577940Y-115403514D01*
X152602112Y-115442444D01*
X152664821Y-115456834D01*
X152697982Y-115459813D01*
X152779898Y-115471920D01*
X152817051Y-115503855D01*
X152830811Y-115576708D01*
X152832158Y-115592217D01*
X152844468Y-115673365D01*
X152877381Y-115709932D01*
X152952457Y-115723479D01*
X152964449Y-115724509D01*
X153045133Y-115736625D01*
X153081785Y-115768977D01*
X153095493Y-115842936D01*
X153096853Y-115858685D01*
X153107534Y-115938278D01*
X153135512Y-115973516D01*
X153201448Y-115982453D01*
X153238804Y-115982708D01*
X153367708Y-115982708D01*
X153367708Y-115457535D01*
X153243685Y-115447270D01*
X153119661Y-115437005D01*
X153119661Y-114940911D01*
X153235417Y-114940911D01*
X153311698Y-114946045D01*
X153346512Y-114974525D01*
X153359792Y-115045968D01*
X153361437Y-115064935D01*
X153372231Y-115144826D01*
X153400536Y-115179978D01*
X153467140Y-115188734D01*
X153501996Y-115188958D01*
X153632292Y-115188958D01*
X153632292Y-114395208D01*
X153501996Y-114395208D01*
X153417736Y-114399190D01*
X153378806Y-114423362D01*
X153364416Y-114486071D01*
X153361437Y-114519232D01*
X153351172Y-114643255D01*
X152590495Y-114643255D01*
X152590495Y-114527500D01*
X152595705Y-114450987D01*
X152624464Y-114416215D01*
X152696468Y-114403014D01*
X152713485Y-114401542D01*
X152836476Y-114391339D01*
X152855078Y-113617995D01*
X152977217Y-113607842D01*
X153058365Y-113595532D01*
X153094932Y-113562619D01*
X153108479Y-113487543D01*
X153109509Y-113475551D01*
X153121196Y-113395078D01*
X153151510Y-113360969D01*
X153190400Y-113356758D01*
X153190400Y-113071700D01*
X153139164Y-113050458D01*
X153113838Y-112991870D01*
X153107617Y-112884897D01*
X153109935Y-112799918D01*
X153119661Y-112559661D01*
X153351172Y-112559661D01*
X153351172Y-112807708D01*
X153349817Y-112934410D01*
X153342877Y-113009509D01*
X153326041Y-113047537D01*
X153294999Y-113063024D01*
X153274353Y-113066639D01*
X153190400Y-113071700D01*
X153190400Y-113356758D01*
X153220819Y-113353464D01*
X153235417Y-113353411D01*
X153311698Y-113358545D01*
X153346512Y-113387025D01*
X153359792Y-113458468D01*
X153361437Y-113477435D01*
X153372347Y-113557628D01*
X153400987Y-113592691D01*
X153468274Y-113601264D01*
X153500605Y-113601458D01*
X153629509Y-113601458D01*
X153639169Y-113345143D01*
X153648828Y-113088828D01*
X153905143Y-113079169D01*
X154161458Y-113069509D01*
X154161458Y-112543125D01*
X154031163Y-112543125D01*
G37*
X154031163Y-112543125D02*
X153946903Y-112547106D01*
X153907973Y-112571279D01*
X153893583Y-112633987D01*
X153890603Y-112667148D01*
X153879085Y-112748423D01*
X153849625Y-112783199D01*
X153782292Y-112791092D01*
X153764583Y-112791172D01*
X153687001Y-112786052D01*
X153655183Y-112757167D01*
X153648843Y-112684227D01*
X153648828Y-112675417D01*
X153653962Y-112599135D01*
X153682442Y-112564321D01*
X153753885Y-112551041D01*
X153772852Y-112549397D01*
X153853177Y-112538435D01*
X153888200Y-112509646D01*
X153896694Y-112442058D01*
X153896875Y-112410833D01*
X153892705Y-112327393D01*
X153867678Y-112289092D01*
X153803021Y-112274955D01*
X153772852Y-112272270D01*
X153690935Y-112260163D01*
X153653782Y-112228228D01*
X153640022Y-112155376D01*
X153638676Y-112139866D01*
X153626365Y-112058719D01*
X153593452Y-112022151D01*
X153518376Y-112008604D01*
X153506384Y-112007574D01*
X153425911Y-111995887D01*
X153391802Y-111965573D01*
X153384297Y-111896264D01*
X153384245Y-111881667D01*
X153389379Y-111805385D01*
X153417859Y-111770571D01*
X153489301Y-111757291D01*
X153508268Y-111755647D01*
X153588594Y-111744685D01*
X153623617Y-111715896D01*
X153632110Y-111648308D01*
X153632292Y-111617083D01*
X153628121Y-111533643D01*
X153603095Y-111495342D01*
X153538438Y-111481205D01*
X153508268Y-111478520D01*
X153426387Y-111466462D01*
X153389242Y-111434463D01*
X153375443Y-111361131D01*
X153373980Y-111344232D01*
X153363715Y-111220208D01*
X152577951Y-111220208D01*
X152567687Y-111344232D01*
X152556168Y-111425507D01*
X152526709Y-111460282D01*
X152459376Y-111468175D01*
X152441667Y-111468255D01*
X152325911Y-111468255D01*
X152307977Y-110161875D01*
X152198433Y-110161875D01*
X152116503Y-110155409D01*
X152066884Y-110139724D01*
X152065529Y-110138515D01*
X152055211Y-110096039D01*
X152050192Y-110006483D01*
X152051488Y-109888776D01*
X152051749Y-109882200D01*
X152061328Y-109649245D01*
X152185352Y-109638980D01*
X152305687Y-109629020D01*
X152315647Y-109508685D01*
X152325911Y-109384661D01*
X152582227Y-109375002D01*
X152838542Y-109365343D01*
X152838542Y-109103542D01*
X152048785Y-109103542D01*
X152038520Y-109227565D01*
X152028255Y-109351589D01*
X151515625Y-109370907D01*
X151515625Y-109628715D01*
X151639648Y-109638980D01*
X151763672Y-109649245D01*
X151763672Y-109897292D01*
X151762317Y-110023993D01*
X151755377Y-110099092D01*
X151738541Y-110137120D01*
X151707499Y-110152608D01*
X151686853Y-110156222D01*
X151605866Y-110161087D01*
X151555142Y-110140408D01*
X151527816Y-110083107D01*
X151517024Y-109978101D01*
X151515625Y-109879797D01*
X151515625Y-109636701D01*
X151391602Y-109626437D01*
X151267578Y-109616172D01*
X151257919Y-109359857D01*
X151248259Y-109103542D01*
X150721875Y-109103542D01*
X150721875Y-109894509D01*
X150978190Y-109904169D01*
X151234505Y-109913828D01*
X151234505Y-110145339D01*
X150980106Y-110154963D01*
X150725706Y-110164588D01*
X150715522Y-110287255D01*
X150705339Y-110409922D01*
X150450390Y-110419557D01*
X150195442Y-110429192D01*
X150185807Y-110684140D01*
X150176172Y-110939089D01*
X150060417Y-110939089D01*
X149984135Y-110933955D01*
X149949321Y-110905475D01*
X149936041Y-110834032D01*
X149934397Y-110815065D01*
X149923602Y-110735174D01*
X149895298Y-110700022D01*
X149828693Y-110691266D01*
X149793837Y-110691042D01*
X149663542Y-110691042D01*
X149663542Y-111749375D01*
X149793837Y-111749375D01*
X149878097Y-111745394D01*
X149917027Y-111721221D01*
X149931417Y-111658513D01*
X149934397Y-111625352D01*
X149946455Y-111543470D01*
X149978453Y-111506326D01*
X150051786Y-111492526D01*
X150068685Y-111491063D01*
X150189020Y-111481104D01*
X150198980Y-111360768D01*
X150210498Y-111279493D01*
X150239958Y-111244718D01*
X150307291Y-111236825D01*
X150325000Y-111236745D01*
X150401513Y-111241955D01*
X150436285Y-111270714D01*
X150449486Y-111342718D01*
X150450958Y-111359735D01*
X150461161Y-111482726D01*
X150628519Y-111486751D01*
X150628519Y-110949972D01*
X150526140Y-110949896D01*
X150473152Y-110909344D01*
X150462792Y-110822798D01*
X150463447Y-110815292D01*
X150476996Y-110742727D01*
X150513041Y-110713117D01*
X150589583Y-110707578D01*
X150667166Y-110712698D01*
X150698983Y-110741583D01*
X150705324Y-110814523D01*
X150705339Y-110823333D01*
X150697485Y-110904252D01*
X150665569Y-110940696D01*
X150628519Y-110949972D01*
X150628519Y-111486751D01*
X151234505Y-111501328D01*
X151244658Y-111623467D01*
X151256968Y-111704615D01*
X151270623Y-111719785D01*
X151270623Y-111215551D01*
X151145075Y-111214459D01*
X151058154Y-111210205D01*
X151028946Y-111205516D01*
X151008901Y-111182443D01*
X150996716Y-111125364D01*
X150991511Y-111024542D01*
X150992404Y-110870243D01*
X150993638Y-110815685D01*
X151002995Y-110442995D01*
X151763672Y-110442995D01*
X151763672Y-111203672D01*
X151418642Y-111213164D01*
X151270623Y-111215551D01*
X151270623Y-111719785D01*
X151289881Y-111741182D01*
X151364957Y-111754729D01*
X151376949Y-111755759D01*
X151457633Y-111767875D01*
X151494285Y-111800227D01*
X151507993Y-111874186D01*
X151509353Y-111889935D01*
X151520264Y-111970128D01*
X151548904Y-112005191D01*
X151616191Y-112013764D01*
X151648522Y-112013958D01*
X151777426Y-112013958D01*
X151787085Y-111757643D01*
X151796745Y-111501328D01*
X151912500Y-111501328D01*
X151988781Y-111506462D01*
X152023596Y-111534942D01*
X152036876Y-111606385D01*
X152038520Y-111625352D01*
X152048785Y-111749375D01*
X152834549Y-111749375D01*
X152844813Y-111625352D01*
X152856332Y-111544077D01*
X152885791Y-111509301D01*
X152953124Y-111501408D01*
X152970833Y-111501328D01*
X153086589Y-111501328D01*
X153086589Y-111997422D01*
X152964449Y-112007574D01*
X152883302Y-112019885D01*
X152846735Y-112052798D01*
X152833188Y-112127874D01*
X152832158Y-112139866D01*
X152819847Y-112221013D01*
X152786934Y-112257580D01*
X152711858Y-112271128D01*
X152699866Y-112272158D01*
X152618719Y-112284468D01*
X152582151Y-112317381D01*
X152568604Y-112392457D01*
X152567574Y-112404449D01*
X152555264Y-112485596D01*
X152522350Y-112522164D01*
X152447274Y-112535711D01*
X152435283Y-112536741D01*
X152354135Y-112549051D01*
X152317568Y-112581965D01*
X152304021Y-112657041D01*
X152302991Y-112669033D01*
X152291304Y-112749506D01*
X152260990Y-112783615D01*
X152191681Y-112791119D01*
X152177083Y-112791172D01*
X152100378Y-112785898D01*
X152065642Y-112756904D01*
X152052505Y-112684431D01*
X152051176Y-112669033D01*
X152038865Y-112587885D01*
X152005952Y-112551318D01*
X151930876Y-112537771D01*
X151918884Y-112536741D01*
X151838200Y-112524625D01*
X151801548Y-112492273D01*
X151787840Y-112418314D01*
X151786480Y-112402565D01*
X151775518Y-112322239D01*
X151746730Y-112287216D01*
X151679141Y-112278723D01*
X151647917Y-112278542D01*
X151564477Y-112282712D01*
X151526175Y-112307739D01*
X151512038Y-112372396D01*
X151509353Y-112402565D01*
X151497295Y-112484447D01*
X151465297Y-112521591D01*
X151391964Y-112535390D01*
X151375065Y-112536853D01*
X151251042Y-112547118D01*
X151251042Y-112804926D01*
X151507357Y-112814585D01*
X151763672Y-112824245D01*
X151773856Y-112946912D01*
X151784039Y-113069578D01*
X152292839Y-113088828D01*
X152303103Y-113212852D01*
X152313784Y-113292444D01*
X152341762Y-113327682D01*
X152407698Y-113336619D01*
X152445054Y-113336875D01*
X152571257Y-113336875D01*
X152580798Y-113082642D01*
X152590495Y-112824245D01*
X152822005Y-112824245D01*
X152822005Y-113320339D01*
X152696553Y-113330688D01*
X152576601Y-113340584D01*
X152567081Y-113593190D01*
X152557422Y-113849505D01*
X152441667Y-113849505D01*
X152365385Y-113844371D01*
X152330571Y-113815891D01*
X152317291Y-113744449D01*
X152315647Y-113725482D01*
X152304685Y-113645156D01*
X152275896Y-113610133D01*
X152208308Y-113601640D01*
X152177083Y-113601458D01*
X152093643Y-113605629D01*
X152055342Y-113630655D01*
X152041205Y-113695312D01*
X152038520Y-113725482D01*
X152026462Y-113807363D01*
X151994463Y-113844508D01*
X151921131Y-113858307D01*
X151904232Y-113859770D01*
X151824341Y-113870565D01*
X151789189Y-113898869D01*
X151780432Y-113965473D01*
X151780208Y-114000330D01*
X151776831Y-114084165D01*
X151753873Y-114121094D01*
X151692096Y-114130357D01*
X151649913Y-114130625D01*
X151565653Y-114134606D01*
X151526723Y-114158779D01*
X151512333Y-114221487D01*
X151509353Y-114254648D01*
X151497295Y-114336530D01*
X151465297Y-114373674D01*
X151391964Y-114387474D01*
X151375065Y-114388937D01*
X151295174Y-114399731D01*
X151260022Y-114428036D01*
X151251266Y-114494640D01*
X151251042Y-114529496D01*
X151251042Y-114659792D01*
X151780208Y-114659792D01*
X151780208Y-114127843D01*
X152036523Y-114137502D01*
X152292839Y-114147161D01*
X152292839Y-114643255D01*
X152036523Y-114652915D01*
X151780208Y-114662574D01*
X151780208Y-115188958D01*
X151910504Y-115188958D01*
X151994764Y-115184977D01*
X152033694Y-115160804D01*
X152048084Y-115098096D01*
X152051063Y-115064935D01*
X152062582Y-114983660D01*
X152092041Y-114948885D01*
X152159374Y-114940991D01*
X152177083Y-114940911D01*
X152253365Y-114946045D01*
X152288179Y-114974525D01*
X152301459Y-115045968D01*
X152303103Y-115064935D01*
X152313898Y-115144826D01*
X152342202Y-115179978D01*
X152408807Y-115188734D01*
X152443663Y-115188958D01*
X152527498Y-115192336D01*
X152564427Y-115215293D01*
X152569712Y-115250540D01*
X152569712Y-115193204D01*
X152580104Y-115067058D01*
X152591445Y-114984886D01*
X152619992Y-114949362D01*
X152685204Y-114941028D01*
X152706250Y-114940911D01*
X152783833Y-114946031D01*
X152815650Y-114974916D01*
X152821991Y-115047856D01*
X152822005Y-115056667D01*
X152817022Y-115132481D01*
X152789102Y-115167378D01*
X152718784Y-115180817D01*
X152695859Y-115182813D01*
X152569712Y-115193204D01*
X152569712Y-115250540D01*
X152573690Y-115277071D01*
X152573958Y-115319254D01*
X152577940Y-115403514D01*
X152602112Y-115442444D01*
X152664821Y-115456834D01*
X152697982Y-115459813D01*
X152779898Y-115471920D01*
X152817051Y-115503855D01*
X152830811Y-115576708D01*
X152832158Y-115592217D01*
X152844468Y-115673365D01*
X152877381Y-115709932D01*
X152952457Y-115723479D01*
X152964449Y-115724509D01*
X153045133Y-115736625D01*
X153081785Y-115768977D01*
X153095493Y-115842936D01*
X153096853Y-115858685D01*
X153107534Y-115938278D01*
X153135512Y-115973516D01*
X153201448Y-115982453D01*
X153238804Y-115982708D01*
X153367708Y-115982708D01*
X153367708Y-115457535D01*
X153243685Y-115447270D01*
X153119661Y-115437005D01*
X153119661Y-114940911D01*
X153235417Y-114940911D01*
X153311698Y-114946045D01*
X153346512Y-114974525D01*
X153359792Y-115045968D01*
X153361437Y-115064935D01*
X153372231Y-115144826D01*
X153400536Y-115179978D01*
X153467140Y-115188734D01*
X153501996Y-115188958D01*
X153632292Y-115188958D01*
X153632292Y-114395208D01*
X153501996Y-114395208D01*
X153417736Y-114399190D01*
X153378806Y-114423362D01*
X153364416Y-114486071D01*
X153361437Y-114519232D01*
X153351172Y-114643255D01*
X152590495Y-114643255D01*
X152590495Y-114527500D01*
X152595705Y-114450987D01*
X152624464Y-114416215D01*
X152696468Y-114403014D01*
X152713485Y-114401542D01*
X152836476Y-114391339D01*
X152855078Y-113617995D01*
X152977217Y-113607842D01*
X153058365Y-113595532D01*
X153094932Y-113562619D01*
X153108479Y-113487543D01*
X153109509Y-113475551D01*
X153121196Y-113395078D01*
X153151510Y-113360969D01*
X153190400Y-113356758D01*
X153190400Y-113071700D01*
X153139164Y-113050458D01*
X153113838Y-112991870D01*
X153107617Y-112884897D01*
X153109935Y-112799918D01*
X153119661Y-112559661D01*
X153351172Y-112559661D01*
X153351172Y-112807708D01*
X153349817Y-112934410D01*
X153342877Y-113009509D01*
X153326041Y-113047537D01*
X153294999Y-113063024D01*
X153274353Y-113066639D01*
X153190400Y-113071700D01*
X153190400Y-113356758D01*
X153220819Y-113353464D01*
X153235417Y-113353411D01*
X153311698Y-113358545D01*
X153346512Y-113387025D01*
X153359792Y-113458468D01*
X153361437Y-113477435D01*
X153372347Y-113557628D01*
X153400987Y-113592691D01*
X153468274Y-113601264D01*
X153500605Y-113601458D01*
X153629509Y-113601458D01*
X153639169Y-113345143D01*
X153648828Y-113088828D01*
X153905143Y-113079169D01*
X154161458Y-113069509D01*
X154161458Y-112543125D01*
X154031163Y-112543125D01*
G36*
X150986458Y-113601458D02*
G01*
X150986458Y-113733750D01*
X150983240Y-113818428D01*
X150961049Y-113856054D01*
X150901078Y-113865724D01*
X150856163Y-113866042D01*
X150771903Y-113870023D01*
X150732973Y-113894196D01*
X150718583Y-113956904D01*
X150715603Y-113990065D01*
X150700530Y-114075615D01*
X150665923Y-114115019D01*
X150628519Y-114124972D01*
X150526140Y-114124896D01*
X150473152Y-114084344D01*
X150462792Y-113997798D01*
X150463447Y-113990292D01*
X150477069Y-113918658D01*
X150513411Y-113885683D01*
X150593796Y-113872653D01*
X150597852Y-113872313D01*
X150678177Y-113861351D01*
X150713200Y-113832563D01*
X150721694Y-113764975D01*
X150721875Y-113733750D01*
X150717705Y-113650310D01*
X150692678Y-113612009D01*
X150628021Y-113597871D01*
X150597852Y-113595187D01*
X150473828Y-113584922D01*
X150473828Y-113088828D01*
X150730143Y-113079169D01*
X150983777Y-113069610D01*
X150993335Y-112815977D01*
X151002995Y-112559661D01*
X151127018Y-112549397D01*
X151251042Y-112539132D01*
X151251042Y-112414826D01*
X151247239Y-112329750D01*
X151223879Y-112290190D01*
X151163031Y-112275538D01*
X151127018Y-112272270D01*
X151002995Y-112262005D01*
X150993335Y-112005690D01*
X150983676Y-111749375D01*
X150724657Y-111749375D01*
X150705339Y-112262005D01*
X150581315Y-112272270D01*
X150457292Y-112282535D01*
X150457292Y-111484792D01*
X150192708Y-111484792D01*
X150192708Y-112278542D01*
X150325000Y-112278542D01*
X150409678Y-112281760D01*
X150447304Y-112303951D01*
X150456974Y-112363922D01*
X150457292Y-112408837D01*
X150461273Y-112493097D01*
X150485446Y-112532027D01*
X150548154Y-112546417D01*
X150581315Y-112549397D01*
X150662590Y-112560915D01*
X150697365Y-112590375D01*
X150705259Y-112657708D01*
X150705339Y-112675417D01*
X150705339Y-112791172D01*
X150450061Y-112800813D01*
X150194784Y-112810453D01*
X150185478Y-113197688D01*
X150176172Y-113584922D01*
X150052148Y-113595187D01*
X149928125Y-113605451D01*
X149928125Y-113072292D01*
X149663542Y-113072292D01*
X149663542Y-113601458D01*
X149795833Y-113601458D01*
X149880511Y-113604676D01*
X149918138Y-113626868D01*
X149927807Y-113686839D01*
X149928125Y-113731754D01*
X149932106Y-113816014D01*
X149956279Y-113854944D01*
X150018987Y-113869334D01*
X150052148Y-113872313D01*
X150133423Y-113883832D01*
X150168199Y-113913291D01*
X150176092Y-113980624D01*
X150176172Y-113998333D01*
X150176172Y-114114089D01*
X149663542Y-114133407D01*
X149663542Y-114659792D01*
X150986458Y-114659792D01*
X150986458Y-113866042D01*
X151251042Y-113866042D01*
X151251042Y-113601458D01*
X150986458Y-113601458D01*
G37*
X150986458Y-113601458D02*
X150986458Y-113733750D01*
X150983240Y-113818428D01*
X150961049Y-113856054D01*
X150901078Y-113865724D01*
X150856163Y-113866042D01*
X150771903Y-113870023D01*
X150732973Y-113894196D01*
X150718583Y-113956904D01*
X150715603Y-113990065D01*
X150700530Y-114075615D01*
X150665923Y-114115019D01*
X150628519Y-114124972D01*
X150526140Y-114124896D01*
X150473152Y-114084344D01*
X150462792Y-113997798D01*
X150463447Y-113990292D01*
X150477069Y-113918658D01*
X150513411Y-113885683D01*
X150593796Y-113872653D01*
X150597852Y-113872313D01*
X150678177Y-113861351D01*
X150713200Y-113832563D01*
X150721694Y-113764975D01*
X150721875Y-113733750D01*
X150717705Y-113650310D01*
X150692678Y-113612009D01*
X150628021Y-113597871D01*
X150597852Y-113595187D01*
X150473828Y-113584922D01*
X150473828Y-113088828D01*
X150730143Y-113079169D01*
X150983777Y-113069610D01*
X150993335Y-112815977D01*
X151002995Y-112559661D01*
X151127018Y-112549397D01*
X151251042Y-112539132D01*
X151251042Y-112414826D01*
X151247239Y-112329750D01*
X151223879Y-112290190D01*
X151163031Y-112275538D01*
X151127018Y-112272270D01*
X151002995Y-112262005D01*
X150993335Y-112005690D01*
X150983676Y-111749375D01*
X150724657Y-111749375D01*
X150705339Y-112262005D01*
X150581315Y-112272270D01*
X150457292Y-112282535D01*
X150457292Y-111484792D01*
X150192708Y-111484792D01*
X150192708Y-112278542D01*
X150325000Y-112278542D01*
X150409678Y-112281760D01*
X150447304Y-112303951D01*
X150456974Y-112363922D01*
X150457292Y-112408837D01*
X150461273Y-112493097D01*
X150485446Y-112532027D01*
X150548154Y-112546417D01*
X150581315Y-112549397D01*
X150662590Y-112560915D01*
X150697365Y-112590375D01*
X150705259Y-112657708D01*
X150705339Y-112675417D01*
X150705339Y-112791172D01*
X150450061Y-112800813D01*
X150194784Y-112810453D01*
X150185478Y-113197688D01*
X150176172Y-113584922D01*
X150052148Y-113595187D01*
X149928125Y-113605451D01*
X149928125Y-113072292D01*
X149663542Y-113072292D01*
X149663542Y-113601458D01*
X149795833Y-113601458D01*
X149880511Y-113604676D01*
X149918138Y-113626868D01*
X149927807Y-113686839D01*
X149928125Y-113731754D01*
X149932106Y-113816014D01*
X149956279Y-113854944D01*
X150018987Y-113869334D01*
X150052148Y-113872313D01*
X150133423Y-113883832D01*
X150168199Y-113913291D01*
X150176092Y-113980624D01*
X150176172Y-113998333D01*
X150176172Y-114114089D01*
X149663542Y-114133407D01*
X149663542Y-114659792D01*
X150986458Y-114659792D01*
X150986458Y-113866042D01*
X151251042Y-113866042D01*
X151251042Y-113601458D01*
X150986458Y-113601458D01*
G36*
X149663542Y-114924375D02*
G01*
X149663542Y-116776458D01*
X151251042Y-116776458D01*
X151251042Y-116478802D01*
X149928125Y-116478802D01*
X149928125Y-115188958D01*
X151251042Y-115188958D01*
X151251042Y-116478802D01*
X151251042Y-116776458D01*
X151515625Y-116776458D01*
X151515625Y-114924375D01*
X149663542Y-114924375D01*
G37*
X149663542Y-114924375D02*
X149663542Y-116776458D01*
X151251042Y-116776458D01*
X151251042Y-116478802D01*
X149928125Y-116478802D01*
X149928125Y-115188958D01*
X151251042Y-115188958D01*
X151251042Y-116478802D01*
X151251042Y-116776458D01*
X151515625Y-116776458D01*
X151515625Y-114924375D01*
X149663542Y-114924375D01*
D13*
%TO.C,J3*%
X145940000Y-83410000D02*
X144610000Y-83410000D01*
X145940000Y-84740000D02*
X145940000Y-83410000D01*
X145940000Y-86010000D02*
X143280000Y-86010000D01*
X143280000Y-86010000D02*
X143280000Y-119090000D01*
X145940000Y-86010000D02*
X145940000Y-119090000D01*
X145940000Y-119090000D02*
X143280000Y-119090000D01*
%TO.C,J4*%
X163720000Y-119090000D02*
X161060000Y-119090000D01*
X163720000Y-86010000D02*
X163720000Y-119090000D01*
X161060000Y-86010000D02*
X161060000Y-119090000D01*
X163720000Y-86010000D02*
X161060000Y-86010000D01*
X163720000Y-84740000D02*
X163720000Y-83410000D01*
X163720000Y-83410000D02*
X162390000Y-83410000D01*
%TO.C,J3*%
D10*
X144860000Y-81999285D02*
X144860000Y-82535000D01*
X144895714Y-82642142D01*
X144967142Y-82713571D01*
X145074285Y-82749285D01*
X145145714Y-82749285D01*
X144574285Y-81999285D02*
X144110000Y-81999285D01*
X144360000Y-82285000D01*
X144252857Y-82285000D01*
X144181428Y-82320714D01*
X144145714Y-82356428D01*
X144110000Y-82427857D01*
X144110000Y-82606428D01*
X144145714Y-82677857D01*
X144181428Y-82713571D01*
X144252857Y-82749285D01*
X144467142Y-82749285D01*
X144538571Y-82713571D01*
X144574285Y-82677857D01*
%TO.C,J4*%
X162640000Y-81999285D02*
X162640000Y-82535000D01*
X162675714Y-82642142D01*
X162747142Y-82713571D01*
X162854285Y-82749285D01*
X162925714Y-82749285D01*
X161961428Y-82249285D02*
X161961428Y-82749285D01*
X162140000Y-81963571D02*
X162318571Y-82499285D01*
X161854285Y-82499285D01*
%TD*%
M02*
