%TF.GenerationSoftware,KiCad,Pcbnew,(5.1.8)-1*%
%TF.CreationDate,2020-12-28T06:59:23-08:00*%
%TF.ProjectId,atmega32u4_dev_board,61746d65-6761-4333-9275-345f6465765f,rev?*%
%TF.SameCoordinates,Original*%
%TF.FileFunction,Copper,L2,Bot*%
%TF.FilePolarity,Positive*%
%FSLAX46Y46*%
G04 Gerber Fmt 4.6, Leading zero omitted, Abs format (unit mm)*
G04 Created by KiCad (PCBNEW (5.1.8)-1) date 2020-12-28 06:59:23*
%MOMM*%
%LPD*%
G01*
G04 APERTURE LIST*
%TA.AperFunction,ComponentPad*%
%ADD10O,1.158000X2.316000*%
%TD*%
%TA.AperFunction,ComponentPad*%
%ADD11O,1.200000X2.400000*%
%TD*%
%TA.AperFunction,ComponentPad*%
%ADD12O,1.700000X1.700000*%
%TD*%
%TA.AperFunction,ComponentPad*%
%ADD13R,1.700000X1.700000*%
%TD*%
%TA.AperFunction,ViaPad*%
%ADD14C,0.800000*%
%TD*%
%TA.AperFunction,Conductor*%
%ADD15C,0.250000*%
%TD*%
%TA.AperFunction,Conductor*%
%ADD16C,0.500000*%
%TD*%
%TA.AperFunction,Conductor*%
%ADD17C,0.254000*%
%TD*%
%TA.AperFunction,Conductor*%
%ADD18C,0.100000*%
%TD*%
G04 APERTURE END LIST*
D10*
%TO.P,J6,S3*%
%TO.N,GND*%
X157820000Y-76485000D03*
%TO.P,J6,S4*%
X149180000Y-76485000D03*
D11*
%TO.P,J6,S5*%
X157820000Y-72660000D03*
%TO.P,J6,S6*%
X149180000Y-72660000D03*
%TD*%
D12*
%TO.P,J3,1*%
%TO.N,VDD*%
X144610000Y-84740000D03*
D13*
%TO.P,J3,2*%
%TO.N,GND*%
X144610000Y-87280000D03*
D12*
%TO.P,J3,3*%
%TO.N,/SCK*%
X144610000Y-89820000D03*
%TO.P,J3,4*%
%TO.N,/MOSI*%
X144610000Y-92360000D03*
%TO.P,J3,5*%
%TO.N,/MISO*%
X144610000Y-94900000D03*
%TO.P,J3,6*%
%TO.N,/D0*%
X144610000Y-97440000D03*
%TO.P,J3,7*%
%TO.N,/D1*%
X144610000Y-99980000D03*
%TO.P,J3,8*%
%TO.N,/D2*%
X144610000Y-102520000D03*
%TO.P,J3,9*%
%TO.N,/D3*%
X144610000Y-105060000D03*
%TO.P,J3,10*%
%TO.N,/D4*%
X144610000Y-107600000D03*
%TO.P,J3,11*%
%TO.N,/D5*%
X144610000Y-110140000D03*
%TO.P,J3,12*%
%TO.N,/D6*%
X144610000Y-112680000D03*
%TO.P,J3,13*%
%TO.N,/D7*%
X144610000Y-115220000D03*
%TO.P,J3,14*%
%TO.N,/D8*%
X144610000Y-117760000D03*
%TD*%
%TO.P,J4,14*%
%TO.N,/D9*%
X162390000Y-117760000D03*
%TO.P,J4,13*%
%TO.N,/D10*%
X162390000Y-115220000D03*
%TO.P,J4,12*%
%TO.N,/D11*%
X162390000Y-112680000D03*
%TO.P,J4,11*%
%TO.N,/D12*%
X162390000Y-110140000D03*
%TO.P,J4,10*%
%TO.N,/D13*%
X162390000Y-107600000D03*
%TO.P,J4,9*%
%TO.N,/A0*%
X162390000Y-105060000D03*
%TO.P,J4,8*%
%TO.N,/A1*%
X162390000Y-102520000D03*
%TO.P,J4,7*%
%TO.N,/A2*%
X162390000Y-99980000D03*
%TO.P,J4,6*%
%TO.N,/A3*%
X162390000Y-97440000D03*
%TO.P,J4,5*%
%TO.N,/A4*%
X162390000Y-94900000D03*
%TO.P,J4,4*%
%TO.N,/A5*%
X162390000Y-92360000D03*
D13*
%TO.P,J4,3*%
%TO.N,GND*%
X162390000Y-89820000D03*
D12*
%TO.P,J4,2*%
%TO.N,VCC*%
X162390000Y-87280000D03*
%TO.P,J4,1*%
%TO.N,/RESET*%
X162390000Y-84740000D03*
%TD*%
D14*
%TO.N,GND*%
X157560000Y-108150000D03*
X153470000Y-116820000D03*
X146930000Y-108980000D03*
X150130000Y-109340000D03*
%TO.N,Net-(C1-Pad1)*%
X150054990Y-104984960D03*
X150060000Y-108235001D03*
%TO.N,Net-(C2-Pad1)*%
X149810000Y-103900000D03*
X149500000Y-110340000D03*
%TO.N,VCC*%
X158925000Y-100325000D03*
X148919999Y-103425000D03*
X153853486Y-106785001D03*
X153860000Y-112510000D03*
X156300000Y-90100000D03*
X156300000Y-94830000D03*
%TO.N,/D+*%
X151700000Y-91330000D03*
X152270000Y-82740000D03*
%TO.N,/D-*%
X153500000Y-91320000D03*
X154860000Y-82740000D03*
%TO.N,/RESET*%
X147105009Y-102700000D03*
X148100000Y-94980000D03*
%TO.N,/D2*%
X147105009Y-104335000D03*
%TO.N,/D3*%
X147830010Y-105434970D03*
%TO.N,/D5*%
X158040000Y-103335163D03*
%TO.N,/D6*%
X156666639Y-105441945D03*
%TO.N,/D7*%
X153438434Y-96750091D03*
%TO.N,/D8*%
X159444982Y-105235174D03*
%TO.N,/D11*%
X148700000Y-101300000D03*
X154578486Y-111750000D03*
X159894990Y-111750000D03*
%TO.N,/D12*%
X159894990Y-110140000D03*
%TO.N,/D13*%
X159170000Y-113000000D03*
%TO.N,VBUS*%
X149175000Y-97080000D03*
X148200000Y-81190000D03*
%TO.N,Net-(R4-Pad1)*%
X159460017Y-101870314D03*
X158650000Y-107890000D03*
%TO.N,/TXLED*%
X152853485Y-106785000D03*
X152970000Y-113000000D03*
%TO.N,/RXLED*%
X147760000Y-112550000D03*
X148015028Y-98684980D03*
%TD*%
D15*
%TO.N,Net-(C1-Pad1)*%
X150054990Y-108229991D02*
X150060000Y-108235001D01*
X150054990Y-104984960D02*
X150054990Y-108229991D01*
%TO.N,Net-(C2-Pad1)*%
X149810000Y-103900000D02*
X149329989Y-104380011D01*
X149329989Y-110169989D02*
X149329989Y-104380011D01*
X149500000Y-110340000D02*
X149329989Y-110169989D01*
%TO.N,VCC*%
X153853486Y-112503486D02*
X153860000Y-112510000D01*
D16*
X156300000Y-90100000D02*
X156300000Y-94830000D01*
D15*
X156300000Y-97700000D02*
X158925000Y-100325000D01*
X149659171Y-102025001D02*
X148351999Y-102025001D01*
X153853486Y-106219316D02*
X149659171Y-102025001D01*
X153853486Y-106785001D02*
X153853486Y-106219316D01*
X148919999Y-102593001D02*
X148351999Y-102025001D01*
X148919999Y-103425000D02*
X148919999Y-102593001D01*
X155630000Y-96020000D02*
X156300000Y-95350000D01*
X152906998Y-96020000D02*
X155630000Y-96020000D01*
X147974999Y-100951999D02*
X152906998Y-96020000D01*
X147974999Y-101648001D02*
X147974999Y-100951999D01*
X148351999Y-102025001D02*
X147974999Y-101648001D01*
X156300000Y-95350000D02*
X156300000Y-97700000D01*
X156300000Y-94830000D02*
X156300000Y-95350000D01*
X153853486Y-106785001D02*
X153853486Y-112503486D01*
%TO.N,/D+*%
X151700000Y-83310000D02*
X152270000Y-82740000D01*
X151700000Y-91330000D02*
X151700000Y-83310000D01*
%TO.N,/D-*%
X153500000Y-84100000D02*
X154860000Y-82740000D01*
X153500000Y-91320000D02*
X153500000Y-84100000D01*
%TO.N,/RESET*%
X147105009Y-102700000D02*
X147074979Y-102669970D01*
X147074979Y-96005021D02*
X147074979Y-96154979D01*
X148100000Y-94980000D02*
X147074979Y-96005021D01*
X147074979Y-102669970D02*
X147074979Y-96154979D01*
X162390000Y-81320000D02*
X162390000Y-84740000D01*
X147851999Y-80464999D02*
X161534999Y-80464999D01*
X146559991Y-81757007D02*
X147851999Y-80464999D01*
X146559990Y-92916400D02*
X146559991Y-81757007D01*
X161534999Y-80464999D02*
X162390000Y-81320000D01*
X147074979Y-93431389D02*
X146559990Y-92916400D01*
X147074979Y-96154979D02*
X147074979Y-93431389D01*
%TO.N,/D2*%
X144610000Y-102520000D02*
X145940000Y-103850000D01*
X146425000Y-104335000D02*
X145940000Y-103850000D01*
X147105009Y-104335000D02*
X146425000Y-104335000D01*
%TO.N,/D3*%
X147455040Y-105060000D02*
X147830010Y-105434970D01*
X144610000Y-105060000D02*
X147455040Y-105060000D01*
%TO.N,/D5*%
X157474315Y-103335163D02*
X158040000Y-103335163D01*
X155303487Y-105505991D02*
X157474315Y-103335163D01*
X153718001Y-113725001D02*
X155303487Y-112139515D01*
X155303487Y-112139515D02*
X155303487Y-105505991D01*
X146925001Y-113725001D02*
X153718001Y-113725001D01*
X145940000Y-112740000D02*
X146925001Y-113725001D01*
X145940000Y-111470000D02*
X145940000Y-112740000D01*
X144610000Y-110140000D02*
X145940000Y-111470000D01*
%TO.N,/D6*%
X155753497Y-106355087D02*
X156666639Y-105441945D01*
X155753496Y-112325916D02*
X155753497Y-106355087D01*
X153904401Y-114175011D02*
X155753496Y-112325916D01*
X146105011Y-114175011D02*
X153904401Y-114175011D01*
X144610000Y-112680000D02*
X146105011Y-114175011D01*
%TO.N,/D7*%
X153303342Y-96614999D02*
X153438434Y-96750091D01*
X145204979Y-114625021D02*
X144610000Y-115220000D01*
X154090801Y-114625021D02*
X145204979Y-114625021D01*
X156203505Y-112512317D02*
X154090801Y-114625021D01*
X158765001Y-104416585D02*
X156203506Y-106978080D01*
X158765001Y-102076658D02*
X158765001Y-104416585D01*
X156203506Y-106978080D02*
X156203505Y-112512317D01*
X153438434Y-96750091D02*
X158765001Y-102076658D01*
%TO.N,/D8*%
X158582822Y-105235174D02*
X159444982Y-105235174D01*
X156653515Y-107164481D02*
X158582822Y-105235174D01*
X156653514Y-112698718D02*
X156653515Y-107164481D01*
X154277201Y-115075031D02*
X156653514Y-112698718D01*
X146604969Y-115075031D02*
X154277201Y-115075031D01*
X145940000Y-115740000D02*
X146604969Y-115075031D01*
X145940000Y-116430000D02*
X145940000Y-115740000D01*
X144610000Y-117760000D02*
X145940000Y-116430000D01*
%TO.N,/D11*%
X154578486Y-106307906D02*
X154578486Y-111750000D01*
X149570580Y-101300000D02*
X154578486Y-106307906D01*
X148700000Y-101300000D02*
X149570580Y-101300000D01*
X161460000Y-111750000D02*
X162390000Y-112680000D01*
X159894990Y-111750000D02*
X161460000Y-111750000D01*
%TO.N,/D12*%
X162390000Y-110140000D02*
X159894990Y-110140000D01*
%TO.N,/D13*%
X162390000Y-107600000D02*
X160575001Y-109414999D01*
X159546989Y-109414999D02*
X159169989Y-109791999D01*
X160575001Y-109414999D02*
X159546989Y-109414999D01*
X159169989Y-112999989D02*
X159170000Y-113000000D01*
X159169989Y-109791999D02*
X159169989Y-112999989D01*
%TO.N,VBUS*%
X149175000Y-94895000D02*
X147010000Y-92730000D01*
X149175000Y-97080000D02*
X149175000Y-94895000D01*
X147010000Y-82380000D02*
X148200000Y-81190000D01*
X147010000Y-92730000D02*
X147010000Y-82380000D01*
%TO.N,Net-(R4-Pad1)*%
X159460017Y-101870314D02*
X159460017Y-104177207D01*
X160169983Y-104887173D02*
X160169983Y-105583175D01*
X160169983Y-105583175D02*
X159792983Y-105960175D01*
X159460017Y-104177207D02*
X160169983Y-104887173D01*
X159792983Y-105960175D02*
X159069825Y-105960175D01*
X158650000Y-106380000D02*
X158650000Y-107890000D01*
X159069825Y-105960175D02*
X158650000Y-106380000D01*
%TO.N,/TXLED*%
X152970000Y-106901515D02*
X152853485Y-106785000D01*
X152970000Y-113000000D02*
X152970000Y-106901515D01*
%TO.N,/RXLED*%
X147524989Y-99175019D02*
X148015028Y-98684980D01*
X147524989Y-101834401D02*
X147524989Y-99175019D01*
X147830010Y-102139422D02*
X147524989Y-101834401D01*
X147830010Y-104361968D02*
X147830010Y-102139422D01*
X148555011Y-105086969D02*
X147830010Y-104361968D01*
X148555011Y-111754989D02*
X148555011Y-105086969D01*
X147760000Y-112550000D02*
X148555011Y-111754989D01*
%TD*%
D17*
%TO.N,GND*%
X161884000Y-81529592D02*
X161884001Y-83617167D01*
X161806903Y-83649102D01*
X161605283Y-83783820D01*
X161433820Y-83955283D01*
X161299102Y-84156903D01*
X161206307Y-84380931D01*
X161159000Y-84618757D01*
X161159000Y-84861243D01*
X161206307Y-85099069D01*
X161299102Y-85323097D01*
X161433820Y-85524717D01*
X161605283Y-85696180D01*
X161806903Y-85830898D01*
X162030931Y-85923693D01*
X162268757Y-85971000D01*
X162511243Y-85971000D01*
X162749069Y-85923693D01*
X162973097Y-85830898D01*
X163174717Y-85696180D01*
X163346180Y-85524717D01*
X163373000Y-85484578D01*
X163373000Y-86535422D01*
X163346180Y-86495283D01*
X163174717Y-86323820D01*
X162973097Y-86189102D01*
X162749069Y-86096307D01*
X162511243Y-86049000D01*
X162268757Y-86049000D01*
X162030931Y-86096307D01*
X161806903Y-86189102D01*
X161605283Y-86323820D01*
X161433820Y-86495283D01*
X161299102Y-86696903D01*
X161206307Y-86920931D01*
X161159000Y-87158757D01*
X161159000Y-87401243D01*
X161206307Y-87639069D01*
X161299102Y-87863097D01*
X161433820Y-88064717D01*
X161605283Y-88236180D01*
X161806903Y-88370898D01*
X162030931Y-88463693D01*
X162268757Y-88511000D01*
X162511243Y-88511000D01*
X162749069Y-88463693D01*
X162973097Y-88370898D01*
X163174717Y-88236180D01*
X163346180Y-88064717D01*
X163373000Y-88024578D01*
X163373000Y-88612201D01*
X163314689Y-88594513D01*
X163240000Y-88587157D01*
X162485750Y-88589000D01*
X162390500Y-88684250D01*
X162390500Y-89819500D01*
X162410500Y-89819500D01*
X162410500Y-89820500D01*
X162390500Y-89820500D01*
X162390500Y-90955750D01*
X162485750Y-91051000D01*
X163240000Y-91052843D01*
X163314689Y-91045487D01*
X163373000Y-91027799D01*
X163373000Y-91615422D01*
X163346180Y-91575283D01*
X163174717Y-91403820D01*
X162973097Y-91269102D01*
X162749069Y-91176307D01*
X162511243Y-91129000D01*
X162268757Y-91129000D01*
X162030931Y-91176307D01*
X161806903Y-91269102D01*
X161605283Y-91403820D01*
X161433820Y-91575283D01*
X161299102Y-91776903D01*
X161206307Y-92000931D01*
X161159000Y-92238757D01*
X161159000Y-92481243D01*
X161206307Y-92719069D01*
X161299102Y-92943097D01*
X161433820Y-93144717D01*
X161605283Y-93316180D01*
X161806903Y-93450898D01*
X162030931Y-93543693D01*
X162268757Y-93591000D01*
X162511243Y-93591000D01*
X162749069Y-93543693D01*
X162973097Y-93450898D01*
X163174717Y-93316180D01*
X163346180Y-93144717D01*
X163373000Y-93104578D01*
X163373000Y-94155422D01*
X163346180Y-94115283D01*
X163174717Y-93943820D01*
X162973097Y-93809102D01*
X162749069Y-93716307D01*
X162511243Y-93669000D01*
X162268757Y-93669000D01*
X162030931Y-93716307D01*
X161806903Y-93809102D01*
X161605283Y-93943820D01*
X161433820Y-94115283D01*
X161299102Y-94316903D01*
X161206307Y-94540931D01*
X161159000Y-94778757D01*
X161159000Y-95021243D01*
X161206307Y-95259069D01*
X161299102Y-95483097D01*
X161433820Y-95684717D01*
X161605283Y-95856180D01*
X161806903Y-95990898D01*
X162030931Y-96083693D01*
X162268757Y-96131000D01*
X162511243Y-96131000D01*
X162749069Y-96083693D01*
X162973097Y-95990898D01*
X163174717Y-95856180D01*
X163346180Y-95684717D01*
X163373000Y-95644578D01*
X163373000Y-96695422D01*
X163346180Y-96655283D01*
X163174717Y-96483820D01*
X162973097Y-96349102D01*
X162749069Y-96256307D01*
X162511243Y-96209000D01*
X162268757Y-96209000D01*
X162030931Y-96256307D01*
X161806903Y-96349102D01*
X161605283Y-96483820D01*
X161433820Y-96655283D01*
X161299102Y-96856903D01*
X161206307Y-97080931D01*
X161159000Y-97318757D01*
X161159000Y-97561243D01*
X161206307Y-97799069D01*
X161299102Y-98023097D01*
X161433820Y-98224717D01*
X161605283Y-98396180D01*
X161806903Y-98530898D01*
X162030931Y-98623693D01*
X162268757Y-98671000D01*
X162511243Y-98671000D01*
X162749069Y-98623693D01*
X162973097Y-98530898D01*
X163174717Y-98396180D01*
X163346180Y-98224717D01*
X163373000Y-98184578D01*
X163373000Y-99235422D01*
X163346180Y-99195283D01*
X163174717Y-99023820D01*
X162973097Y-98889102D01*
X162749069Y-98796307D01*
X162511243Y-98749000D01*
X162268757Y-98749000D01*
X162030931Y-98796307D01*
X161806903Y-98889102D01*
X161605283Y-99023820D01*
X161433820Y-99195283D01*
X161299102Y-99396903D01*
X161206307Y-99620931D01*
X161159000Y-99858757D01*
X161159000Y-100101243D01*
X161206307Y-100339069D01*
X161299102Y-100563097D01*
X161433820Y-100764717D01*
X161605283Y-100936180D01*
X161806903Y-101070898D01*
X162030931Y-101163693D01*
X162268757Y-101211000D01*
X162511243Y-101211000D01*
X162749069Y-101163693D01*
X162973097Y-101070898D01*
X163174717Y-100936180D01*
X163346180Y-100764717D01*
X163373000Y-100724578D01*
X163373000Y-101775422D01*
X163346180Y-101735283D01*
X163174717Y-101563820D01*
X162973097Y-101429102D01*
X162749069Y-101336307D01*
X162511243Y-101289000D01*
X162268757Y-101289000D01*
X162030931Y-101336307D01*
X161806903Y-101429102D01*
X161605283Y-101563820D01*
X161433820Y-101735283D01*
X161299102Y-101936903D01*
X161206307Y-102160931D01*
X161159000Y-102398757D01*
X161159000Y-102641243D01*
X161206307Y-102879069D01*
X161299102Y-103103097D01*
X161433820Y-103304717D01*
X161605283Y-103476180D01*
X161806903Y-103610898D01*
X162030931Y-103703693D01*
X162268757Y-103751000D01*
X162511243Y-103751000D01*
X162749069Y-103703693D01*
X162973097Y-103610898D01*
X163174717Y-103476180D01*
X163346180Y-103304717D01*
X163373000Y-103264578D01*
X163373000Y-104315422D01*
X163346180Y-104275283D01*
X163174717Y-104103820D01*
X162973097Y-103969102D01*
X162749069Y-103876307D01*
X162511243Y-103829000D01*
X162268757Y-103829000D01*
X162030931Y-103876307D01*
X161806903Y-103969102D01*
X161605283Y-104103820D01*
X161433820Y-104275283D01*
X161299102Y-104476903D01*
X161206307Y-104700931D01*
X161159000Y-104938757D01*
X161159000Y-105181243D01*
X161206307Y-105419069D01*
X161299102Y-105643097D01*
X161433820Y-105844717D01*
X161605283Y-106016180D01*
X161806903Y-106150898D01*
X162030931Y-106243693D01*
X162268757Y-106291000D01*
X162511243Y-106291000D01*
X162749069Y-106243693D01*
X162973097Y-106150898D01*
X163174717Y-106016180D01*
X163346180Y-105844717D01*
X163373000Y-105804578D01*
X163373000Y-106855422D01*
X163346180Y-106815283D01*
X163174717Y-106643820D01*
X162973097Y-106509102D01*
X162749069Y-106416307D01*
X162511243Y-106369000D01*
X162268757Y-106369000D01*
X162030931Y-106416307D01*
X161806903Y-106509102D01*
X161605283Y-106643820D01*
X161433820Y-106815283D01*
X161299102Y-107016903D01*
X161206307Y-107240931D01*
X161159000Y-107478757D01*
X161159000Y-107721243D01*
X161206307Y-107959069D01*
X161238242Y-108036167D01*
X160365410Y-108908999D01*
X159571843Y-108908999D01*
X159546989Y-108906551D01*
X159522135Y-108908999D01*
X159447796Y-108916321D01*
X159352414Y-108945254D01*
X159264510Y-108992240D01*
X159187462Y-109055472D01*
X159171618Y-109074778D01*
X158829774Y-109416623D01*
X158810462Y-109432472D01*
X158747230Y-109509520D01*
X158700244Y-109597425D01*
X158671311Y-109692807D01*
X158663989Y-109767146D01*
X158663989Y-109767153D01*
X158661542Y-109791999D01*
X158663989Y-109816845D01*
X158663990Y-112401509D01*
X158563358Y-112502141D01*
X158477887Y-112630058D01*
X158419013Y-112772191D01*
X158389000Y-112923078D01*
X158389000Y-113076922D01*
X158419013Y-113227809D01*
X158477887Y-113369942D01*
X158563358Y-113497859D01*
X158672141Y-113606642D01*
X158800058Y-113692113D01*
X158942191Y-113750987D01*
X159093078Y-113781000D01*
X159246922Y-113781000D01*
X159397809Y-113750987D01*
X159539942Y-113692113D01*
X159667859Y-113606642D01*
X159776642Y-113497859D01*
X159862113Y-113369942D01*
X159920987Y-113227809D01*
X159951000Y-113076922D01*
X159951000Y-112923078D01*
X159920987Y-112772191D01*
X159862113Y-112630058D01*
X159792531Y-112525920D01*
X159818068Y-112531000D01*
X159971912Y-112531000D01*
X160122799Y-112500987D01*
X160264932Y-112442113D01*
X160392849Y-112356642D01*
X160493491Y-112256000D01*
X161233202Y-112256000D01*
X161206307Y-112320931D01*
X161159000Y-112558757D01*
X161159000Y-112801243D01*
X161206307Y-113039069D01*
X161299102Y-113263097D01*
X161433820Y-113464717D01*
X161605283Y-113636180D01*
X161806903Y-113770898D01*
X162030931Y-113863693D01*
X162268757Y-113911000D01*
X162511243Y-113911000D01*
X162749069Y-113863693D01*
X162973097Y-113770898D01*
X163174717Y-113636180D01*
X163346180Y-113464717D01*
X163373000Y-113424578D01*
X163373000Y-114475422D01*
X163346180Y-114435283D01*
X163174717Y-114263820D01*
X162973097Y-114129102D01*
X162749069Y-114036307D01*
X162511243Y-113989000D01*
X162268757Y-113989000D01*
X162030931Y-114036307D01*
X161806903Y-114129102D01*
X161605283Y-114263820D01*
X161433820Y-114435283D01*
X161299102Y-114636903D01*
X161206307Y-114860931D01*
X161159000Y-115098757D01*
X161159000Y-115341243D01*
X161206307Y-115579069D01*
X161299102Y-115803097D01*
X161433820Y-116004717D01*
X161605283Y-116176180D01*
X161806903Y-116310898D01*
X162030931Y-116403693D01*
X162268757Y-116451000D01*
X162511243Y-116451000D01*
X162749069Y-116403693D01*
X162973097Y-116310898D01*
X163174717Y-116176180D01*
X163346180Y-116004717D01*
X163373000Y-115964578D01*
X163373000Y-117015422D01*
X163346180Y-116975283D01*
X163174717Y-116803820D01*
X162973097Y-116669102D01*
X162749069Y-116576307D01*
X162511243Y-116529000D01*
X162268757Y-116529000D01*
X162030931Y-116576307D01*
X161806903Y-116669102D01*
X161605283Y-116803820D01*
X161433820Y-116975283D01*
X161299102Y-117176903D01*
X161206307Y-117400931D01*
X161159000Y-117638757D01*
X161159000Y-117881243D01*
X161206307Y-118119069D01*
X161299102Y-118343097D01*
X161433820Y-118544717D01*
X161605283Y-118716180D01*
X161806903Y-118850898D01*
X162030931Y-118943693D01*
X162268757Y-118991000D01*
X162511243Y-118991000D01*
X162749069Y-118943693D01*
X162973097Y-118850898D01*
X163174717Y-118716180D01*
X163346180Y-118544717D01*
X163373000Y-118504578D01*
X163373000Y-119373000D01*
X143627000Y-119373000D01*
X143627000Y-118504578D01*
X143653820Y-118544717D01*
X143825283Y-118716180D01*
X144026903Y-118850898D01*
X144250931Y-118943693D01*
X144488757Y-118991000D01*
X144731243Y-118991000D01*
X144969069Y-118943693D01*
X145193097Y-118850898D01*
X145394717Y-118716180D01*
X145566180Y-118544717D01*
X145700898Y-118343097D01*
X145793693Y-118119069D01*
X145841000Y-117881243D01*
X145841000Y-117638757D01*
X145793693Y-117400931D01*
X145761758Y-117323833D01*
X146280220Y-116805372D01*
X146299527Y-116789527D01*
X146362759Y-116712479D01*
X146409745Y-116624575D01*
X146438678Y-116529193D01*
X146446000Y-116454854D01*
X146446000Y-116454847D01*
X146448447Y-116430001D01*
X146446000Y-116405155D01*
X146446000Y-115949591D01*
X146814561Y-115581031D01*
X154252355Y-115581031D01*
X154277201Y-115583478D01*
X154302047Y-115581031D01*
X154302055Y-115581031D01*
X154376394Y-115573709D01*
X154471776Y-115544776D01*
X154559680Y-115497790D01*
X154636728Y-115434558D01*
X154652577Y-115415246D01*
X156993739Y-113074085D01*
X157013040Y-113058245D01*
X157028880Y-113038944D01*
X157028884Y-113038940D01*
X157076272Y-112981197D01*
X157123259Y-112893293D01*
X157152192Y-112797911D01*
X157161961Y-112698719D01*
X157159513Y-112673863D01*
X157159515Y-107374072D01*
X158142632Y-106390956D01*
X158144000Y-106404847D01*
X158144001Y-107291498D01*
X158043358Y-107392141D01*
X157957887Y-107520058D01*
X157899013Y-107662191D01*
X157869000Y-107813078D01*
X157869000Y-107966922D01*
X157899013Y-108117809D01*
X157957887Y-108259942D01*
X158043358Y-108387859D01*
X158152141Y-108496642D01*
X158280058Y-108582113D01*
X158422191Y-108640987D01*
X158573078Y-108671000D01*
X158726922Y-108671000D01*
X158877809Y-108640987D01*
X159019942Y-108582113D01*
X159147859Y-108496642D01*
X159256642Y-108387859D01*
X159342113Y-108259942D01*
X159400987Y-108117809D01*
X159431000Y-107966922D01*
X159431000Y-107813078D01*
X159400987Y-107662191D01*
X159342113Y-107520058D01*
X159256642Y-107392141D01*
X159156000Y-107291499D01*
X159156000Y-106589591D01*
X159279417Y-106466175D01*
X159768137Y-106466175D01*
X159792983Y-106468622D01*
X159817829Y-106466175D01*
X159817837Y-106466175D01*
X159892176Y-106458853D01*
X159987558Y-106429920D01*
X160075462Y-106382934D01*
X160152510Y-106319702D01*
X160168359Y-106300390D01*
X160510203Y-105958547D01*
X160529510Y-105942702D01*
X160592742Y-105865654D01*
X160639728Y-105777750D01*
X160668661Y-105682368D01*
X160675983Y-105608029D01*
X160678431Y-105583175D01*
X160675983Y-105558321D01*
X160675983Y-104912027D01*
X160678431Y-104887173D01*
X160668661Y-104787980D01*
X160639728Y-104692598D01*
X160633529Y-104681000D01*
X160592742Y-104604694D01*
X160529510Y-104527646D01*
X160510203Y-104511801D01*
X159966017Y-103967616D01*
X159966017Y-102468815D01*
X160066659Y-102368173D01*
X160152130Y-102240256D01*
X160211004Y-102098123D01*
X160241017Y-101947236D01*
X160241017Y-101793392D01*
X160211004Y-101642505D01*
X160152130Y-101500372D01*
X160066659Y-101372455D01*
X159957876Y-101263672D01*
X159829959Y-101178201D01*
X159687826Y-101119327D01*
X159536939Y-101089314D01*
X159383095Y-101089314D01*
X159232208Y-101119327D01*
X159090075Y-101178201D01*
X158962158Y-101263672D01*
X158853375Y-101372455D01*
X158822539Y-101418604D01*
X154219434Y-96815500D01*
X154219434Y-96673169D01*
X154190161Y-96526000D01*
X155605154Y-96526000D01*
X155630000Y-96528447D01*
X155654846Y-96526000D01*
X155654854Y-96526000D01*
X155729193Y-96518678D01*
X155794000Y-96499019D01*
X155794001Y-97675144D01*
X155791553Y-97700000D01*
X155801322Y-97799192D01*
X155830255Y-97894574D01*
X155852127Y-97935492D01*
X155877242Y-97982479D01*
X155940474Y-98059527D01*
X155959781Y-98075372D01*
X158144000Y-100259592D01*
X158144000Y-100401922D01*
X158174013Y-100552809D01*
X158232887Y-100694942D01*
X158318358Y-100822859D01*
X158427141Y-100931642D01*
X158555058Y-101017113D01*
X158697191Y-101075987D01*
X158848078Y-101106000D01*
X159001922Y-101106000D01*
X159152809Y-101075987D01*
X159294942Y-101017113D01*
X159422859Y-100931642D01*
X159531642Y-100822859D01*
X159617113Y-100694942D01*
X159675987Y-100552809D01*
X159706000Y-100401922D01*
X159706000Y-100248078D01*
X159675987Y-100097191D01*
X159617113Y-99955058D01*
X159531642Y-99827141D01*
X159422859Y-99718358D01*
X159294942Y-99632887D01*
X159152809Y-99574013D01*
X159001922Y-99544000D01*
X158859592Y-99544000D01*
X156806000Y-97490409D01*
X156806000Y-95428501D01*
X156906642Y-95327859D01*
X156992113Y-95199942D01*
X157050987Y-95057809D01*
X157081000Y-94906922D01*
X157081000Y-94753078D01*
X157050987Y-94602191D01*
X156992113Y-94460058D01*
X156931000Y-94368595D01*
X156931000Y-90670000D01*
X161157157Y-90670000D01*
X161164513Y-90744689D01*
X161186299Y-90816508D01*
X161221678Y-90882696D01*
X161269289Y-90940711D01*
X161327304Y-90988322D01*
X161393492Y-91023701D01*
X161465311Y-91045487D01*
X161540000Y-91052843D01*
X162294250Y-91051000D01*
X162389500Y-90955750D01*
X162389500Y-89820500D01*
X161254250Y-89820500D01*
X161159000Y-89915750D01*
X161157157Y-90670000D01*
X156931000Y-90670000D01*
X156931000Y-90561405D01*
X156992113Y-90469942D01*
X157050987Y-90327809D01*
X157081000Y-90176922D01*
X157081000Y-90023078D01*
X157050987Y-89872191D01*
X156992113Y-89730058D01*
X156906642Y-89602141D01*
X156797859Y-89493358D01*
X156669942Y-89407887D01*
X156527809Y-89349013D01*
X156376922Y-89319000D01*
X156223078Y-89319000D01*
X156072191Y-89349013D01*
X155930058Y-89407887D01*
X155802141Y-89493358D01*
X155693358Y-89602141D01*
X155607887Y-89730058D01*
X155549013Y-89872191D01*
X155519000Y-90023078D01*
X155519000Y-90176922D01*
X155549013Y-90327809D01*
X155607887Y-90469942D01*
X155669000Y-90561405D01*
X155669001Y-94368594D01*
X155607887Y-94460058D01*
X155549013Y-94602191D01*
X155519000Y-94753078D01*
X155519000Y-94906922D01*
X155549013Y-95057809D01*
X155607887Y-95199942D01*
X155658587Y-95275821D01*
X155420409Y-95514000D01*
X152931852Y-95514000D01*
X152906998Y-95511552D01*
X152882144Y-95514000D01*
X152807805Y-95521322D01*
X152712423Y-95550255D01*
X152624519Y-95597241D01*
X152547471Y-95660473D01*
X152531627Y-95679779D01*
X148030989Y-100180418D01*
X148030989Y-99465980D01*
X148091950Y-99465980D01*
X148242837Y-99435967D01*
X148384970Y-99377093D01*
X148512887Y-99291622D01*
X148621670Y-99182839D01*
X148707141Y-99054922D01*
X148766015Y-98912789D01*
X148796028Y-98761902D01*
X148796028Y-98608058D01*
X148766015Y-98457171D01*
X148707141Y-98315038D01*
X148621670Y-98187121D01*
X148512887Y-98078338D01*
X148384970Y-97992867D01*
X148242837Y-97933993D01*
X148091950Y-97903980D01*
X147938106Y-97903980D01*
X147787219Y-97933993D01*
X147645086Y-97992867D01*
X147580979Y-98035702D01*
X147580979Y-96214612D01*
X148034592Y-95761000D01*
X148176922Y-95761000D01*
X148327809Y-95730987D01*
X148469942Y-95672113D01*
X148597859Y-95586642D01*
X148669001Y-95515500D01*
X148669000Y-96481499D01*
X148568358Y-96582141D01*
X148482887Y-96710058D01*
X148424013Y-96852191D01*
X148394000Y-97003078D01*
X148394000Y-97156922D01*
X148424013Y-97307809D01*
X148482887Y-97449942D01*
X148568358Y-97577859D01*
X148677141Y-97686642D01*
X148805058Y-97772113D01*
X148947191Y-97830987D01*
X149098078Y-97861000D01*
X149251922Y-97861000D01*
X149402809Y-97830987D01*
X149544942Y-97772113D01*
X149672859Y-97686642D01*
X149781642Y-97577859D01*
X149867113Y-97449942D01*
X149925987Y-97307809D01*
X149956000Y-97156922D01*
X149956000Y-97003078D01*
X149925987Y-96852191D01*
X149867113Y-96710058D01*
X149781642Y-96582141D01*
X149681000Y-96481499D01*
X149681000Y-94919845D01*
X149683447Y-94894999D01*
X149681000Y-94870153D01*
X149681000Y-94870146D01*
X149673678Y-94795807D01*
X149644745Y-94700425D01*
X149597759Y-94612521D01*
X149534527Y-94535473D01*
X149515220Y-94519628D01*
X147516000Y-92520409D01*
X147516000Y-91253078D01*
X150919000Y-91253078D01*
X150919000Y-91406922D01*
X150949013Y-91557809D01*
X151007887Y-91699942D01*
X151093358Y-91827859D01*
X151202141Y-91936642D01*
X151330058Y-92022113D01*
X151472191Y-92080987D01*
X151623078Y-92111000D01*
X151776922Y-92111000D01*
X151927809Y-92080987D01*
X152069942Y-92022113D01*
X152197859Y-91936642D01*
X152306642Y-91827859D01*
X152392113Y-91699942D01*
X152450987Y-91557809D01*
X152481000Y-91406922D01*
X152481000Y-91253078D01*
X152479011Y-91243078D01*
X152719000Y-91243078D01*
X152719000Y-91396922D01*
X152749013Y-91547809D01*
X152807887Y-91689942D01*
X152893358Y-91817859D01*
X153002141Y-91926642D01*
X153130058Y-92012113D01*
X153272191Y-92070987D01*
X153423078Y-92101000D01*
X153576922Y-92101000D01*
X153727809Y-92070987D01*
X153869942Y-92012113D01*
X153997859Y-91926642D01*
X154106642Y-91817859D01*
X154192113Y-91689942D01*
X154250987Y-91547809D01*
X154281000Y-91396922D01*
X154281000Y-91243078D01*
X154250987Y-91092191D01*
X154192113Y-90950058D01*
X154106642Y-90822141D01*
X154006000Y-90721499D01*
X154006000Y-88970000D01*
X161157157Y-88970000D01*
X161159000Y-89724250D01*
X161254250Y-89819500D01*
X162389500Y-89819500D01*
X162389500Y-88684250D01*
X162294250Y-88589000D01*
X161540000Y-88587157D01*
X161465311Y-88594513D01*
X161393492Y-88616299D01*
X161327304Y-88651678D01*
X161269289Y-88699289D01*
X161221678Y-88757304D01*
X161186299Y-88823492D01*
X161164513Y-88895311D01*
X161157157Y-88970000D01*
X154006000Y-88970000D01*
X154006000Y-84309591D01*
X154794592Y-83521000D01*
X154936922Y-83521000D01*
X155087809Y-83490987D01*
X155229942Y-83432113D01*
X155357859Y-83346642D01*
X155466642Y-83237859D01*
X155552113Y-83109942D01*
X155610987Y-82967809D01*
X155641000Y-82816922D01*
X155641000Y-82663078D01*
X155610987Y-82512191D01*
X155552113Y-82370058D01*
X155466642Y-82242141D01*
X155357859Y-82133358D01*
X155229942Y-82047887D01*
X155087809Y-81989013D01*
X154936922Y-81959000D01*
X154783078Y-81959000D01*
X154632191Y-81989013D01*
X154490058Y-82047887D01*
X154362141Y-82133358D01*
X154253358Y-82242141D01*
X154167887Y-82370058D01*
X154109013Y-82512191D01*
X154079000Y-82663078D01*
X154079000Y-82805408D01*
X153159780Y-83724629D01*
X153140474Y-83740473D01*
X153077242Y-83817521D01*
X153052127Y-83864508D01*
X153030255Y-83905426D01*
X153001322Y-84000808D01*
X152991553Y-84100000D01*
X152994001Y-84124856D01*
X152994000Y-90721499D01*
X152893358Y-90822141D01*
X152807887Y-90950058D01*
X152749013Y-91092191D01*
X152719000Y-91243078D01*
X152479011Y-91243078D01*
X152450987Y-91102191D01*
X152392113Y-90960058D01*
X152306642Y-90832141D01*
X152206000Y-90731499D01*
X152206000Y-83521000D01*
X152346922Y-83521000D01*
X152497809Y-83490987D01*
X152639942Y-83432113D01*
X152767859Y-83346642D01*
X152876642Y-83237859D01*
X152962113Y-83109942D01*
X153020987Y-82967809D01*
X153051000Y-82816922D01*
X153051000Y-82663078D01*
X153020987Y-82512191D01*
X152962113Y-82370058D01*
X152876642Y-82242141D01*
X152767859Y-82133358D01*
X152639942Y-82047887D01*
X152497809Y-81989013D01*
X152346922Y-81959000D01*
X152193078Y-81959000D01*
X152042191Y-81989013D01*
X151900058Y-82047887D01*
X151772141Y-82133358D01*
X151663358Y-82242141D01*
X151577887Y-82370058D01*
X151519013Y-82512191D01*
X151489000Y-82663078D01*
X151489000Y-82805409D01*
X151359780Y-82934629D01*
X151340474Y-82950473D01*
X151277242Y-83027521D01*
X151252127Y-83074508D01*
X151230255Y-83115426D01*
X151201322Y-83210808D01*
X151191553Y-83310000D01*
X151194001Y-83334856D01*
X151194000Y-90731499D01*
X151093358Y-90832141D01*
X151007887Y-90960058D01*
X150949013Y-91102191D01*
X150919000Y-91253078D01*
X147516000Y-91253078D01*
X147516000Y-82589591D01*
X148134592Y-81971000D01*
X148276922Y-81971000D01*
X148427809Y-81940987D01*
X148569942Y-81882113D01*
X148697859Y-81796642D01*
X148806642Y-81687859D01*
X148892113Y-81559942D01*
X148950987Y-81417809D01*
X148981000Y-81266922D01*
X148981000Y-81113078D01*
X148952739Y-80970999D01*
X161325408Y-80970999D01*
X161884000Y-81529592D01*
%TA.AperFunction,Conductor*%
D18*
G36*
X161884000Y-81529592D02*
G01*
X161884001Y-83617167D01*
X161806903Y-83649102D01*
X161605283Y-83783820D01*
X161433820Y-83955283D01*
X161299102Y-84156903D01*
X161206307Y-84380931D01*
X161159000Y-84618757D01*
X161159000Y-84861243D01*
X161206307Y-85099069D01*
X161299102Y-85323097D01*
X161433820Y-85524717D01*
X161605283Y-85696180D01*
X161806903Y-85830898D01*
X162030931Y-85923693D01*
X162268757Y-85971000D01*
X162511243Y-85971000D01*
X162749069Y-85923693D01*
X162973097Y-85830898D01*
X163174717Y-85696180D01*
X163346180Y-85524717D01*
X163373000Y-85484578D01*
X163373000Y-86535422D01*
X163346180Y-86495283D01*
X163174717Y-86323820D01*
X162973097Y-86189102D01*
X162749069Y-86096307D01*
X162511243Y-86049000D01*
X162268757Y-86049000D01*
X162030931Y-86096307D01*
X161806903Y-86189102D01*
X161605283Y-86323820D01*
X161433820Y-86495283D01*
X161299102Y-86696903D01*
X161206307Y-86920931D01*
X161159000Y-87158757D01*
X161159000Y-87401243D01*
X161206307Y-87639069D01*
X161299102Y-87863097D01*
X161433820Y-88064717D01*
X161605283Y-88236180D01*
X161806903Y-88370898D01*
X162030931Y-88463693D01*
X162268757Y-88511000D01*
X162511243Y-88511000D01*
X162749069Y-88463693D01*
X162973097Y-88370898D01*
X163174717Y-88236180D01*
X163346180Y-88064717D01*
X163373000Y-88024578D01*
X163373000Y-88612201D01*
X163314689Y-88594513D01*
X163240000Y-88587157D01*
X162485750Y-88589000D01*
X162390500Y-88684250D01*
X162390500Y-89819500D01*
X162410500Y-89819500D01*
X162410500Y-89820500D01*
X162390500Y-89820500D01*
X162390500Y-90955750D01*
X162485750Y-91051000D01*
X163240000Y-91052843D01*
X163314689Y-91045487D01*
X163373000Y-91027799D01*
X163373000Y-91615422D01*
X163346180Y-91575283D01*
X163174717Y-91403820D01*
X162973097Y-91269102D01*
X162749069Y-91176307D01*
X162511243Y-91129000D01*
X162268757Y-91129000D01*
X162030931Y-91176307D01*
X161806903Y-91269102D01*
X161605283Y-91403820D01*
X161433820Y-91575283D01*
X161299102Y-91776903D01*
X161206307Y-92000931D01*
X161159000Y-92238757D01*
X161159000Y-92481243D01*
X161206307Y-92719069D01*
X161299102Y-92943097D01*
X161433820Y-93144717D01*
X161605283Y-93316180D01*
X161806903Y-93450898D01*
X162030931Y-93543693D01*
X162268757Y-93591000D01*
X162511243Y-93591000D01*
X162749069Y-93543693D01*
X162973097Y-93450898D01*
X163174717Y-93316180D01*
X163346180Y-93144717D01*
X163373000Y-93104578D01*
X163373000Y-94155422D01*
X163346180Y-94115283D01*
X163174717Y-93943820D01*
X162973097Y-93809102D01*
X162749069Y-93716307D01*
X162511243Y-93669000D01*
X162268757Y-93669000D01*
X162030931Y-93716307D01*
X161806903Y-93809102D01*
X161605283Y-93943820D01*
X161433820Y-94115283D01*
X161299102Y-94316903D01*
X161206307Y-94540931D01*
X161159000Y-94778757D01*
X161159000Y-95021243D01*
X161206307Y-95259069D01*
X161299102Y-95483097D01*
X161433820Y-95684717D01*
X161605283Y-95856180D01*
X161806903Y-95990898D01*
X162030931Y-96083693D01*
X162268757Y-96131000D01*
X162511243Y-96131000D01*
X162749069Y-96083693D01*
X162973097Y-95990898D01*
X163174717Y-95856180D01*
X163346180Y-95684717D01*
X163373000Y-95644578D01*
X163373000Y-96695422D01*
X163346180Y-96655283D01*
X163174717Y-96483820D01*
X162973097Y-96349102D01*
X162749069Y-96256307D01*
X162511243Y-96209000D01*
X162268757Y-96209000D01*
X162030931Y-96256307D01*
X161806903Y-96349102D01*
X161605283Y-96483820D01*
X161433820Y-96655283D01*
X161299102Y-96856903D01*
X161206307Y-97080931D01*
X161159000Y-97318757D01*
X161159000Y-97561243D01*
X161206307Y-97799069D01*
X161299102Y-98023097D01*
X161433820Y-98224717D01*
X161605283Y-98396180D01*
X161806903Y-98530898D01*
X162030931Y-98623693D01*
X162268757Y-98671000D01*
X162511243Y-98671000D01*
X162749069Y-98623693D01*
X162973097Y-98530898D01*
X163174717Y-98396180D01*
X163346180Y-98224717D01*
X163373000Y-98184578D01*
X163373000Y-99235422D01*
X163346180Y-99195283D01*
X163174717Y-99023820D01*
X162973097Y-98889102D01*
X162749069Y-98796307D01*
X162511243Y-98749000D01*
X162268757Y-98749000D01*
X162030931Y-98796307D01*
X161806903Y-98889102D01*
X161605283Y-99023820D01*
X161433820Y-99195283D01*
X161299102Y-99396903D01*
X161206307Y-99620931D01*
X161159000Y-99858757D01*
X161159000Y-100101243D01*
X161206307Y-100339069D01*
X161299102Y-100563097D01*
X161433820Y-100764717D01*
X161605283Y-100936180D01*
X161806903Y-101070898D01*
X162030931Y-101163693D01*
X162268757Y-101211000D01*
X162511243Y-101211000D01*
X162749069Y-101163693D01*
X162973097Y-101070898D01*
X163174717Y-100936180D01*
X163346180Y-100764717D01*
X163373000Y-100724578D01*
X163373000Y-101775422D01*
X163346180Y-101735283D01*
X163174717Y-101563820D01*
X162973097Y-101429102D01*
X162749069Y-101336307D01*
X162511243Y-101289000D01*
X162268757Y-101289000D01*
X162030931Y-101336307D01*
X161806903Y-101429102D01*
X161605283Y-101563820D01*
X161433820Y-101735283D01*
X161299102Y-101936903D01*
X161206307Y-102160931D01*
X161159000Y-102398757D01*
X161159000Y-102641243D01*
X161206307Y-102879069D01*
X161299102Y-103103097D01*
X161433820Y-103304717D01*
X161605283Y-103476180D01*
X161806903Y-103610898D01*
X162030931Y-103703693D01*
X162268757Y-103751000D01*
X162511243Y-103751000D01*
X162749069Y-103703693D01*
X162973097Y-103610898D01*
X163174717Y-103476180D01*
X163346180Y-103304717D01*
X163373000Y-103264578D01*
X163373000Y-104315422D01*
X163346180Y-104275283D01*
X163174717Y-104103820D01*
X162973097Y-103969102D01*
X162749069Y-103876307D01*
X162511243Y-103829000D01*
X162268757Y-103829000D01*
X162030931Y-103876307D01*
X161806903Y-103969102D01*
X161605283Y-104103820D01*
X161433820Y-104275283D01*
X161299102Y-104476903D01*
X161206307Y-104700931D01*
X161159000Y-104938757D01*
X161159000Y-105181243D01*
X161206307Y-105419069D01*
X161299102Y-105643097D01*
X161433820Y-105844717D01*
X161605283Y-106016180D01*
X161806903Y-106150898D01*
X162030931Y-106243693D01*
X162268757Y-106291000D01*
X162511243Y-106291000D01*
X162749069Y-106243693D01*
X162973097Y-106150898D01*
X163174717Y-106016180D01*
X163346180Y-105844717D01*
X163373000Y-105804578D01*
X163373000Y-106855422D01*
X163346180Y-106815283D01*
X163174717Y-106643820D01*
X162973097Y-106509102D01*
X162749069Y-106416307D01*
X162511243Y-106369000D01*
X162268757Y-106369000D01*
X162030931Y-106416307D01*
X161806903Y-106509102D01*
X161605283Y-106643820D01*
X161433820Y-106815283D01*
X161299102Y-107016903D01*
X161206307Y-107240931D01*
X161159000Y-107478757D01*
X161159000Y-107721243D01*
X161206307Y-107959069D01*
X161238242Y-108036167D01*
X160365410Y-108908999D01*
X159571843Y-108908999D01*
X159546989Y-108906551D01*
X159522135Y-108908999D01*
X159447796Y-108916321D01*
X159352414Y-108945254D01*
X159264510Y-108992240D01*
X159187462Y-109055472D01*
X159171618Y-109074778D01*
X158829774Y-109416623D01*
X158810462Y-109432472D01*
X158747230Y-109509520D01*
X158700244Y-109597425D01*
X158671311Y-109692807D01*
X158663989Y-109767146D01*
X158663989Y-109767153D01*
X158661542Y-109791999D01*
X158663989Y-109816845D01*
X158663990Y-112401509D01*
X158563358Y-112502141D01*
X158477887Y-112630058D01*
X158419013Y-112772191D01*
X158389000Y-112923078D01*
X158389000Y-113076922D01*
X158419013Y-113227809D01*
X158477887Y-113369942D01*
X158563358Y-113497859D01*
X158672141Y-113606642D01*
X158800058Y-113692113D01*
X158942191Y-113750987D01*
X159093078Y-113781000D01*
X159246922Y-113781000D01*
X159397809Y-113750987D01*
X159539942Y-113692113D01*
X159667859Y-113606642D01*
X159776642Y-113497859D01*
X159862113Y-113369942D01*
X159920987Y-113227809D01*
X159951000Y-113076922D01*
X159951000Y-112923078D01*
X159920987Y-112772191D01*
X159862113Y-112630058D01*
X159792531Y-112525920D01*
X159818068Y-112531000D01*
X159971912Y-112531000D01*
X160122799Y-112500987D01*
X160264932Y-112442113D01*
X160392849Y-112356642D01*
X160493491Y-112256000D01*
X161233202Y-112256000D01*
X161206307Y-112320931D01*
X161159000Y-112558757D01*
X161159000Y-112801243D01*
X161206307Y-113039069D01*
X161299102Y-113263097D01*
X161433820Y-113464717D01*
X161605283Y-113636180D01*
X161806903Y-113770898D01*
X162030931Y-113863693D01*
X162268757Y-113911000D01*
X162511243Y-113911000D01*
X162749069Y-113863693D01*
X162973097Y-113770898D01*
X163174717Y-113636180D01*
X163346180Y-113464717D01*
X163373000Y-113424578D01*
X163373000Y-114475422D01*
X163346180Y-114435283D01*
X163174717Y-114263820D01*
X162973097Y-114129102D01*
X162749069Y-114036307D01*
X162511243Y-113989000D01*
X162268757Y-113989000D01*
X162030931Y-114036307D01*
X161806903Y-114129102D01*
X161605283Y-114263820D01*
X161433820Y-114435283D01*
X161299102Y-114636903D01*
X161206307Y-114860931D01*
X161159000Y-115098757D01*
X161159000Y-115341243D01*
X161206307Y-115579069D01*
X161299102Y-115803097D01*
X161433820Y-116004717D01*
X161605283Y-116176180D01*
X161806903Y-116310898D01*
X162030931Y-116403693D01*
X162268757Y-116451000D01*
X162511243Y-116451000D01*
X162749069Y-116403693D01*
X162973097Y-116310898D01*
X163174717Y-116176180D01*
X163346180Y-116004717D01*
X163373000Y-115964578D01*
X163373000Y-117015422D01*
X163346180Y-116975283D01*
X163174717Y-116803820D01*
X162973097Y-116669102D01*
X162749069Y-116576307D01*
X162511243Y-116529000D01*
X162268757Y-116529000D01*
X162030931Y-116576307D01*
X161806903Y-116669102D01*
X161605283Y-116803820D01*
X161433820Y-116975283D01*
X161299102Y-117176903D01*
X161206307Y-117400931D01*
X161159000Y-117638757D01*
X161159000Y-117881243D01*
X161206307Y-118119069D01*
X161299102Y-118343097D01*
X161433820Y-118544717D01*
X161605283Y-118716180D01*
X161806903Y-118850898D01*
X162030931Y-118943693D01*
X162268757Y-118991000D01*
X162511243Y-118991000D01*
X162749069Y-118943693D01*
X162973097Y-118850898D01*
X163174717Y-118716180D01*
X163346180Y-118544717D01*
X163373000Y-118504578D01*
X163373000Y-119373000D01*
X143627000Y-119373000D01*
X143627000Y-118504578D01*
X143653820Y-118544717D01*
X143825283Y-118716180D01*
X144026903Y-118850898D01*
X144250931Y-118943693D01*
X144488757Y-118991000D01*
X144731243Y-118991000D01*
X144969069Y-118943693D01*
X145193097Y-118850898D01*
X145394717Y-118716180D01*
X145566180Y-118544717D01*
X145700898Y-118343097D01*
X145793693Y-118119069D01*
X145841000Y-117881243D01*
X145841000Y-117638757D01*
X145793693Y-117400931D01*
X145761758Y-117323833D01*
X146280220Y-116805372D01*
X146299527Y-116789527D01*
X146362759Y-116712479D01*
X146409745Y-116624575D01*
X146438678Y-116529193D01*
X146446000Y-116454854D01*
X146446000Y-116454847D01*
X146448447Y-116430001D01*
X146446000Y-116405155D01*
X146446000Y-115949591D01*
X146814561Y-115581031D01*
X154252355Y-115581031D01*
X154277201Y-115583478D01*
X154302047Y-115581031D01*
X154302055Y-115581031D01*
X154376394Y-115573709D01*
X154471776Y-115544776D01*
X154559680Y-115497790D01*
X154636728Y-115434558D01*
X154652577Y-115415246D01*
X156993739Y-113074085D01*
X157013040Y-113058245D01*
X157028880Y-113038944D01*
X157028884Y-113038940D01*
X157076272Y-112981197D01*
X157123259Y-112893293D01*
X157152192Y-112797911D01*
X157161961Y-112698719D01*
X157159513Y-112673863D01*
X157159515Y-107374072D01*
X158142632Y-106390956D01*
X158144000Y-106404847D01*
X158144001Y-107291498D01*
X158043358Y-107392141D01*
X157957887Y-107520058D01*
X157899013Y-107662191D01*
X157869000Y-107813078D01*
X157869000Y-107966922D01*
X157899013Y-108117809D01*
X157957887Y-108259942D01*
X158043358Y-108387859D01*
X158152141Y-108496642D01*
X158280058Y-108582113D01*
X158422191Y-108640987D01*
X158573078Y-108671000D01*
X158726922Y-108671000D01*
X158877809Y-108640987D01*
X159019942Y-108582113D01*
X159147859Y-108496642D01*
X159256642Y-108387859D01*
X159342113Y-108259942D01*
X159400987Y-108117809D01*
X159431000Y-107966922D01*
X159431000Y-107813078D01*
X159400987Y-107662191D01*
X159342113Y-107520058D01*
X159256642Y-107392141D01*
X159156000Y-107291499D01*
X159156000Y-106589591D01*
X159279417Y-106466175D01*
X159768137Y-106466175D01*
X159792983Y-106468622D01*
X159817829Y-106466175D01*
X159817837Y-106466175D01*
X159892176Y-106458853D01*
X159987558Y-106429920D01*
X160075462Y-106382934D01*
X160152510Y-106319702D01*
X160168359Y-106300390D01*
X160510203Y-105958547D01*
X160529510Y-105942702D01*
X160592742Y-105865654D01*
X160639728Y-105777750D01*
X160668661Y-105682368D01*
X160675983Y-105608029D01*
X160678431Y-105583175D01*
X160675983Y-105558321D01*
X160675983Y-104912027D01*
X160678431Y-104887173D01*
X160668661Y-104787980D01*
X160639728Y-104692598D01*
X160633529Y-104681000D01*
X160592742Y-104604694D01*
X160529510Y-104527646D01*
X160510203Y-104511801D01*
X159966017Y-103967616D01*
X159966017Y-102468815D01*
X160066659Y-102368173D01*
X160152130Y-102240256D01*
X160211004Y-102098123D01*
X160241017Y-101947236D01*
X160241017Y-101793392D01*
X160211004Y-101642505D01*
X160152130Y-101500372D01*
X160066659Y-101372455D01*
X159957876Y-101263672D01*
X159829959Y-101178201D01*
X159687826Y-101119327D01*
X159536939Y-101089314D01*
X159383095Y-101089314D01*
X159232208Y-101119327D01*
X159090075Y-101178201D01*
X158962158Y-101263672D01*
X158853375Y-101372455D01*
X158822539Y-101418604D01*
X154219434Y-96815500D01*
X154219434Y-96673169D01*
X154190161Y-96526000D01*
X155605154Y-96526000D01*
X155630000Y-96528447D01*
X155654846Y-96526000D01*
X155654854Y-96526000D01*
X155729193Y-96518678D01*
X155794000Y-96499019D01*
X155794001Y-97675144D01*
X155791553Y-97700000D01*
X155801322Y-97799192D01*
X155830255Y-97894574D01*
X155852127Y-97935492D01*
X155877242Y-97982479D01*
X155940474Y-98059527D01*
X155959781Y-98075372D01*
X158144000Y-100259592D01*
X158144000Y-100401922D01*
X158174013Y-100552809D01*
X158232887Y-100694942D01*
X158318358Y-100822859D01*
X158427141Y-100931642D01*
X158555058Y-101017113D01*
X158697191Y-101075987D01*
X158848078Y-101106000D01*
X159001922Y-101106000D01*
X159152809Y-101075987D01*
X159294942Y-101017113D01*
X159422859Y-100931642D01*
X159531642Y-100822859D01*
X159617113Y-100694942D01*
X159675987Y-100552809D01*
X159706000Y-100401922D01*
X159706000Y-100248078D01*
X159675987Y-100097191D01*
X159617113Y-99955058D01*
X159531642Y-99827141D01*
X159422859Y-99718358D01*
X159294942Y-99632887D01*
X159152809Y-99574013D01*
X159001922Y-99544000D01*
X158859592Y-99544000D01*
X156806000Y-97490409D01*
X156806000Y-95428501D01*
X156906642Y-95327859D01*
X156992113Y-95199942D01*
X157050987Y-95057809D01*
X157081000Y-94906922D01*
X157081000Y-94753078D01*
X157050987Y-94602191D01*
X156992113Y-94460058D01*
X156931000Y-94368595D01*
X156931000Y-90670000D01*
X161157157Y-90670000D01*
X161164513Y-90744689D01*
X161186299Y-90816508D01*
X161221678Y-90882696D01*
X161269289Y-90940711D01*
X161327304Y-90988322D01*
X161393492Y-91023701D01*
X161465311Y-91045487D01*
X161540000Y-91052843D01*
X162294250Y-91051000D01*
X162389500Y-90955750D01*
X162389500Y-89820500D01*
X161254250Y-89820500D01*
X161159000Y-89915750D01*
X161157157Y-90670000D01*
X156931000Y-90670000D01*
X156931000Y-90561405D01*
X156992113Y-90469942D01*
X157050987Y-90327809D01*
X157081000Y-90176922D01*
X157081000Y-90023078D01*
X157050987Y-89872191D01*
X156992113Y-89730058D01*
X156906642Y-89602141D01*
X156797859Y-89493358D01*
X156669942Y-89407887D01*
X156527809Y-89349013D01*
X156376922Y-89319000D01*
X156223078Y-89319000D01*
X156072191Y-89349013D01*
X155930058Y-89407887D01*
X155802141Y-89493358D01*
X155693358Y-89602141D01*
X155607887Y-89730058D01*
X155549013Y-89872191D01*
X155519000Y-90023078D01*
X155519000Y-90176922D01*
X155549013Y-90327809D01*
X155607887Y-90469942D01*
X155669000Y-90561405D01*
X155669001Y-94368594D01*
X155607887Y-94460058D01*
X155549013Y-94602191D01*
X155519000Y-94753078D01*
X155519000Y-94906922D01*
X155549013Y-95057809D01*
X155607887Y-95199942D01*
X155658587Y-95275821D01*
X155420409Y-95514000D01*
X152931852Y-95514000D01*
X152906998Y-95511552D01*
X152882144Y-95514000D01*
X152807805Y-95521322D01*
X152712423Y-95550255D01*
X152624519Y-95597241D01*
X152547471Y-95660473D01*
X152531627Y-95679779D01*
X148030989Y-100180418D01*
X148030989Y-99465980D01*
X148091950Y-99465980D01*
X148242837Y-99435967D01*
X148384970Y-99377093D01*
X148512887Y-99291622D01*
X148621670Y-99182839D01*
X148707141Y-99054922D01*
X148766015Y-98912789D01*
X148796028Y-98761902D01*
X148796028Y-98608058D01*
X148766015Y-98457171D01*
X148707141Y-98315038D01*
X148621670Y-98187121D01*
X148512887Y-98078338D01*
X148384970Y-97992867D01*
X148242837Y-97933993D01*
X148091950Y-97903980D01*
X147938106Y-97903980D01*
X147787219Y-97933993D01*
X147645086Y-97992867D01*
X147580979Y-98035702D01*
X147580979Y-96214612D01*
X148034592Y-95761000D01*
X148176922Y-95761000D01*
X148327809Y-95730987D01*
X148469942Y-95672113D01*
X148597859Y-95586642D01*
X148669001Y-95515500D01*
X148669000Y-96481499D01*
X148568358Y-96582141D01*
X148482887Y-96710058D01*
X148424013Y-96852191D01*
X148394000Y-97003078D01*
X148394000Y-97156922D01*
X148424013Y-97307809D01*
X148482887Y-97449942D01*
X148568358Y-97577859D01*
X148677141Y-97686642D01*
X148805058Y-97772113D01*
X148947191Y-97830987D01*
X149098078Y-97861000D01*
X149251922Y-97861000D01*
X149402809Y-97830987D01*
X149544942Y-97772113D01*
X149672859Y-97686642D01*
X149781642Y-97577859D01*
X149867113Y-97449942D01*
X149925987Y-97307809D01*
X149956000Y-97156922D01*
X149956000Y-97003078D01*
X149925987Y-96852191D01*
X149867113Y-96710058D01*
X149781642Y-96582141D01*
X149681000Y-96481499D01*
X149681000Y-94919845D01*
X149683447Y-94894999D01*
X149681000Y-94870153D01*
X149681000Y-94870146D01*
X149673678Y-94795807D01*
X149644745Y-94700425D01*
X149597759Y-94612521D01*
X149534527Y-94535473D01*
X149515220Y-94519628D01*
X147516000Y-92520409D01*
X147516000Y-91253078D01*
X150919000Y-91253078D01*
X150919000Y-91406922D01*
X150949013Y-91557809D01*
X151007887Y-91699942D01*
X151093358Y-91827859D01*
X151202141Y-91936642D01*
X151330058Y-92022113D01*
X151472191Y-92080987D01*
X151623078Y-92111000D01*
X151776922Y-92111000D01*
X151927809Y-92080987D01*
X152069942Y-92022113D01*
X152197859Y-91936642D01*
X152306642Y-91827859D01*
X152392113Y-91699942D01*
X152450987Y-91557809D01*
X152481000Y-91406922D01*
X152481000Y-91253078D01*
X152479011Y-91243078D01*
X152719000Y-91243078D01*
X152719000Y-91396922D01*
X152749013Y-91547809D01*
X152807887Y-91689942D01*
X152893358Y-91817859D01*
X153002141Y-91926642D01*
X153130058Y-92012113D01*
X153272191Y-92070987D01*
X153423078Y-92101000D01*
X153576922Y-92101000D01*
X153727809Y-92070987D01*
X153869942Y-92012113D01*
X153997859Y-91926642D01*
X154106642Y-91817859D01*
X154192113Y-91689942D01*
X154250987Y-91547809D01*
X154281000Y-91396922D01*
X154281000Y-91243078D01*
X154250987Y-91092191D01*
X154192113Y-90950058D01*
X154106642Y-90822141D01*
X154006000Y-90721499D01*
X154006000Y-88970000D01*
X161157157Y-88970000D01*
X161159000Y-89724250D01*
X161254250Y-89819500D01*
X162389500Y-89819500D01*
X162389500Y-88684250D01*
X162294250Y-88589000D01*
X161540000Y-88587157D01*
X161465311Y-88594513D01*
X161393492Y-88616299D01*
X161327304Y-88651678D01*
X161269289Y-88699289D01*
X161221678Y-88757304D01*
X161186299Y-88823492D01*
X161164513Y-88895311D01*
X161157157Y-88970000D01*
X154006000Y-88970000D01*
X154006000Y-84309591D01*
X154794592Y-83521000D01*
X154936922Y-83521000D01*
X155087809Y-83490987D01*
X155229942Y-83432113D01*
X155357859Y-83346642D01*
X155466642Y-83237859D01*
X155552113Y-83109942D01*
X155610987Y-82967809D01*
X155641000Y-82816922D01*
X155641000Y-82663078D01*
X155610987Y-82512191D01*
X155552113Y-82370058D01*
X155466642Y-82242141D01*
X155357859Y-82133358D01*
X155229942Y-82047887D01*
X155087809Y-81989013D01*
X154936922Y-81959000D01*
X154783078Y-81959000D01*
X154632191Y-81989013D01*
X154490058Y-82047887D01*
X154362141Y-82133358D01*
X154253358Y-82242141D01*
X154167887Y-82370058D01*
X154109013Y-82512191D01*
X154079000Y-82663078D01*
X154079000Y-82805408D01*
X153159780Y-83724629D01*
X153140474Y-83740473D01*
X153077242Y-83817521D01*
X153052127Y-83864508D01*
X153030255Y-83905426D01*
X153001322Y-84000808D01*
X152991553Y-84100000D01*
X152994001Y-84124856D01*
X152994000Y-90721499D01*
X152893358Y-90822141D01*
X152807887Y-90950058D01*
X152749013Y-91092191D01*
X152719000Y-91243078D01*
X152479011Y-91243078D01*
X152450987Y-91102191D01*
X152392113Y-90960058D01*
X152306642Y-90832141D01*
X152206000Y-90731499D01*
X152206000Y-83521000D01*
X152346922Y-83521000D01*
X152497809Y-83490987D01*
X152639942Y-83432113D01*
X152767859Y-83346642D01*
X152876642Y-83237859D01*
X152962113Y-83109942D01*
X153020987Y-82967809D01*
X153051000Y-82816922D01*
X153051000Y-82663078D01*
X153020987Y-82512191D01*
X152962113Y-82370058D01*
X152876642Y-82242141D01*
X152767859Y-82133358D01*
X152639942Y-82047887D01*
X152497809Y-81989013D01*
X152346922Y-81959000D01*
X152193078Y-81959000D01*
X152042191Y-81989013D01*
X151900058Y-82047887D01*
X151772141Y-82133358D01*
X151663358Y-82242141D01*
X151577887Y-82370058D01*
X151519013Y-82512191D01*
X151489000Y-82663078D01*
X151489000Y-82805409D01*
X151359780Y-82934629D01*
X151340474Y-82950473D01*
X151277242Y-83027521D01*
X151252127Y-83074508D01*
X151230255Y-83115426D01*
X151201322Y-83210808D01*
X151191553Y-83310000D01*
X151194001Y-83334856D01*
X151194000Y-90731499D01*
X151093358Y-90832141D01*
X151007887Y-90960058D01*
X150949013Y-91102191D01*
X150919000Y-91253078D01*
X147516000Y-91253078D01*
X147516000Y-82589591D01*
X148134592Y-81971000D01*
X148276922Y-81971000D01*
X148427809Y-81940987D01*
X148569942Y-81882113D01*
X148697859Y-81796642D01*
X148806642Y-81687859D01*
X148892113Y-81559942D01*
X148950987Y-81417809D01*
X148981000Y-81266922D01*
X148981000Y-81113078D01*
X148952739Y-80970999D01*
X161325408Y-80970999D01*
X161884000Y-81529592D01*
G37*
%TD.AperFunction*%
D17*
X152922578Y-106004000D02*
X152776563Y-106004000D01*
X152625676Y-106034013D01*
X152483543Y-106092887D01*
X152355626Y-106178358D01*
X152246843Y-106287141D01*
X152161372Y-106415058D01*
X152102498Y-106557191D01*
X152072485Y-106708078D01*
X152072485Y-106861922D01*
X152102498Y-107012809D01*
X152161372Y-107154942D01*
X152246843Y-107282859D01*
X152355626Y-107391642D01*
X152464001Y-107464055D01*
X152464000Y-112401499D01*
X152363358Y-112502141D01*
X152277887Y-112630058D01*
X152219013Y-112772191D01*
X152189000Y-112923078D01*
X152189000Y-113076922D01*
X152217261Y-113219001D01*
X148164532Y-113219001D01*
X148257859Y-113156642D01*
X148366642Y-113047859D01*
X148452113Y-112919942D01*
X148510987Y-112777809D01*
X148541000Y-112626922D01*
X148541000Y-112484592D01*
X148895231Y-112130361D01*
X148914538Y-112114516D01*
X148977770Y-112037468D01*
X149024756Y-111949564D01*
X149053689Y-111854182D01*
X149054181Y-111849192D01*
X149057305Y-111817469D01*
X149061011Y-111779843D01*
X149061011Y-111779836D01*
X149063458Y-111754990D01*
X149061011Y-111730144D01*
X149061011Y-110985977D01*
X149130058Y-111032113D01*
X149272191Y-111090987D01*
X149423078Y-111121000D01*
X149576922Y-111121000D01*
X149727809Y-111090987D01*
X149869942Y-111032113D01*
X149997859Y-110946642D01*
X150106642Y-110837859D01*
X150192113Y-110709942D01*
X150250987Y-110567809D01*
X150281000Y-110416922D01*
X150281000Y-110263078D01*
X150250987Y-110112191D01*
X150192113Y-109970058D01*
X150106642Y-109842141D01*
X149997859Y-109733358D01*
X149869942Y-109647887D01*
X149835989Y-109633823D01*
X149835989Y-108986743D01*
X149983078Y-109016001D01*
X150136922Y-109016001D01*
X150287809Y-108985988D01*
X150429942Y-108927114D01*
X150557859Y-108841643D01*
X150666642Y-108732860D01*
X150752113Y-108604943D01*
X150810987Y-108462810D01*
X150841000Y-108311923D01*
X150841000Y-108158079D01*
X150810987Y-108007192D01*
X150752113Y-107865059D01*
X150666642Y-107737142D01*
X150560990Y-107631490D01*
X150560990Y-105583461D01*
X150661632Y-105482819D01*
X150747103Y-105354902D01*
X150805977Y-105212769D01*
X150835990Y-105061882D01*
X150835990Y-104908038D01*
X150805977Y-104757151D01*
X150747103Y-104615018D01*
X150661632Y-104487101D01*
X150552849Y-104378318D01*
X150467710Y-104321430D01*
X150502113Y-104269942D01*
X150560987Y-104127809D01*
X150591000Y-103976922D01*
X150591000Y-103823078D01*
X150560987Y-103672191D01*
X150539927Y-103621348D01*
X152922578Y-106004000D01*
%TA.AperFunction,Conductor*%
D18*
G36*
X152922578Y-106004000D02*
G01*
X152776563Y-106004000D01*
X152625676Y-106034013D01*
X152483543Y-106092887D01*
X152355626Y-106178358D01*
X152246843Y-106287141D01*
X152161372Y-106415058D01*
X152102498Y-106557191D01*
X152072485Y-106708078D01*
X152072485Y-106861922D01*
X152102498Y-107012809D01*
X152161372Y-107154942D01*
X152246843Y-107282859D01*
X152355626Y-107391642D01*
X152464001Y-107464055D01*
X152464000Y-112401499D01*
X152363358Y-112502141D01*
X152277887Y-112630058D01*
X152219013Y-112772191D01*
X152189000Y-112923078D01*
X152189000Y-113076922D01*
X152217261Y-113219001D01*
X148164532Y-113219001D01*
X148257859Y-113156642D01*
X148366642Y-113047859D01*
X148452113Y-112919942D01*
X148510987Y-112777809D01*
X148541000Y-112626922D01*
X148541000Y-112484592D01*
X148895231Y-112130361D01*
X148914538Y-112114516D01*
X148977770Y-112037468D01*
X149024756Y-111949564D01*
X149053689Y-111854182D01*
X149054181Y-111849192D01*
X149057305Y-111817469D01*
X149061011Y-111779843D01*
X149061011Y-111779836D01*
X149063458Y-111754990D01*
X149061011Y-111730144D01*
X149061011Y-110985977D01*
X149130058Y-111032113D01*
X149272191Y-111090987D01*
X149423078Y-111121000D01*
X149576922Y-111121000D01*
X149727809Y-111090987D01*
X149869942Y-111032113D01*
X149997859Y-110946642D01*
X150106642Y-110837859D01*
X150192113Y-110709942D01*
X150250987Y-110567809D01*
X150281000Y-110416922D01*
X150281000Y-110263078D01*
X150250987Y-110112191D01*
X150192113Y-109970058D01*
X150106642Y-109842141D01*
X149997859Y-109733358D01*
X149869942Y-109647887D01*
X149835989Y-109633823D01*
X149835989Y-108986743D01*
X149983078Y-109016001D01*
X150136922Y-109016001D01*
X150287809Y-108985988D01*
X150429942Y-108927114D01*
X150557859Y-108841643D01*
X150666642Y-108732860D01*
X150752113Y-108604943D01*
X150810987Y-108462810D01*
X150841000Y-108311923D01*
X150841000Y-108158079D01*
X150810987Y-108007192D01*
X150752113Y-107865059D01*
X150666642Y-107737142D01*
X150560990Y-107631490D01*
X150560990Y-105583461D01*
X150661632Y-105482819D01*
X150747103Y-105354902D01*
X150805977Y-105212769D01*
X150835990Y-105061882D01*
X150835990Y-104908038D01*
X150805977Y-104757151D01*
X150747103Y-104615018D01*
X150661632Y-104487101D01*
X150552849Y-104378318D01*
X150467710Y-104321430D01*
X150502113Y-104269942D01*
X150560987Y-104127809D01*
X150591000Y-103976922D01*
X150591000Y-103823078D01*
X150560987Y-103672191D01*
X150539927Y-103621348D01*
X152922578Y-106004000D01*
G37*
%TD.AperFunction*%
D17*
X147079023Y-105662779D02*
X147137897Y-105804912D01*
X147223368Y-105932829D01*
X147332151Y-106041612D01*
X147460068Y-106127083D01*
X147602201Y-106185957D01*
X147753088Y-106215970D01*
X147906932Y-106215970D01*
X148049012Y-106187709D01*
X148049011Y-111545397D01*
X147825408Y-111769000D01*
X147683078Y-111769000D01*
X147532191Y-111799013D01*
X147390058Y-111857887D01*
X147262141Y-111943358D01*
X147153358Y-112052141D01*
X147067887Y-112180058D01*
X147009013Y-112322191D01*
X146979000Y-112473078D01*
X146979000Y-112626922D01*
X147009013Y-112777809D01*
X147067887Y-112919942D01*
X147153358Y-113047859D01*
X147262141Y-113156642D01*
X147355468Y-113219001D01*
X147134593Y-113219001D01*
X146446000Y-112530409D01*
X146446000Y-111494845D01*
X146448447Y-111469999D01*
X146446000Y-111445153D01*
X146446000Y-111445146D01*
X146438678Y-111370807D01*
X146409745Y-111275425D01*
X146362759Y-111187521D01*
X146299527Y-111110473D01*
X146280220Y-111094628D01*
X145761758Y-110576167D01*
X145793693Y-110499069D01*
X145841000Y-110261243D01*
X145841000Y-110018757D01*
X145793693Y-109780931D01*
X145700898Y-109556903D01*
X145566180Y-109355283D01*
X145394717Y-109183820D01*
X145193097Y-109049102D01*
X144969069Y-108956307D01*
X144731243Y-108909000D01*
X144488757Y-108909000D01*
X144250931Y-108956307D01*
X144026903Y-109049102D01*
X143825283Y-109183820D01*
X143653820Y-109355283D01*
X143627000Y-109395422D01*
X143627000Y-108344578D01*
X143653820Y-108384717D01*
X143825283Y-108556180D01*
X144026903Y-108690898D01*
X144250931Y-108783693D01*
X144488757Y-108831000D01*
X144731243Y-108831000D01*
X144969069Y-108783693D01*
X145193097Y-108690898D01*
X145394717Y-108556180D01*
X145566180Y-108384717D01*
X145700898Y-108183097D01*
X145793693Y-107959069D01*
X145841000Y-107721243D01*
X145841000Y-107478757D01*
X145793693Y-107240931D01*
X145700898Y-107016903D01*
X145566180Y-106815283D01*
X145394717Y-106643820D01*
X145193097Y-106509102D01*
X144969069Y-106416307D01*
X144731243Y-106369000D01*
X144488757Y-106369000D01*
X144250931Y-106416307D01*
X144026903Y-106509102D01*
X143825283Y-106643820D01*
X143653820Y-106815283D01*
X143627000Y-106855422D01*
X143627000Y-105804578D01*
X143653820Y-105844717D01*
X143825283Y-106016180D01*
X144026903Y-106150898D01*
X144250931Y-106243693D01*
X144488757Y-106291000D01*
X144731243Y-106291000D01*
X144969069Y-106243693D01*
X145193097Y-106150898D01*
X145394717Y-106016180D01*
X145566180Y-105844717D01*
X145700898Y-105643097D01*
X145732832Y-105566000D01*
X147059773Y-105566000D01*
X147079023Y-105662779D01*
%TA.AperFunction,Conductor*%
D18*
G36*
X147079023Y-105662779D02*
G01*
X147137897Y-105804912D01*
X147223368Y-105932829D01*
X147332151Y-106041612D01*
X147460068Y-106127083D01*
X147602201Y-106185957D01*
X147753088Y-106215970D01*
X147906932Y-106215970D01*
X148049012Y-106187709D01*
X148049011Y-111545397D01*
X147825408Y-111769000D01*
X147683078Y-111769000D01*
X147532191Y-111799013D01*
X147390058Y-111857887D01*
X147262141Y-111943358D01*
X147153358Y-112052141D01*
X147067887Y-112180058D01*
X147009013Y-112322191D01*
X146979000Y-112473078D01*
X146979000Y-112626922D01*
X147009013Y-112777809D01*
X147067887Y-112919942D01*
X147153358Y-113047859D01*
X147262141Y-113156642D01*
X147355468Y-113219001D01*
X147134593Y-113219001D01*
X146446000Y-112530409D01*
X146446000Y-111494845D01*
X146448447Y-111469999D01*
X146446000Y-111445153D01*
X146446000Y-111445146D01*
X146438678Y-111370807D01*
X146409745Y-111275425D01*
X146362759Y-111187521D01*
X146299527Y-111110473D01*
X146280220Y-111094628D01*
X145761758Y-110576167D01*
X145793693Y-110499069D01*
X145841000Y-110261243D01*
X145841000Y-110018757D01*
X145793693Y-109780931D01*
X145700898Y-109556903D01*
X145566180Y-109355283D01*
X145394717Y-109183820D01*
X145193097Y-109049102D01*
X144969069Y-108956307D01*
X144731243Y-108909000D01*
X144488757Y-108909000D01*
X144250931Y-108956307D01*
X144026903Y-109049102D01*
X143825283Y-109183820D01*
X143653820Y-109355283D01*
X143627000Y-109395422D01*
X143627000Y-108344578D01*
X143653820Y-108384717D01*
X143825283Y-108556180D01*
X144026903Y-108690898D01*
X144250931Y-108783693D01*
X144488757Y-108831000D01*
X144731243Y-108831000D01*
X144969069Y-108783693D01*
X145193097Y-108690898D01*
X145394717Y-108556180D01*
X145566180Y-108384717D01*
X145700898Y-108183097D01*
X145793693Y-107959069D01*
X145841000Y-107721243D01*
X145841000Y-107478757D01*
X145793693Y-107240931D01*
X145700898Y-107016903D01*
X145566180Y-106815283D01*
X145394717Y-106643820D01*
X145193097Y-106509102D01*
X144969069Y-106416307D01*
X144731243Y-106369000D01*
X144488757Y-106369000D01*
X144250931Y-106416307D01*
X144026903Y-106509102D01*
X143825283Y-106643820D01*
X143653820Y-106815283D01*
X143627000Y-106855422D01*
X143627000Y-105804578D01*
X143653820Y-105844717D01*
X143825283Y-106016180D01*
X144026903Y-106150898D01*
X144250931Y-106243693D01*
X144488757Y-106291000D01*
X144731243Y-106291000D01*
X144969069Y-106243693D01*
X145193097Y-106150898D01*
X145394717Y-106016180D01*
X145566180Y-105844717D01*
X145700898Y-105643097D01*
X145732832Y-105566000D01*
X147059773Y-105566000D01*
X147079023Y-105662779D01*
G37*
%TD.AperFunction*%
D17*
X163373000Y-83995422D02*
X163346180Y-83955283D01*
X163174717Y-83783820D01*
X162973097Y-83649102D01*
X162896000Y-83617168D01*
X162896000Y-81344845D01*
X162898447Y-81319999D01*
X162896000Y-81295153D01*
X162896000Y-81295146D01*
X162888678Y-81220807D01*
X162859745Y-81125425D01*
X162812759Y-81037521D01*
X162749527Y-80960473D01*
X162730220Y-80944628D01*
X161910375Y-80124784D01*
X161894526Y-80105472D01*
X161817478Y-80042240D01*
X161729574Y-79995254D01*
X161634192Y-79966321D01*
X161559853Y-79958999D01*
X161559845Y-79958999D01*
X161534999Y-79956552D01*
X161510153Y-79958999D01*
X147876844Y-79958999D01*
X147851998Y-79956552D01*
X147827152Y-79958999D01*
X147827145Y-79958999D01*
X147762693Y-79965347D01*
X147752805Y-79966321D01*
X147657424Y-79995254D01*
X147569520Y-80042240D01*
X147492472Y-80105472D01*
X147476627Y-80124779D01*
X146219771Y-81381636D01*
X146200465Y-81397480D01*
X146137233Y-81474528D01*
X146115828Y-81514574D01*
X146090246Y-81562433D01*
X146061313Y-81657815D01*
X146051544Y-81757007D01*
X146053992Y-81781863D01*
X146053990Y-92891554D01*
X146051543Y-92916400D01*
X146053990Y-92941246D01*
X146053990Y-92941253D01*
X146061312Y-93015592D01*
X146090245Y-93110974D01*
X146137231Y-93198878D01*
X146200463Y-93275926D01*
X146219769Y-93291770D01*
X146568980Y-93640982D01*
X146568979Y-95980167D01*
X146568979Y-95980175D01*
X146566532Y-96005021D01*
X146568979Y-96029867D01*
X146568979Y-96179833D01*
X146568980Y-96179843D01*
X146568979Y-102131529D01*
X146498367Y-102202141D01*
X146412896Y-102330058D01*
X146354022Y-102472191D01*
X146324009Y-102623078D01*
X146324009Y-102776922D01*
X146354022Y-102927809D01*
X146412896Y-103069942D01*
X146498367Y-103197859D01*
X146607150Y-103306642D01*
X146735067Y-103392113D01*
X146877200Y-103450987D01*
X147028087Y-103481000D01*
X147181931Y-103481000D01*
X147324010Y-103452739D01*
X147324010Y-103582261D01*
X147181931Y-103554000D01*
X147028087Y-103554000D01*
X146877200Y-103584013D01*
X146735067Y-103642887D01*
X146607150Y-103728358D01*
X146570550Y-103764958D01*
X146315374Y-103509783D01*
X146315370Y-103509778D01*
X145761758Y-102956167D01*
X145793693Y-102879069D01*
X145841000Y-102641243D01*
X145841000Y-102398757D01*
X145793693Y-102160931D01*
X145700898Y-101936903D01*
X145566180Y-101735283D01*
X145394717Y-101563820D01*
X145193097Y-101429102D01*
X144969069Y-101336307D01*
X144731243Y-101289000D01*
X144488757Y-101289000D01*
X144250931Y-101336307D01*
X144026903Y-101429102D01*
X143825283Y-101563820D01*
X143653820Y-101735283D01*
X143627000Y-101775422D01*
X143627000Y-100724578D01*
X143653820Y-100764717D01*
X143825283Y-100936180D01*
X144026903Y-101070898D01*
X144250931Y-101163693D01*
X144488757Y-101211000D01*
X144731243Y-101211000D01*
X144969069Y-101163693D01*
X145193097Y-101070898D01*
X145394717Y-100936180D01*
X145566180Y-100764717D01*
X145700898Y-100563097D01*
X145793693Y-100339069D01*
X145841000Y-100101243D01*
X145841000Y-99858757D01*
X145793693Y-99620931D01*
X145700898Y-99396903D01*
X145566180Y-99195283D01*
X145394717Y-99023820D01*
X145193097Y-98889102D01*
X144969069Y-98796307D01*
X144731243Y-98749000D01*
X144488757Y-98749000D01*
X144250931Y-98796307D01*
X144026903Y-98889102D01*
X143825283Y-99023820D01*
X143653820Y-99195283D01*
X143627000Y-99235422D01*
X143627000Y-98184578D01*
X143653820Y-98224717D01*
X143825283Y-98396180D01*
X144026903Y-98530898D01*
X144250931Y-98623693D01*
X144488757Y-98671000D01*
X144731243Y-98671000D01*
X144969069Y-98623693D01*
X145193097Y-98530898D01*
X145394717Y-98396180D01*
X145566180Y-98224717D01*
X145700898Y-98023097D01*
X145793693Y-97799069D01*
X145841000Y-97561243D01*
X145841000Y-97318757D01*
X145793693Y-97080931D01*
X145700898Y-96856903D01*
X145566180Y-96655283D01*
X145394717Y-96483820D01*
X145193097Y-96349102D01*
X144969069Y-96256307D01*
X144731243Y-96209000D01*
X144488757Y-96209000D01*
X144250931Y-96256307D01*
X144026903Y-96349102D01*
X143825283Y-96483820D01*
X143653820Y-96655283D01*
X143627000Y-96695422D01*
X143627000Y-95644578D01*
X143653820Y-95684717D01*
X143825283Y-95856180D01*
X144026903Y-95990898D01*
X144250931Y-96083693D01*
X144488757Y-96131000D01*
X144731243Y-96131000D01*
X144969069Y-96083693D01*
X145193097Y-95990898D01*
X145394717Y-95856180D01*
X145566180Y-95684717D01*
X145700898Y-95483097D01*
X145793693Y-95259069D01*
X145841000Y-95021243D01*
X145841000Y-94778757D01*
X145793693Y-94540931D01*
X145700898Y-94316903D01*
X145566180Y-94115283D01*
X145394717Y-93943820D01*
X145193097Y-93809102D01*
X144969069Y-93716307D01*
X144731243Y-93669000D01*
X144488757Y-93669000D01*
X144250931Y-93716307D01*
X144026903Y-93809102D01*
X143825283Y-93943820D01*
X143653820Y-94115283D01*
X143627000Y-94155422D01*
X143627000Y-93104578D01*
X143653820Y-93144717D01*
X143825283Y-93316180D01*
X144026903Y-93450898D01*
X144250931Y-93543693D01*
X144488757Y-93591000D01*
X144731243Y-93591000D01*
X144969069Y-93543693D01*
X145193097Y-93450898D01*
X145394717Y-93316180D01*
X145566180Y-93144717D01*
X145700898Y-92943097D01*
X145793693Y-92719069D01*
X145841000Y-92481243D01*
X145841000Y-92238757D01*
X145793693Y-92000931D01*
X145700898Y-91776903D01*
X145566180Y-91575283D01*
X145394717Y-91403820D01*
X145193097Y-91269102D01*
X144969069Y-91176307D01*
X144731243Y-91129000D01*
X144488757Y-91129000D01*
X144250931Y-91176307D01*
X144026903Y-91269102D01*
X143825283Y-91403820D01*
X143653820Y-91575283D01*
X143627000Y-91615422D01*
X143627000Y-90564578D01*
X143653820Y-90604717D01*
X143825283Y-90776180D01*
X144026903Y-90910898D01*
X144250931Y-91003693D01*
X144488757Y-91051000D01*
X144731243Y-91051000D01*
X144969069Y-91003693D01*
X145193097Y-90910898D01*
X145394717Y-90776180D01*
X145566180Y-90604717D01*
X145700898Y-90403097D01*
X145793693Y-90179069D01*
X145841000Y-89941243D01*
X145841000Y-89698757D01*
X145793693Y-89460931D01*
X145700898Y-89236903D01*
X145566180Y-89035283D01*
X145394717Y-88863820D01*
X145193097Y-88729102D01*
X144969069Y-88636307D01*
X144731243Y-88589000D01*
X144488757Y-88589000D01*
X144250931Y-88636307D01*
X144026903Y-88729102D01*
X143825283Y-88863820D01*
X143653820Y-89035283D01*
X143627000Y-89075422D01*
X143627000Y-88487799D01*
X143685311Y-88505487D01*
X143760000Y-88512843D01*
X144514250Y-88511000D01*
X144609500Y-88415750D01*
X144609500Y-87280500D01*
X144610500Y-87280500D01*
X144610500Y-88415750D01*
X144705750Y-88511000D01*
X145460000Y-88512843D01*
X145534689Y-88505487D01*
X145606508Y-88483701D01*
X145672696Y-88448322D01*
X145730711Y-88400711D01*
X145778322Y-88342696D01*
X145813701Y-88276508D01*
X145835487Y-88204689D01*
X145842843Y-88130000D01*
X145841000Y-87375750D01*
X145745750Y-87280500D01*
X144610500Y-87280500D01*
X144609500Y-87280500D01*
X144589500Y-87280500D01*
X144589500Y-87279500D01*
X144609500Y-87279500D01*
X144609500Y-86144250D01*
X144610500Y-86144250D01*
X144610500Y-87279500D01*
X145745750Y-87279500D01*
X145841000Y-87184250D01*
X145842843Y-86430000D01*
X145835487Y-86355311D01*
X145813701Y-86283492D01*
X145778322Y-86217304D01*
X145730711Y-86159289D01*
X145672696Y-86111678D01*
X145606508Y-86076299D01*
X145534689Y-86054513D01*
X145460000Y-86047157D01*
X144705750Y-86049000D01*
X144610500Y-86144250D01*
X144609500Y-86144250D01*
X144514250Y-86049000D01*
X143760000Y-86047157D01*
X143685311Y-86054513D01*
X143627000Y-86072201D01*
X143627000Y-85484578D01*
X143653820Y-85524717D01*
X143825283Y-85696180D01*
X144026903Y-85830898D01*
X144250931Y-85923693D01*
X144488757Y-85971000D01*
X144731243Y-85971000D01*
X144969069Y-85923693D01*
X145193097Y-85830898D01*
X145394717Y-85696180D01*
X145566180Y-85524717D01*
X145700898Y-85323097D01*
X145793693Y-85099069D01*
X145841000Y-84861243D01*
X145841000Y-84618757D01*
X145793693Y-84380931D01*
X145700898Y-84156903D01*
X145566180Y-83955283D01*
X145394717Y-83783820D01*
X145193097Y-83649102D01*
X144969069Y-83556307D01*
X144731243Y-83509000D01*
X144488757Y-83509000D01*
X144250931Y-83556307D01*
X144026903Y-83649102D01*
X143825283Y-83783820D01*
X143653820Y-83955283D01*
X143627000Y-83995422D01*
X143627000Y-76485500D01*
X148220000Y-76485500D01*
X148220000Y-77064500D01*
X148238544Y-77251777D01*
X148293267Y-77431838D01*
X148382067Y-77597763D01*
X148501531Y-77743176D01*
X148647068Y-77862489D01*
X148813086Y-77951116D01*
X148993204Y-78005652D01*
X149029329Y-78012103D01*
X149179500Y-77928750D01*
X149179500Y-76485500D01*
X149180500Y-76485500D01*
X149180500Y-77928750D01*
X149330671Y-78012103D01*
X149366796Y-78005652D01*
X149546914Y-77951116D01*
X149712932Y-77862489D01*
X149858469Y-77743176D01*
X149977933Y-77597763D01*
X150066733Y-77431838D01*
X150121456Y-77251777D01*
X150140000Y-77064500D01*
X150140000Y-76485500D01*
X149180500Y-76485500D01*
X149179500Y-76485500D01*
X148220000Y-76485500D01*
X143627000Y-76485500D01*
X143627000Y-75905500D01*
X148220000Y-75905500D01*
X148220000Y-76484500D01*
X149179500Y-76484500D01*
X149179500Y-75041250D01*
X149180500Y-75041250D01*
X149180500Y-76484500D01*
X150140000Y-76484500D01*
X150140000Y-76466738D01*
X150189242Y-76481605D01*
X150227542Y-76489189D01*
X150265774Y-76497315D01*
X150271753Y-76497943D01*
X150271756Y-76497944D01*
X150271759Y-76497944D01*
X150332942Y-76503943D01*
X150332948Y-76503943D01*
X150353832Y-76506000D01*
X150646168Y-76506000D01*
X150664393Y-76504205D01*
X150666260Y-76504218D01*
X150672250Y-76503631D01*
X150702516Y-76500450D01*
X150709491Y-76499763D01*
X150709723Y-76499692D01*
X150733391Y-76497205D01*
X150771633Y-76489355D01*
X150791842Y-76485500D01*
X156860000Y-76485500D01*
X156860000Y-77064500D01*
X156878544Y-77251777D01*
X156933267Y-77431838D01*
X157022067Y-77597763D01*
X157141531Y-77743176D01*
X157287068Y-77862489D01*
X157453086Y-77951116D01*
X157633204Y-78005652D01*
X157669329Y-78012103D01*
X157819500Y-77928750D01*
X157819500Y-76485500D01*
X157820500Y-76485500D01*
X157820500Y-77928750D01*
X157970671Y-78012103D01*
X158006796Y-78005652D01*
X158186914Y-77951116D01*
X158352932Y-77862489D01*
X158498469Y-77743176D01*
X158617933Y-77597763D01*
X158706733Y-77431838D01*
X158761456Y-77251777D01*
X158780000Y-77064500D01*
X158780000Y-76485500D01*
X157820500Y-76485500D01*
X157819500Y-76485500D01*
X156860000Y-76485500D01*
X150791842Y-76485500D01*
X150810029Y-76482031D01*
X150815782Y-76480293D01*
X150815789Y-76480292D01*
X150815795Y-76480289D01*
X150874517Y-76462112D01*
X150910539Y-76446970D01*
X150946745Y-76432342D01*
X150952059Y-76429517D01*
X151006138Y-76400277D01*
X151038525Y-76378432D01*
X151071212Y-76357042D01*
X151075876Y-76353238D01*
X151123244Y-76314051D01*
X151150753Y-76286350D01*
X151178683Y-76258998D01*
X151182519Y-76254361D01*
X151221374Y-76206719D01*
X151243001Y-76174168D01*
X151265057Y-76141956D01*
X151267920Y-76136662D01*
X151296782Y-76082381D01*
X151311665Y-76046271D01*
X151327057Y-76010360D01*
X151328836Y-76004611D01*
X151346605Y-75945758D01*
X151354189Y-75907458D01*
X151362315Y-75869226D01*
X151362944Y-75863241D01*
X151368943Y-75802058D01*
X151368943Y-75783199D01*
X151370977Y-75764450D01*
X151370997Y-75758432D01*
X151370989Y-75756233D01*
X151369087Y-75737532D01*
X151369218Y-75718740D01*
X151368631Y-75712751D01*
X151366393Y-75691450D01*
X155804000Y-75691450D01*
X155804000Y-75828550D01*
X155830747Y-75963016D01*
X155883212Y-76089680D01*
X155959381Y-76203674D01*
X156056326Y-76300619D01*
X156170320Y-76376788D01*
X156296984Y-76429253D01*
X156431450Y-76456000D01*
X156568550Y-76456000D01*
X156703016Y-76429253D01*
X156829680Y-76376788D01*
X156860000Y-76356529D01*
X156860000Y-76484500D01*
X157819500Y-76484500D01*
X157819500Y-75041250D01*
X157820500Y-75041250D01*
X157820500Y-76484500D01*
X158780000Y-76484500D01*
X158780000Y-75905500D01*
X158761456Y-75718223D01*
X158706733Y-75538162D01*
X158617933Y-75372237D01*
X158498469Y-75226824D01*
X158352932Y-75107511D01*
X158186914Y-75018884D01*
X158006796Y-74964348D01*
X157970671Y-74957897D01*
X157820500Y-75041250D01*
X157819500Y-75041250D01*
X157669329Y-74957897D01*
X157633204Y-74964348D01*
X157453086Y-75018884D01*
X157287068Y-75107511D01*
X157141531Y-75226824D01*
X157052900Y-75334706D01*
X157040619Y-75316326D01*
X156943674Y-75219381D01*
X156829680Y-75143212D01*
X156703016Y-75090747D01*
X156568550Y-75064000D01*
X156431450Y-75064000D01*
X156296984Y-75090747D01*
X156170320Y-75143212D01*
X156056326Y-75219381D01*
X155959381Y-75316326D01*
X155883212Y-75430320D01*
X155830747Y-75556984D01*
X155804000Y-75691450D01*
X151366393Y-75691450D01*
X151362205Y-75651609D01*
X151354343Y-75613304D01*
X151347030Y-75574971D01*
X151345293Y-75569218D01*
X151345292Y-75569211D01*
X151345289Y-75569205D01*
X151327112Y-75510483D01*
X151311982Y-75474490D01*
X151297342Y-75438255D01*
X151294517Y-75432941D01*
X151265277Y-75378862D01*
X151243432Y-75346475D01*
X151222042Y-75313788D01*
X151218238Y-75309124D01*
X151179051Y-75261755D01*
X151151331Y-75234228D01*
X151123998Y-75206317D01*
X151119361Y-75202481D01*
X151071719Y-75163626D01*
X151039165Y-75141998D01*
X151006955Y-75119943D01*
X151001662Y-75117080D01*
X150947381Y-75088218D01*
X150911271Y-75073335D01*
X150875360Y-75057943D01*
X150869615Y-75056165D01*
X150869609Y-75056163D01*
X150810758Y-75038395D01*
X150772452Y-75030810D01*
X150734226Y-75022685D01*
X150728247Y-75022057D01*
X150728244Y-75022056D01*
X150728241Y-75022056D01*
X150667057Y-75016057D01*
X150667052Y-75016057D01*
X150646168Y-75014000D01*
X150353832Y-75014000D01*
X150335607Y-75015795D01*
X150333740Y-75015782D01*
X150327751Y-75016369D01*
X150297492Y-75019549D01*
X150290509Y-75020237D01*
X150290276Y-75020308D01*
X150266609Y-75022795D01*
X150228304Y-75030657D01*
X150189971Y-75037970D01*
X150184218Y-75039707D01*
X150184211Y-75039708D01*
X150184205Y-75039711D01*
X150125483Y-75057888D01*
X150089490Y-75073018D01*
X150053255Y-75087658D01*
X150047941Y-75090483D01*
X149993862Y-75119723D01*
X149961475Y-75141568D01*
X149928788Y-75162958D01*
X149924124Y-75166762D01*
X149876755Y-75205949D01*
X149857122Y-75225720D01*
X149712932Y-75107511D01*
X149546914Y-75018884D01*
X149366796Y-74964348D01*
X149330671Y-74957897D01*
X149180500Y-75041250D01*
X149179500Y-75041250D01*
X149029329Y-74957897D01*
X148993204Y-74964348D01*
X148813086Y-75018884D01*
X148647068Y-75107511D01*
X148501531Y-75226824D01*
X148382067Y-75372237D01*
X148293267Y-75538162D01*
X148238544Y-75718223D01*
X148220000Y-75905500D01*
X143627000Y-75905500D01*
X143627000Y-72660500D01*
X148199000Y-72660500D01*
X148199000Y-73260500D01*
X148217947Y-73451874D01*
X148273865Y-73635874D01*
X148364606Y-73805430D01*
X148486682Y-73954025D01*
X148635401Y-74075949D01*
X148805049Y-74166517D01*
X148989106Y-74222248D01*
X149026044Y-74228844D01*
X149179500Y-74145750D01*
X149179500Y-72660500D01*
X149180500Y-72660500D01*
X149180500Y-74145750D01*
X149333956Y-74228844D01*
X149370894Y-74222248D01*
X149554951Y-74166517D01*
X149724599Y-74075949D01*
X149873318Y-73954025D01*
X149995394Y-73805430D01*
X150086135Y-73635874D01*
X150142053Y-73451874D01*
X150161000Y-73260500D01*
X150161000Y-72660500D01*
X156839000Y-72660500D01*
X156839000Y-73260500D01*
X156857947Y-73451874D01*
X156913865Y-73635874D01*
X157004606Y-73805430D01*
X157126682Y-73954025D01*
X157275401Y-74075949D01*
X157445049Y-74166517D01*
X157629106Y-74222248D01*
X157666044Y-74228844D01*
X157819500Y-74145750D01*
X157819500Y-72660500D01*
X157820500Y-72660500D01*
X157820500Y-74145750D01*
X157973956Y-74228844D01*
X158010894Y-74222248D01*
X158194951Y-74166517D01*
X158364599Y-74075949D01*
X158513318Y-73954025D01*
X158635394Y-73805430D01*
X158726135Y-73635874D01*
X158782053Y-73451874D01*
X158801000Y-73260500D01*
X158801000Y-72660500D01*
X157820500Y-72660500D01*
X157819500Y-72660500D01*
X156839000Y-72660500D01*
X150161000Y-72660500D01*
X149180500Y-72660500D01*
X149179500Y-72660500D01*
X148199000Y-72660500D01*
X143627000Y-72660500D01*
X143627000Y-72059500D01*
X148199000Y-72059500D01*
X148199000Y-72659500D01*
X149179500Y-72659500D01*
X149179500Y-71174250D01*
X149180500Y-71174250D01*
X149180500Y-72659500D01*
X150161000Y-72659500D01*
X150161000Y-72059500D01*
X156839000Y-72059500D01*
X156839000Y-72659500D01*
X157819500Y-72659500D01*
X157819500Y-71174250D01*
X157820500Y-71174250D01*
X157820500Y-72659500D01*
X158801000Y-72659500D01*
X158801000Y-72059500D01*
X158782053Y-71868126D01*
X158726135Y-71684126D01*
X158635394Y-71514570D01*
X158513318Y-71365975D01*
X158364599Y-71244051D01*
X158194951Y-71153483D01*
X158010894Y-71097752D01*
X157973956Y-71091156D01*
X157820500Y-71174250D01*
X157819500Y-71174250D01*
X157666044Y-71091156D01*
X157629106Y-71097752D01*
X157445049Y-71153483D01*
X157275401Y-71244051D01*
X157126682Y-71365975D01*
X157004606Y-71514570D01*
X156913865Y-71684126D01*
X156857947Y-71868126D01*
X156839000Y-72059500D01*
X150161000Y-72059500D01*
X150142053Y-71868126D01*
X150086135Y-71684126D01*
X149995394Y-71514570D01*
X149873318Y-71365975D01*
X149724599Y-71244051D01*
X149554951Y-71153483D01*
X149370894Y-71097752D01*
X149333956Y-71091156D01*
X149180500Y-71174250D01*
X149179500Y-71174250D01*
X149026044Y-71091156D01*
X148989106Y-71097752D01*
X148805049Y-71153483D01*
X148635401Y-71244051D01*
X148486682Y-71365975D01*
X148364606Y-71514570D01*
X148273865Y-71684126D01*
X148217947Y-71868126D01*
X148199000Y-72059500D01*
X143627000Y-72059500D01*
X143627000Y-70627000D01*
X163373000Y-70627000D01*
X163373000Y-83995422D01*
%TA.AperFunction,Conductor*%
D18*
G36*
X163373000Y-83995422D02*
G01*
X163346180Y-83955283D01*
X163174717Y-83783820D01*
X162973097Y-83649102D01*
X162896000Y-83617168D01*
X162896000Y-81344845D01*
X162898447Y-81319999D01*
X162896000Y-81295153D01*
X162896000Y-81295146D01*
X162888678Y-81220807D01*
X162859745Y-81125425D01*
X162812759Y-81037521D01*
X162749527Y-80960473D01*
X162730220Y-80944628D01*
X161910375Y-80124784D01*
X161894526Y-80105472D01*
X161817478Y-80042240D01*
X161729574Y-79995254D01*
X161634192Y-79966321D01*
X161559853Y-79958999D01*
X161559845Y-79958999D01*
X161534999Y-79956552D01*
X161510153Y-79958999D01*
X147876844Y-79958999D01*
X147851998Y-79956552D01*
X147827152Y-79958999D01*
X147827145Y-79958999D01*
X147762693Y-79965347D01*
X147752805Y-79966321D01*
X147657424Y-79995254D01*
X147569520Y-80042240D01*
X147492472Y-80105472D01*
X147476627Y-80124779D01*
X146219771Y-81381636D01*
X146200465Y-81397480D01*
X146137233Y-81474528D01*
X146115828Y-81514574D01*
X146090246Y-81562433D01*
X146061313Y-81657815D01*
X146051544Y-81757007D01*
X146053992Y-81781863D01*
X146053990Y-92891554D01*
X146051543Y-92916400D01*
X146053990Y-92941246D01*
X146053990Y-92941253D01*
X146061312Y-93015592D01*
X146090245Y-93110974D01*
X146137231Y-93198878D01*
X146200463Y-93275926D01*
X146219769Y-93291770D01*
X146568980Y-93640982D01*
X146568979Y-95980167D01*
X146568979Y-95980175D01*
X146566532Y-96005021D01*
X146568979Y-96029867D01*
X146568979Y-96179833D01*
X146568980Y-96179843D01*
X146568979Y-102131529D01*
X146498367Y-102202141D01*
X146412896Y-102330058D01*
X146354022Y-102472191D01*
X146324009Y-102623078D01*
X146324009Y-102776922D01*
X146354022Y-102927809D01*
X146412896Y-103069942D01*
X146498367Y-103197859D01*
X146607150Y-103306642D01*
X146735067Y-103392113D01*
X146877200Y-103450987D01*
X147028087Y-103481000D01*
X147181931Y-103481000D01*
X147324010Y-103452739D01*
X147324010Y-103582261D01*
X147181931Y-103554000D01*
X147028087Y-103554000D01*
X146877200Y-103584013D01*
X146735067Y-103642887D01*
X146607150Y-103728358D01*
X146570550Y-103764958D01*
X146315374Y-103509783D01*
X146315370Y-103509778D01*
X145761758Y-102956167D01*
X145793693Y-102879069D01*
X145841000Y-102641243D01*
X145841000Y-102398757D01*
X145793693Y-102160931D01*
X145700898Y-101936903D01*
X145566180Y-101735283D01*
X145394717Y-101563820D01*
X145193097Y-101429102D01*
X144969069Y-101336307D01*
X144731243Y-101289000D01*
X144488757Y-101289000D01*
X144250931Y-101336307D01*
X144026903Y-101429102D01*
X143825283Y-101563820D01*
X143653820Y-101735283D01*
X143627000Y-101775422D01*
X143627000Y-100724578D01*
X143653820Y-100764717D01*
X143825283Y-100936180D01*
X144026903Y-101070898D01*
X144250931Y-101163693D01*
X144488757Y-101211000D01*
X144731243Y-101211000D01*
X144969069Y-101163693D01*
X145193097Y-101070898D01*
X145394717Y-100936180D01*
X145566180Y-100764717D01*
X145700898Y-100563097D01*
X145793693Y-100339069D01*
X145841000Y-100101243D01*
X145841000Y-99858757D01*
X145793693Y-99620931D01*
X145700898Y-99396903D01*
X145566180Y-99195283D01*
X145394717Y-99023820D01*
X145193097Y-98889102D01*
X144969069Y-98796307D01*
X144731243Y-98749000D01*
X144488757Y-98749000D01*
X144250931Y-98796307D01*
X144026903Y-98889102D01*
X143825283Y-99023820D01*
X143653820Y-99195283D01*
X143627000Y-99235422D01*
X143627000Y-98184578D01*
X143653820Y-98224717D01*
X143825283Y-98396180D01*
X144026903Y-98530898D01*
X144250931Y-98623693D01*
X144488757Y-98671000D01*
X144731243Y-98671000D01*
X144969069Y-98623693D01*
X145193097Y-98530898D01*
X145394717Y-98396180D01*
X145566180Y-98224717D01*
X145700898Y-98023097D01*
X145793693Y-97799069D01*
X145841000Y-97561243D01*
X145841000Y-97318757D01*
X145793693Y-97080931D01*
X145700898Y-96856903D01*
X145566180Y-96655283D01*
X145394717Y-96483820D01*
X145193097Y-96349102D01*
X144969069Y-96256307D01*
X144731243Y-96209000D01*
X144488757Y-96209000D01*
X144250931Y-96256307D01*
X144026903Y-96349102D01*
X143825283Y-96483820D01*
X143653820Y-96655283D01*
X143627000Y-96695422D01*
X143627000Y-95644578D01*
X143653820Y-95684717D01*
X143825283Y-95856180D01*
X144026903Y-95990898D01*
X144250931Y-96083693D01*
X144488757Y-96131000D01*
X144731243Y-96131000D01*
X144969069Y-96083693D01*
X145193097Y-95990898D01*
X145394717Y-95856180D01*
X145566180Y-95684717D01*
X145700898Y-95483097D01*
X145793693Y-95259069D01*
X145841000Y-95021243D01*
X145841000Y-94778757D01*
X145793693Y-94540931D01*
X145700898Y-94316903D01*
X145566180Y-94115283D01*
X145394717Y-93943820D01*
X145193097Y-93809102D01*
X144969069Y-93716307D01*
X144731243Y-93669000D01*
X144488757Y-93669000D01*
X144250931Y-93716307D01*
X144026903Y-93809102D01*
X143825283Y-93943820D01*
X143653820Y-94115283D01*
X143627000Y-94155422D01*
X143627000Y-93104578D01*
X143653820Y-93144717D01*
X143825283Y-93316180D01*
X144026903Y-93450898D01*
X144250931Y-93543693D01*
X144488757Y-93591000D01*
X144731243Y-93591000D01*
X144969069Y-93543693D01*
X145193097Y-93450898D01*
X145394717Y-93316180D01*
X145566180Y-93144717D01*
X145700898Y-92943097D01*
X145793693Y-92719069D01*
X145841000Y-92481243D01*
X145841000Y-92238757D01*
X145793693Y-92000931D01*
X145700898Y-91776903D01*
X145566180Y-91575283D01*
X145394717Y-91403820D01*
X145193097Y-91269102D01*
X144969069Y-91176307D01*
X144731243Y-91129000D01*
X144488757Y-91129000D01*
X144250931Y-91176307D01*
X144026903Y-91269102D01*
X143825283Y-91403820D01*
X143653820Y-91575283D01*
X143627000Y-91615422D01*
X143627000Y-90564578D01*
X143653820Y-90604717D01*
X143825283Y-90776180D01*
X144026903Y-90910898D01*
X144250931Y-91003693D01*
X144488757Y-91051000D01*
X144731243Y-91051000D01*
X144969069Y-91003693D01*
X145193097Y-90910898D01*
X145394717Y-90776180D01*
X145566180Y-90604717D01*
X145700898Y-90403097D01*
X145793693Y-90179069D01*
X145841000Y-89941243D01*
X145841000Y-89698757D01*
X145793693Y-89460931D01*
X145700898Y-89236903D01*
X145566180Y-89035283D01*
X145394717Y-88863820D01*
X145193097Y-88729102D01*
X144969069Y-88636307D01*
X144731243Y-88589000D01*
X144488757Y-88589000D01*
X144250931Y-88636307D01*
X144026903Y-88729102D01*
X143825283Y-88863820D01*
X143653820Y-89035283D01*
X143627000Y-89075422D01*
X143627000Y-88487799D01*
X143685311Y-88505487D01*
X143760000Y-88512843D01*
X144514250Y-88511000D01*
X144609500Y-88415750D01*
X144609500Y-87280500D01*
X144610500Y-87280500D01*
X144610500Y-88415750D01*
X144705750Y-88511000D01*
X145460000Y-88512843D01*
X145534689Y-88505487D01*
X145606508Y-88483701D01*
X145672696Y-88448322D01*
X145730711Y-88400711D01*
X145778322Y-88342696D01*
X145813701Y-88276508D01*
X145835487Y-88204689D01*
X145842843Y-88130000D01*
X145841000Y-87375750D01*
X145745750Y-87280500D01*
X144610500Y-87280500D01*
X144609500Y-87280500D01*
X144589500Y-87280500D01*
X144589500Y-87279500D01*
X144609500Y-87279500D01*
X144609500Y-86144250D01*
X144610500Y-86144250D01*
X144610500Y-87279500D01*
X145745750Y-87279500D01*
X145841000Y-87184250D01*
X145842843Y-86430000D01*
X145835487Y-86355311D01*
X145813701Y-86283492D01*
X145778322Y-86217304D01*
X145730711Y-86159289D01*
X145672696Y-86111678D01*
X145606508Y-86076299D01*
X145534689Y-86054513D01*
X145460000Y-86047157D01*
X144705750Y-86049000D01*
X144610500Y-86144250D01*
X144609500Y-86144250D01*
X144514250Y-86049000D01*
X143760000Y-86047157D01*
X143685311Y-86054513D01*
X143627000Y-86072201D01*
X143627000Y-85484578D01*
X143653820Y-85524717D01*
X143825283Y-85696180D01*
X144026903Y-85830898D01*
X144250931Y-85923693D01*
X144488757Y-85971000D01*
X144731243Y-85971000D01*
X144969069Y-85923693D01*
X145193097Y-85830898D01*
X145394717Y-85696180D01*
X145566180Y-85524717D01*
X145700898Y-85323097D01*
X145793693Y-85099069D01*
X145841000Y-84861243D01*
X145841000Y-84618757D01*
X145793693Y-84380931D01*
X145700898Y-84156903D01*
X145566180Y-83955283D01*
X145394717Y-83783820D01*
X145193097Y-83649102D01*
X144969069Y-83556307D01*
X144731243Y-83509000D01*
X144488757Y-83509000D01*
X144250931Y-83556307D01*
X144026903Y-83649102D01*
X143825283Y-83783820D01*
X143653820Y-83955283D01*
X143627000Y-83995422D01*
X143627000Y-76485500D01*
X148220000Y-76485500D01*
X148220000Y-77064500D01*
X148238544Y-77251777D01*
X148293267Y-77431838D01*
X148382067Y-77597763D01*
X148501531Y-77743176D01*
X148647068Y-77862489D01*
X148813086Y-77951116D01*
X148993204Y-78005652D01*
X149029329Y-78012103D01*
X149179500Y-77928750D01*
X149179500Y-76485500D01*
X149180500Y-76485500D01*
X149180500Y-77928750D01*
X149330671Y-78012103D01*
X149366796Y-78005652D01*
X149546914Y-77951116D01*
X149712932Y-77862489D01*
X149858469Y-77743176D01*
X149977933Y-77597763D01*
X150066733Y-77431838D01*
X150121456Y-77251777D01*
X150140000Y-77064500D01*
X150140000Y-76485500D01*
X149180500Y-76485500D01*
X149179500Y-76485500D01*
X148220000Y-76485500D01*
X143627000Y-76485500D01*
X143627000Y-75905500D01*
X148220000Y-75905500D01*
X148220000Y-76484500D01*
X149179500Y-76484500D01*
X149179500Y-75041250D01*
X149180500Y-75041250D01*
X149180500Y-76484500D01*
X150140000Y-76484500D01*
X150140000Y-76466738D01*
X150189242Y-76481605D01*
X150227542Y-76489189D01*
X150265774Y-76497315D01*
X150271753Y-76497943D01*
X150271756Y-76497944D01*
X150271759Y-76497944D01*
X150332942Y-76503943D01*
X150332948Y-76503943D01*
X150353832Y-76506000D01*
X150646168Y-76506000D01*
X150664393Y-76504205D01*
X150666260Y-76504218D01*
X150672250Y-76503631D01*
X150702516Y-76500450D01*
X150709491Y-76499763D01*
X150709723Y-76499692D01*
X150733391Y-76497205D01*
X150771633Y-76489355D01*
X150791842Y-76485500D01*
X156860000Y-76485500D01*
X156860000Y-77064500D01*
X156878544Y-77251777D01*
X156933267Y-77431838D01*
X157022067Y-77597763D01*
X157141531Y-77743176D01*
X157287068Y-77862489D01*
X157453086Y-77951116D01*
X157633204Y-78005652D01*
X157669329Y-78012103D01*
X157819500Y-77928750D01*
X157819500Y-76485500D01*
X157820500Y-76485500D01*
X157820500Y-77928750D01*
X157970671Y-78012103D01*
X158006796Y-78005652D01*
X158186914Y-77951116D01*
X158352932Y-77862489D01*
X158498469Y-77743176D01*
X158617933Y-77597763D01*
X158706733Y-77431838D01*
X158761456Y-77251777D01*
X158780000Y-77064500D01*
X158780000Y-76485500D01*
X157820500Y-76485500D01*
X157819500Y-76485500D01*
X156860000Y-76485500D01*
X150791842Y-76485500D01*
X150810029Y-76482031D01*
X150815782Y-76480293D01*
X150815789Y-76480292D01*
X150815795Y-76480289D01*
X150874517Y-76462112D01*
X150910539Y-76446970D01*
X150946745Y-76432342D01*
X150952059Y-76429517D01*
X151006138Y-76400277D01*
X151038525Y-76378432D01*
X151071212Y-76357042D01*
X151075876Y-76353238D01*
X151123244Y-76314051D01*
X151150753Y-76286350D01*
X151178683Y-76258998D01*
X151182519Y-76254361D01*
X151221374Y-76206719D01*
X151243001Y-76174168D01*
X151265057Y-76141956D01*
X151267920Y-76136662D01*
X151296782Y-76082381D01*
X151311665Y-76046271D01*
X151327057Y-76010360D01*
X151328836Y-76004611D01*
X151346605Y-75945758D01*
X151354189Y-75907458D01*
X151362315Y-75869226D01*
X151362944Y-75863241D01*
X151368943Y-75802058D01*
X151368943Y-75783199D01*
X151370977Y-75764450D01*
X151370997Y-75758432D01*
X151370989Y-75756233D01*
X151369087Y-75737532D01*
X151369218Y-75718740D01*
X151368631Y-75712751D01*
X151366393Y-75691450D01*
X155804000Y-75691450D01*
X155804000Y-75828550D01*
X155830747Y-75963016D01*
X155883212Y-76089680D01*
X155959381Y-76203674D01*
X156056326Y-76300619D01*
X156170320Y-76376788D01*
X156296984Y-76429253D01*
X156431450Y-76456000D01*
X156568550Y-76456000D01*
X156703016Y-76429253D01*
X156829680Y-76376788D01*
X156860000Y-76356529D01*
X156860000Y-76484500D01*
X157819500Y-76484500D01*
X157819500Y-75041250D01*
X157820500Y-75041250D01*
X157820500Y-76484500D01*
X158780000Y-76484500D01*
X158780000Y-75905500D01*
X158761456Y-75718223D01*
X158706733Y-75538162D01*
X158617933Y-75372237D01*
X158498469Y-75226824D01*
X158352932Y-75107511D01*
X158186914Y-75018884D01*
X158006796Y-74964348D01*
X157970671Y-74957897D01*
X157820500Y-75041250D01*
X157819500Y-75041250D01*
X157669329Y-74957897D01*
X157633204Y-74964348D01*
X157453086Y-75018884D01*
X157287068Y-75107511D01*
X157141531Y-75226824D01*
X157052900Y-75334706D01*
X157040619Y-75316326D01*
X156943674Y-75219381D01*
X156829680Y-75143212D01*
X156703016Y-75090747D01*
X156568550Y-75064000D01*
X156431450Y-75064000D01*
X156296984Y-75090747D01*
X156170320Y-75143212D01*
X156056326Y-75219381D01*
X155959381Y-75316326D01*
X155883212Y-75430320D01*
X155830747Y-75556984D01*
X155804000Y-75691450D01*
X151366393Y-75691450D01*
X151362205Y-75651609D01*
X151354343Y-75613304D01*
X151347030Y-75574971D01*
X151345293Y-75569218D01*
X151345292Y-75569211D01*
X151345289Y-75569205D01*
X151327112Y-75510483D01*
X151311982Y-75474490D01*
X151297342Y-75438255D01*
X151294517Y-75432941D01*
X151265277Y-75378862D01*
X151243432Y-75346475D01*
X151222042Y-75313788D01*
X151218238Y-75309124D01*
X151179051Y-75261755D01*
X151151331Y-75234228D01*
X151123998Y-75206317D01*
X151119361Y-75202481D01*
X151071719Y-75163626D01*
X151039165Y-75141998D01*
X151006955Y-75119943D01*
X151001662Y-75117080D01*
X150947381Y-75088218D01*
X150911271Y-75073335D01*
X150875360Y-75057943D01*
X150869615Y-75056165D01*
X150869609Y-75056163D01*
X150810758Y-75038395D01*
X150772452Y-75030810D01*
X150734226Y-75022685D01*
X150728247Y-75022057D01*
X150728244Y-75022056D01*
X150728241Y-75022056D01*
X150667057Y-75016057D01*
X150667052Y-75016057D01*
X150646168Y-75014000D01*
X150353832Y-75014000D01*
X150335607Y-75015795D01*
X150333740Y-75015782D01*
X150327751Y-75016369D01*
X150297492Y-75019549D01*
X150290509Y-75020237D01*
X150290276Y-75020308D01*
X150266609Y-75022795D01*
X150228304Y-75030657D01*
X150189971Y-75037970D01*
X150184218Y-75039707D01*
X150184211Y-75039708D01*
X150184205Y-75039711D01*
X150125483Y-75057888D01*
X150089490Y-75073018D01*
X150053255Y-75087658D01*
X150047941Y-75090483D01*
X149993862Y-75119723D01*
X149961475Y-75141568D01*
X149928788Y-75162958D01*
X149924124Y-75166762D01*
X149876755Y-75205949D01*
X149857122Y-75225720D01*
X149712932Y-75107511D01*
X149546914Y-75018884D01*
X149366796Y-74964348D01*
X149330671Y-74957897D01*
X149180500Y-75041250D01*
X149179500Y-75041250D01*
X149029329Y-74957897D01*
X148993204Y-74964348D01*
X148813086Y-75018884D01*
X148647068Y-75107511D01*
X148501531Y-75226824D01*
X148382067Y-75372237D01*
X148293267Y-75538162D01*
X148238544Y-75718223D01*
X148220000Y-75905500D01*
X143627000Y-75905500D01*
X143627000Y-72660500D01*
X148199000Y-72660500D01*
X148199000Y-73260500D01*
X148217947Y-73451874D01*
X148273865Y-73635874D01*
X148364606Y-73805430D01*
X148486682Y-73954025D01*
X148635401Y-74075949D01*
X148805049Y-74166517D01*
X148989106Y-74222248D01*
X149026044Y-74228844D01*
X149179500Y-74145750D01*
X149179500Y-72660500D01*
X149180500Y-72660500D01*
X149180500Y-74145750D01*
X149333956Y-74228844D01*
X149370894Y-74222248D01*
X149554951Y-74166517D01*
X149724599Y-74075949D01*
X149873318Y-73954025D01*
X149995394Y-73805430D01*
X150086135Y-73635874D01*
X150142053Y-73451874D01*
X150161000Y-73260500D01*
X150161000Y-72660500D01*
X156839000Y-72660500D01*
X156839000Y-73260500D01*
X156857947Y-73451874D01*
X156913865Y-73635874D01*
X157004606Y-73805430D01*
X157126682Y-73954025D01*
X157275401Y-74075949D01*
X157445049Y-74166517D01*
X157629106Y-74222248D01*
X157666044Y-74228844D01*
X157819500Y-74145750D01*
X157819500Y-72660500D01*
X157820500Y-72660500D01*
X157820500Y-74145750D01*
X157973956Y-74228844D01*
X158010894Y-74222248D01*
X158194951Y-74166517D01*
X158364599Y-74075949D01*
X158513318Y-73954025D01*
X158635394Y-73805430D01*
X158726135Y-73635874D01*
X158782053Y-73451874D01*
X158801000Y-73260500D01*
X158801000Y-72660500D01*
X157820500Y-72660500D01*
X157819500Y-72660500D01*
X156839000Y-72660500D01*
X150161000Y-72660500D01*
X149180500Y-72660500D01*
X149179500Y-72660500D01*
X148199000Y-72660500D01*
X143627000Y-72660500D01*
X143627000Y-72059500D01*
X148199000Y-72059500D01*
X148199000Y-72659500D01*
X149179500Y-72659500D01*
X149179500Y-71174250D01*
X149180500Y-71174250D01*
X149180500Y-72659500D01*
X150161000Y-72659500D01*
X150161000Y-72059500D01*
X156839000Y-72059500D01*
X156839000Y-72659500D01*
X157819500Y-72659500D01*
X157819500Y-71174250D01*
X157820500Y-71174250D01*
X157820500Y-72659500D01*
X158801000Y-72659500D01*
X158801000Y-72059500D01*
X158782053Y-71868126D01*
X158726135Y-71684126D01*
X158635394Y-71514570D01*
X158513318Y-71365975D01*
X158364599Y-71244051D01*
X158194951Y-71153483D01*
X158010894Y-71097752D01*
X157973956Y-71091156D01*
X157820500Y-71174250D01*
X157819500Y-71174250D01*
X157666044Y-71091156D01*
X157629106Y-71097752D01*
X157445049Y-71153483D01*
X157275401Y-71244051D01*
X157126682Y-71365975D01*
X157004606Y-71514570D01*
X156913865Y-71684126D01*
X156857947Y-71868126D01*
X156839000Y-72059500D01*
X150161000Y-72059500D01*
X150142053Y-71868126D01*
X150086135Y-71684126D01*
X149995394Y-71514570D01*
X149873318Y-71365975D01*
X149724599Y-71244051D01*
X149554951Y-71153483D01*
X149370894Y-71097752D01*
X149333956Y-71091156D01*
X149180500Y-71174250D01*
X149179500Y-71174250D01*
X149026044Y-71091156D01*
X148989106Y-71097752D01*
X148805049Y-71153483D01*
X148635401Y-71244051D01*
X148486682Y-71365975D01*
X148364606Y-71514570D01*
X148273865Y-71684126D01*
X148217947Y-71868126D01*
X148199000Y-72059500D01*
X143627000Y-72059500D01*
X143627000Y-70627000D01*
X163373000Y-70627000D01*
X163373000Y-83995422D01*
G37*
%TD.AperFunction*%
%TD*%
M02*
