M48
INCH,TZ
T1C0.0157
T2C0.0256
T3C0.0394
T4C0.0236
T5C0.0248
%
G90
G05
T1
X57846Y-42906
X57915Y-40433
X57915Y-41077
X58173Y-44311
X58201Y-41510
X58274Y-38852
X58307Y-37394
X58346Y-31965
X58543Y-39882
X58630Y-40719
X58730Y-38220
X58858Y-43441
X58980Y-40906
X59077Y-41333
X59079Y-42612
X59106Y-43047
X59724Y-35957
X59949Y-32575
X60179Y-42041
X60224Y-44488
X60409Y-38091
X60421Y-45992
X60433Y-35953
X60572Y-42041
X60575Y-44295
X60858Y-43996
X60969Y-32575
X61535Y-35472
X61535Y-37335
X61680Y-41513
X62031Y-42579
X62220Y-40683
X62461Y-42476
X62569Y-39498
X62665Y-44488
X62774Y-41431
X62780Y-40106
X62951Y-43362
X62951Y-43996
T3
X63933Y-33362
X63933Y-34362
X63933Y-35362
X63933Y-36362
X63933Y-37362
X63933Y-38362
X63933Y-39362
X63933Y-40362
X63933Y-41362
X63933Y-42362
X63933Y-43362
X63933Y-44362
X63933Y-45362
X63933Y-46362
X56933Y-33362
X56933Y-34362
X56933Y-35362
X56933Y-36362
X56933Y-37362
X56933Y-38362
X56933Y-39362
X56933Y-40362
X56933Y-41362
X56933Y-42362
X56933Y-43362
X56933Y-44362
X56933Y-45362
X56933Y-46362
T4
X59252Y-29827
T5
X59252Y-29827
X61614Y-29827
T2
G00X58732Y-28862
M15
G01X58732Y-28350
M16
G05
G00X58732Y-30309
M15
G01X58732Y-29915
M16
G05
G00X62134Y-28862
M15
G01X62134Y-28350
M16
G05
G00X62134Y-30309
M15
G01X62134Y-29915
M16
G05
T0
M30
