%TF.GenerationSoftware,KiCad,Pcbnew,(5.1.8)-1*%
%TF.CreationDate,2020-12-28T06:59:24-08:00*%
%TF.ProjectId,atmega32u4_dev_board,61746d65-6761-4333-9275-345f6465765f,rev?*%
%TF.SameCoordinates,Original*%
%TF.FileFunction,Legend,Top*%
%TF.FilePolarity,Positive*%
%FSLAX46Y46*%
G04 Gerber Fmt 4.6, Leading zero omitted, Abs format (unit mm)*
G04 Created by KiCad (PCBNEW (5.1.8)-1) date 2020-12-28 06:59:24*
%MOMM*%
%LPD*%
G01*
G04 APERTURE LIST*
%ADD10C,0.100000*%
%ADD11C,0.127000*%
%ADD12C,0.200000*%
%ADD13C,0.120000*%
G04 APERTURE END LIST*
D10*
X146610714Y-83928571D02*
X145860714Y-84178571D01*
X146610714Y-84428571D01*
X145860714Y-84678571D02*
X146610714Y-84678571D01*
X145860714Y-85035714D02*
X146610714Y-85035714D01*
X145860714Y-85464285D01*
X146610714Y-85464285D01*
X146575000Y-86728571D02*
X146610714Y-86657142D01*
X146610714Y-86550000D01*
X146575000Y-86442857D01*
X146503571Y-86371428D01*
X146432142Y-86335714D01*
X146289285Y-86300000D01*
X146182142Y-86300000D01*
X146039285Y-86335714D01*
X145967857Y-86371428D01*
X145896428Y-86442857D01*
X145860714Y-86550000D01*
X145860714Y-86621428D01*
X145896428Y-86728571D01*
X145932142Y-86764285D01*
X146182142Y-86764285D01*
X146182142Y-86621428D01*
X145860714Y-87085714D02*
X146610714Y-87085714D01*
X145860714Y-87514285D01*
X146610714Y-87514285D01*
X145860714Y-87871428D02*
X146610714Y-87871428D01*
X146610714Y-88050000D01*
X146575000Y-88157142D01*
X146503571Y-88228571D01*
X146432142Y-88264285D01*
X146289285Y-88300000D01*
X146182142Y-88300000D01*
X146039285Y-88264285D01*
X145967857Y-88228571D01*
X145896428Y-88157142D01*
X145860714Y-88050000D01*
X145860714Y-87871428D01*
X145896428Y-88885714D02*
X145860714Y-88992857D01*
X145860714Y-89171428D01*
X145896428Y-89242857D01*
X145932142Y-89278571D01*
X146003571Y-89314285D01*
X146075000Y-89314285D01*
X146146428Y-89278571D01*
X146182142Y-89242857D01*
X146217857Y-89171428D01*
X146253571Y-89028571D01*
X146289285Y-88957142D01*
X146325000Y-88921428D01*
X146396428Y-88885714D01*
X146467857Y-88885714D01*
X146539285Y-88921428D01*
X146575000Y-88957142D01*
X146610714Y-89028571D01*
X146610714Y-89207142D01*
X146575000Y-89314285D01*
X145932142Y-90064285D02*
X145896428Y-90028571D01*
X145860714Y-89921428D01*
X145860714Y-89850000D01*
X145896428Y-89742857D01*
X145967857Y-89671428D01*
X146039285Y-89635714D01*
X146182142Y-89600000D01*
X146289285Y-89600000D01*
X146432142Y-89635714D01*
X146503571Y-89671428D01*
X146575000Y-89742857D01*
X146610714Y-89850000D01*
X146610714Y-89921428D01*
X146575000Y-90028571D01*
X146539285Y-90064285D01*
X145860714Y-90385714D02*
X146610714Y-90385714D01*
X145860714Y-90814285D02*
X146289285Y-90492857D01*
X146610714Y-90814285D02*
X146182142Y-90385714D01*
X145860714Y-91564285D02*
X146610714Y-91564285D01*
X146075000Y-91730952D01*
X146610714Y-91897619D01*
X145860714Y-91897619D01*
X146610714Y-92230952D02*
X146610714Y-92326190D01*
X146575000Y-92373809D01*
X146503571Y-92421428D01*
X146360714Y-92445238D01*
X146110714Y-92445238D01*
X145967857Y-92421428D01*
X145896428Y-92373809D01*
X145860714Y-92326190D01*
X145860714Y-92230952D01*
X145896428Y-92183333D01*
X145967857Y-92135714D01*
X146110714Y-92111904D01*
X146360714Y-92111904D01*
X146503571Y-92135714D01*
X146575000Y-92183333D01*
X146610714Y-92230952D01*
X145896428Y-92635714D02*
X145860714Y-92707142D01*
X145860714Y-92826190D01*
X145896428Y-92873809D01*
X145932142Y-92897619D01*
X146003571Y-92921428D01*
X146075000Y-92921428D01*
X146146428Y-92897619D01*
X146182142Y-92873809D01*
X146217857Y-92826190D01*
X146253571Y-92730952D01*
X146289285Y-92683333D01*
X146325000Y-92659523D01*
X146396428Y-92635714D01*
X146467857Y-92635714D01*
X146539285Y-92659523D01*
X146575000Y-92683333D01*
X146610714Y-92730952D01*
X146610714Y-92850000D01*
X146575000Y-92921428D01*
X145860714Y-93135714D02*
X146610714Y-93135714D01*
X145860714Y-94114285D02*
X146610714Y-94114285D01*
X146075000Y-94280952D01*
X146610714Y-94447619D01*
X145860714Y-94447619D01*
X145860714Y-94685714D02*
X146610714Y-94685714D01*
X145896428Y-94900000D02*
X145860714Y-94971428D01*
X145860714Y-95090476D01*
X145896428Y-95138095D01*
X145932142Y-95161904D01*
X146003571Y-95185714D01*
X146075000Y-95185714D01*
X146146428Y-95161904D01*
X146182142Y-95138095D01*
X146217857Y-95090476D01*
X146253571Y-94995238D01*
X146289285Y-94947619D01*
X146325000Y-94923809D01*
X146396428Y-94900000D01*
X146467857Y-94900000D01*
X146539285Y-94923809D01*
X146575000Y-94947619D01*
X146610714Y-94995238D01*
X146610714Y-95114285D01*
X146575000Y-95185714D01*
X146610714Y-95495238D02*
X146610714Y-95590476D01*
X146575000Y-95638095D01*
X146503571Y-95685714D01*
X146360714Y-95709523D01*
X146110714Y-95709523D01*
X145967857Y-95685714D01*
X145896428Y-95638095D01*
X145860714Y-95590476D01*
X145860714Y-95495238D01*
X145896428Y-95447619D01*
X145967857Y-95400000D01*
X146110714Y-95376190D01*
X146360714Y-95376190D01*
X146503571Y-95400000D01*
X146575000Y-95447619D01*
X146610714Y-95495238D01*
X145860714Y-96896428D02*
X146610714Y-96896428D01*
X146610714Y-97075000D01*
X146575000Y-97182142D01*
X146503571Y-97253571D01*
X146432142Y-97289285D01*
X146289285Y-97325000D01*
X146182142Y-97325000D01*
X146039285Y-97289285D01*
X145967857Y-97253571D01*
X145896428Y-97182142D01*
X145860714Y-97075000D01*
X145860714Y-96896428D01*
X146610714Y-97789285D02*
X146610714Y-97860714D01*
X146575000Y-97932142D01*
X146539285Y-97967857D01*
X146467857Y-98003571D01*
X146325000Y-98039285D01*
X146146428Y-98039285D01*
X146003571Y-98003571D01*
X145932142Y-97967857D01*
X145896428Y-97932142D01*
X145860714Y-97860714D01*
X145860714Y-97789285D01*
X145896428Y-97717857D01*
X145932142Y-97682142D01*
X146003571Y-97646428D01*
X146146428Y-97610714D01*
X146325000Y-97610714D01*
X146467857Y-97646428D01*
X146539285Y-97682142D01*
X146575000Y-97717857D01*
X146610714Y-97789285D01*
X145860714Y-99446428D02*
X146610714Y-99446428D01*
X146610714Y-99625000D01*
X146575000Y-99732142D01*
X146503571Y-99803571D01*
X146432142Y-99839285D01*
X146289285Y-99875000D01*
X146182142Y-99875000D01*
X146039285Y-99839285D01*
X145967857Y-99803571D01*
X145896428Y-99732142D01*
X145860714Y-99625000D01*
X145860714Y-99446428D01*
X145860714Y-100589285D02*
X145860714Y-100160714D01*
X145860714Y-100375000D02*
X146610714Y-100375000D01*
X146503571Y-100303571D01*
X146432142Y-100232142D01*
X146396428Y-100160714D01*
X145860714Y-101996428D02*
X146610714Y-101996428D01*
X146610714Y-102175000D01*
X146575000Y-102282142D01*
X146503571Y-102353571D01*
X146432142Y-102389285D01*
X146289285Y-102425000D01*
X146182142Y-102425000D01*
X146039285Y-102389285D01*
X145967857Y-102353571D01*
X145896428Y-102282142D01*
X145860714Y-102175000D01*
X145860714Y-101996428D01*
X146539285Y-102710714D02*
X146575000Y-102746428D01*
X146610714Y-102817857D01*
X146610714Y-102996428D01*
X146575000Y-103067857D01*
X146539285Y-103103571D01*
X146467857Y-103139285D01*
X146396428Y-103139285D01*
X146289285Y-103103571D01*
X145860714Y-102675000D01*
X145860714Y-103139285D01*
X145860714Y-104496428D02*
X146610714Y-104496428D01*
X146610714Y-104675000D01*
X146575000Y-104782142D01*
X146503571Y-104853571D01*
X146432142Y-104889285D01*
X146289285Y-104925000D01*
X146182142Y-104925000D01*
X146039285Y-104889285D01*
X145967857Y-104853571D01*
X145896428Y-104782142D01*
X145860714Y-104675000D01*
X145860714Y-104496428D01*
X146610714Y-105175000D02*
X146610714Y-105639285D01*
X146325000Y-105389285D01*
X146325000Y-105496428D01*
X146289285Y-105567857D01*
X146253571Y-105603571D01*
X146182142Y-105639285D01*
X146003571Y-105639285D01*
X145932142Y-105603571D01*
X145896428Y-105567857D01*
X145860714Y-105496428D01*
X145860714Y-105282142D01*
X145896428Y-105210714D01*
X145932142Y-105175000D01*
X145860714Y-107046428D02*
X146610714Y-107046428D01*
X146610714Y-107225000D01*
X146575000Y-107332142D01*
X146503571Y-107403571D01*
X146432142Y-107439285D01*
X146289285Y-107475000D01*
X146182142Y-107475000D01*
X146039285Y-107439285D01*
X145967857Y-107403571D01*
X145896428Y-107332142D01*
X145860714Y-107225000D01*
X145860714Y-107046428D01*
X146360714Y-108117857D02*
X145860714Y-108117857D01*
X146646428Y-107939285D02*
X146110714Y-107760714D01*
X146110714Y-108225000D01*
X145860714Y-109596428D02*
X146610714Y-109596428D01*
X146610714Y-109775000D01*
X146575000Y-109882142D01*
X146503571Y-109953571D01*
X146432142Y-109989285D01*
X146289285Y-110025000D01*
X146182142Y-110025000D01*
X146039285Y-109989285D01*
X145967857Y-109953571D01*
X145896428Y-109882142D01*
X145860714Y-109775000D01*
X145860714Y-109596428D01*
X146610714Y-110703571D02*
X146610714Y-110346428D01*
X146253571Y-110310714D01*
X146289285Y-110346428D01*
X146325000Y-110417857D01*
X146325000Y-110596428D01*
X146289285Y-110667857D01*
X146253571Y-110703571D01*
X146182142Y-110739285D01*
X146003571Y-110739285D01*
X145932142Y-110703571D01*
X145896428Y-110667857D01*
X145860714Y-110596428D01*
X145860714Y-110417857D01*
X145896428Y-110346428D01*
X145932142Y-110310714D01*
X145860714Y-112146428D02*
X146610714Y-112146428D01*
X146610714Y-112325000D01*
X146575000Y-112432142D01*
X146503571Y-112503571D01*
X146432142Y-112539285D01*
X146289285Y-112575000D01*
X146182142Y-112575000D01*
X146039285Y-112539285D01*
X145967857Y-112503571D01*
X145896428Y-112432142D01*
X145860714Y-112325000D01*
X145860714Y-112146428D01*
X146610714Y-113217857D02*
X146610714Y-113075000D01*
X146575000Y-113003571D01*
X146539285Y-112967857D01*
X146432142Y-112896428D01*
X146289285Y-112860714D01*
X146003571Y-112860714D01*
X145932142Y-112896428D01*
X145896428Y-112932142D01*
X145860714Y-113003571D01*
X145860714Y-113146428D01*
X145896428Y-113217857D01*
X145932142Y-113253571D01*
X146003571Y-113289285D01*
X146182142Y-113289285D01*
X146253571Y-113253571D01*
X146289285Y-113217857D01*
X146325000Y-113146428D01*
X146325000Y-113003571D01*
X146289285Y-112932142D01*
X146253571Y-112896428D01*
X146182142Y-112860714D01*
X145860714Y-114696428D02*
X146610714Y-114696428D01*
X146610714Y-114875000D01*
X146575000Y-114982142D01*
X146503571Y-115053571D01*
X146432142Y-115089285D01*
X146289285Y-115125000D01*
X146182142Y-115125000D01*
X146039285Y-115089285D01*
X145967857Y-115053571D01*
X145896428Y-114982142D01*
X145860714Y-114875000D01*
X145860714Y-114696428D01*
X146610714Y-115375000D02*
X146610714Y-115875000D01*
X145860714Y-115553571D01*
X145860714Y-117196428D02*
X146610714Y-117196428D01*
X146610714Y-117375000D01*
X146575000Y-117482142D01*
X146503571Y-117553571D01*
X146432142Y-117589285D01*
X146289285Y-117625000D01*
X146182142Y-117625000D01*
X146039285Y-117589285D01*
X145967857Y-117553571D01*
X145896428Y-117482142D01*
X145860714Y-117375000D01*
X145860714Y-117196428D01*
X146289285Y-118053571D02*
X146325000Y-117982142D01*
X146360714Y-117946428D01*
X146432142Y-117910714D01*
X146467857Y-117910714D01*
X146539285Y-117946428D01*
X146575000Y-117982142D01*
X146610714Y-118053571D01*
X146610714Y-118196428D01*
X146575000Y-118267857D01*
X146539285Y-118303571D01*
X146467857Y-118339285D01*
X146432142Y-118339285D01*
X146360714Y-118303571D01*
X146325000Y-118267857D01*
X146289285Y-118196428D01*
X146289285Y-118053571D01*
X146253571Y-117982142D01*
X146217857Y-117946428D01*
X146146428Y-117910714D01*
X146003571Y-117910714D01*
X145932142Y-117946428D01*
X145896428Y-117982142D01*
X145860714Y-118053571D01*
X145860714Y-118196428D01*
X145896428Y-118267857D01*
X145932142Y-118303571D01*
X146003571Y-118339285D01*
X146146428Y-118339285D01*
X146217857Y-118303571D01*
X146253571Y-118267857D01*
X146289285Y-118196428D01*
X161139285Y-118353571D02*
X160389285Y-118353571D01*
X160389285Y-118175000D01*
X160425000Y-118067857D01*
X160496428Y-117996428D01*
X160567857Y-117960714D01*
X160710714Y-117925000D01*
X160817857Y-117925000D01*
X160960714Y-117960714D01*
X161032142Y-117996428D01*
X161103571Y-118067857D01*
X161139285Y-118175000D01*
X161139285Y-118353571D01*
X161139285Y-117567857D02*
X161139285Y-117425000D01*
X161103571Y-117353571D01*
X161067857Y-117317857D01*
X160960714Y-117246428D01*
X160817857Y-117210714D01*
X160532142Y-117210714D01*
X160460714Y-117246428D01*
X160425000Y-117282142D01*
X160389285Y-117353571D01*
X160389285Y-117496428D01*
X160425000Y-117567857D01*
X160460714Y-117603571D01*
X160532142Y-117639285D01*
X160710714Y-117639285D01*
X160782142Y-117603571D01*
X160817857Y-117567857D01*
X160853571Y-117496428D01*
X160853571Y-117353571D01*
X160817857Y-117282142D01*
X160782142Y-117246428D01*
X160710714Y-117210714D01*
X161139285Y-116160714D02*
X160389285Y-116160714D01*
X160389285Y-115982142D01*
X160425000Y-115875000D01*
X160496428Y-115803571D01*
X160567857Y-115767857D01*
X160710714Y-115732142D01*
X160817857Y-115732142D01*
X160960714Y-115767857D01*
X161032142Y-115803571D01*
X161103571Y-115875000D01*
X161139285Y-115982142D01*
X161139285Y-116160714D01*
X161139285Y-115017857D02*
X161139285Y-115446428D01*
X161139285Y-115232142D02*
X160389285Y-115232142D01*
X160496428Y-115303571D01*
X160567857Y-115375000D01*
X160603571Y-115446428D01*
X160389285Y-114553571D02*
X160389285Y-114482142D01*
X160425000Y-114410714D01*
X160460714Y-114375000D01*
X160532142Y-114339285D01*
X160675000Y-114303571D01*
X160853571Y-114303571D01*
X160996428Y-114339285D01*
X161067857Y-114375000D01*
X161103571Y-114410714D01*
X161139285Y-114482142D01*
X161139285Y-114553571D01*
X161103571Y-114625000D01*
X161067857Y-114660714D01*
X160996428Y-114696428D01*
X160853571Y-114732142D01*
X160675000Y-114732142D01*
X160532142Y-114696428D01*
X160460714Y-114660714D01*
X160425000Y-114625000D01*
X160389285Y-114553571D01*
X161139285Y-113610714D02*
X160389285Y-113610714D01*
X160389285Y-113432142D01*
X160425000Y-113325000D01*
X160496428Y-113253571D01*
X160567857Y-113217857D01*
X160710714Y-113182142D01*
X160817857Y-113182142D01*
X160960714Y-113217857D01*
X161032142Y-113253571D01*
X161103571Y-113325000D01*
X161139285Y-113432142D01*
X161139285Y-113610714D01*
X161139285Y-112467857D02*
X161139285Y-112896428D01*
X161139285Y-112682142D02*
X160389285Y-112682142D01*
X160496428Y-112753571D01*
X160567857Y-112825000D01*
X160603571Y-112896428D01*
X161139285Y-111753571D02*
X161139285Y-112182142D01*
X161139285Y-111967857D02*
X160389285Y-111967857D01*
X160496428Y-112039285D01*
X160567857Y-112110714D01*
X160603571Y-112182142D01*
X161139285Y-111060714D02*
X160389285Y-111060714D01*
X160389285Y-110882142D01*
X160425000Y-110775000D01*
X160496428Y-110703571D01*
X160567857Y-110667857D01*
X160710714Y-110632142D01*
X160817857Y-110632142D01*
X160960714Y-110667857D01*
X161032142Y-110703571D01*
X161103571Y-110775000D01*
X161139285Y-110882142D01*
X161139285Y-111060714D01*
X161139285Y-109917857D02*
X161139285Y-110346428D01*
X161139285Y-110132142D02*
X160389285Y-110132142D01*
X160496428Y-110203571D01*
X160567857Y-110275000D01*
X160603571Y-110346428D01*
X160460714Y-109632142D02*
X160425000Y-109596428D01*
X160389285Y-109525000D01*
X160389285Y-109346428D01*
X160425000Y-109275000D01*
X160460714Y-109239285D01*
X160532142Y-109203571D01*
X160603571Y-109203571D01*
X160710714Y-109239285D01*
X161139285Y-109667857D01*
X161139285Y-109203571D01*
X161139285Y-108510714D02*
X160389285Y-108510714D01*
X160389285Y-108332142D01*
X160425000Y-108225000D01*
X160496428Y-108153571D01*
X160567857Y-108117857D01*
X160710714Y-108082142D01*
X160817857Y-108082142D01*
X160960714Y-108117857D01*
X161032142Y-108153571D01*
X161103571Y-108225000D01*
X161139285Y-108332142D01*
X161139285Y-108510714D01*
X161139285Y-107367857D02*
X161139285Y-107796428D01*
X161139285Y-107582142D02*
X160389285Y-107582142D01*
X160496428Y-107653571D01*
X160567857Y-107725000D01*
X160603571Y-107796428D01*
X160389285Y-107117857D02*
X160389285Y-106653571D01*
X160675000Y-106903571D01*
X160675000Y-106796428D01*
X160710714Y-106725000D01*
X160746428Y-106689285D01*
X160817857Y-106653571D01*
X160996428Y-106653571D01*
X161067857Y-106689285D01*
X161103571Y-106725000D01*
X161139285Y-106796428D01*
X161139285Y-107010714D01*
X161103571Y-107082142D01*
X161067857Y-107117857D01*
X160925000Y-105585714D02*
X160925000Y-105228571D01*
X161139285Y-105657142D02*
X160389285Y-105407142D01*
X161139285Y-105157142D01*
X160389285Y-104764285D02*
X160389285Y-104692857D01*
X160425000Y-104621428D01*
X160460714Y-104585714D01*
X160532142Y-104550000D01*
X160675000Y-104514285D01*
X160853571Y-104514285D01*
X160996428Y-104550000D01*
X161067857Y-104585714D01*
X161103571Y-104621428D01*
X161139285Y-104692857D01*
X161139285Y-104764285D01*
X161103571Y-104835714D01*
X161067857Y-104871428D01*
X160996428Y-104907142D01*
X160853571Y-104942857D01*
X160675000Y-104942857D01*
X160532142Y-104907142D01*
X160460714Y-104871428D01*
X160425000Y-104835714D01*
X160389285Y-104764285D01*
X160925000Y-103035714D02*
X160925000Y-102678571D01*
X161139285Y-103107142D02*
X160389285Y-102857142D01*
X161139285Y-102607142D01*
X161139285Y-101964285D02*
X161139285Y-102392857D01*
X161139285Y-102178571D02*
X160389285Y-102178571D01*
X160496428Y-102250000D01*
X160567857Y-102321428D01*
X160603571Y-102392857D01*
X160925000Y-100535714D02*
X160925000Y-100178571D01*
X161139285Y-100607142D02*
X160389285Y-100357142D01*
X161139285Y-100107142D01*
X160460714Y-99892857D02*
X160425000Y-99857142D01*
X160389285Y-99785714D01*
X160389285Y-99607142D01*
X160425000Y-99535714D01*
X160460714Y-99500000D01*
X160532142Y-99464285D01*
X160603571Y-99464285D01*
X160710714Y-99500000D01*
X161139285Y-99928571D01*
X161139285Y-99464285D01*
X160925000Y-97985714D02*
X160925000Y-97628571D01*
X161139285Y-98057142D02*
X160389285Y-97807142D01*
X161139285Y-97557142D01*
X160389285Y-97378571D02*
X160389285Y-96914285D01*
X160675000Y-97164285D01*
X160675000Y-97057142D01*
X160710714Y-96985714D01*
X160746428Y-96950000D01*
X160817857Y-96914285D01*
X160996428Y-96914285D01*
X161067857Y-96950000D01*
X161103571Y-96985714D01*
X161139285Y-97057142D01*
X161139285Y-97271428D01*
X161103571Y-97342857D01*
X161067857Y-97378571D01*
X160925000Y-95485714D02*
X160925000Y-95128571D01*
X161139285Y-95557142D02*
X160389285Y-95307142D01*
X161139285Y-95057142D01*
X160639285Y-94485714D02*
X161139285Y-94485714D01*
X160353571Y-94664285D02*
X160889285Y-94842857D01*
X160889285Y-94378571D01*
X160925000Y-92935714D02*
X160925000Y-92578571D01*
X161139285Y-93007142D02*
X160389285Y-92757142D01*
X161139285Y-92507142D01*
X160389285Y-91900000D02*
X160389285Y-92257142D01*
X160746428Y-92292857D01*
X160710714Y-92257142D01*
X160675000Y-92185714D01*
X160675000Y-92007142D01*
X160710714Y-91935714D01*
X160746428Y-91900000D01*
X160817857Y-91864285D01*
X160996428Y-91864285D01*
X161067857Y-91900000D01*
X161103571Y-91935714D01*
X161139285Y-92007142D01*
X161139285Y-92185714D01*
X161103571Y-92257142D01*
X161067857Y-92292857D01*
X160425000Y-90421428D02*
X160389285Y-90492857D01*
X160389285Y-90600000D01*
X160425000Y-90707142D01*
X160496428Y-90778571D01*
X160567857Y-90814285D01*
X160710714Y-90850000D01*
X160817857Y-90850000D01*
X160960714Y-90814285D01*
X161032142Y-90778571D01*
X161103571Y-90707142D01*
X161139285Y-90600000D01*
X161139285Y-90528571D01*
X161103571Y-90421428D01*
X161067857Y-90385714D01*
X160817857Y-90385714D01*
X160817857Y-90528571D01*
X161139285Y-90064285D02*
X160389285Y-90064285D01*
X161139285Y-89635714D01*
X160389285Y-89635714D01*
X161139285Y-89278571D02*
X160389285Y-89278571D01*
X160389285Y-89100000D01*
X160425000Y-88992857D01*
X160496428Y-88921428D01*
X160567857Y-88885714D01*
X160710714Y-88850000D01*
X160817857Y-88850000D01*
X160960714Y-88885714D01*
X161032142Y-88921428D01*
X161103571Y-88992857D01*
X161139285Y-89100000D01*
X161139285Y-89278571D01*
X160389285Y-88300000D02*
X161139285Y-88050000D01*
X160389285Y-87800000D01*
X161067857Y-87121428D02*
X161103571Y-87157142D01*
X161139285Y-87264285D01*
X161139285Y-87335714D01*
X161103571Y-87442857D01*
X161032142Y-87514285D01*
X160960714Y-87550000D01*
X160817857Y-87585714D01*
X160710714Y-87585714D01*
X160567857Y-87550000D01*
X160496428Y-87514285D01*
X160425000Y-87442857D01*
X160389285Y-87335714D01*
X160389285Y-87264285D01*
X160425000Y-87157142D01*
X160460714Y-87121428D01*
X161067857Y-86371428D02*
X161103571Y-86407142D01*
X161139285Y-86514285D01*
X161139285Y-86585714D01*
X161103571Y-86692857D01*
X161032142Y-86764285D01*
X160960714Y-86800000D01*
X160817857Y-86835714D01*
X160710714Y-86835714D01*
X160567857Y-86800000D01*
X160496428Y-86764285D01*
X160425000Y-86692857D01*
X160389285Y-86585714D01*
X160389285Y-86514285D01*
X160425000Y-86407142D01*
X160460714Y-86371428D01*
X161139285Y-85160714D02*
X160782142Y-85410714D01*
X161139285Y-85589285D02*
X160389285Y-85589285D01*
X160389285Y-85303571D01*
X160425000Y-85232142D01*
X160460714Y-85196428D01*
X160532142Y-85160714D01*
X160639285Y-85160714D01*
X160710714Y-85196428D01*
X160746428Y-85232142D01*
X160782142Y-85303571D01*
X160782142Y-85589285D01*
X161103571Y-84875000D02*
X161139285Y-84767857D01*
X161139285Y-84589285D01*
X161103571Y-84517857D01*
X161067857Y-84482142D01*
X160996428Y-84446428D01*
X160925000Y-84446428D01*
X160853571Y-84482142D01*
X160817857Y-84517857D01*
X160782142Y-84589285D01*
X160746428Y-84732142D01*
X160710714Y-84803571D01*
X160675000Y-84839285D01*
X160603571Y-84875000D01*
X160532142Y-84875000D01*
X160460714Y-84839285D01*
X160425000Y-84803571D01*
X160389285Y-84732142D01*
X160389285Y-84553571D01*
X160425000Y-84446428D01*
X160389285Y-84232142D02*
X160389285Y-83803571D01*
X161139285Y-84017857D02*
X160389285Y-84017857D01*
D11*
%TO.C,J6*%
X149030000Y-74955000D02*
X149030000Y-74190000D01*
X149030000Y-71130000D02*
X149030000Y-70710000D01*
X149030000Y-70710000D02*
X157970000Y-70710000D01*
X157970000Y-70710000D02*
X157970000Y-71130000D01*
X157970000Y-74955000D02*
X157970000Y-74190000D01*
D12*
X156700000Y-78260000D02*
G75*
G03*
X156700000Y-78260000I-100000J0D01*
G01*
D13*
%TO.C,C3*%
X159410000Y-93290580D02*
X159410000Y-93009420D01*
X158390000Y-93290580D02*
X158390000Y-93009420D01*
%TO.C,U1*%
X158091643Y-100737729D02*
X158604295Y-101250381D01*
X158604295Y-101250381D02*
X158091643Y-101763033D01*
X148906325Y-101763033D02*
X148393673Y-101250381D01*
X148393673Y-101250381D02*
X148906325Y-100737729D01*
X152986332Y-105843040D02*
X153498984Y-106355692D01*
X153498984Y-106355692D02*
X154011636Y-105843040D01*
X154011636Y-96657722D02*
X153498984Y-96145070D01*
%TO.C,R2*%
X151177500Y-93387258D02*
X151177500Y-92912742D01*
X152222500Y-93387258D02*
X152222500Y-92912742D01*
%TO.C,SW1*%
X162600000Y-75750000D02*
X162300000Y-75750000D01*
X162600000Y-72450000D02*
X162600000Y-75750000D01*
X162300000Y-72450000D02*
X162600000Y-72450000D01*
X159800000Y-75750000D02*
X160100000Y-75750000D01*
X159800000Y-72450000D02*
X159800000Y-75750000D01*
X160100000Y-72450000D02*
X159800000Y-72450000D01*
%TO.C,C1*%
X156360000Y-109659420D02*
X156360000Y-109940580D01*
X155340000Y-109659420D02*
X155340000Y-109940580D01*
%TO.C,C2*%
X147740000Y-109659420D02*
X147740000Y-109940580D01*
X148760000Y-109659420D02*
X148760000Y-109940580D01*
%TO.C,C4*%
X150410000Y-93009420D02*
X150410000Y-93290580D01*
X149390000Y-93009420D02*
X149390000Y-93290580D01*
%TO.C,C5*%
X154790000Y-93290580D02*
X154790000Y-93009420D01*
X155810000Y-93290580D02*
X155810000Y-93009420D01*
%TO.C,C6*%
X156590000Y-93009420D02*
X156590000Y-93290580D01*
X157610000Y-93009420D02*
X157610000Y-93290580D01*
%TO.C,C7*%
X150190000Y-88340580D02*
X150190000Y-88059420D01*
X151210000Y-88340580D02*
X151210000Y-88059420D01*
%TO.C,C8*%
X156810000Y-88340580D02*
X156810000Y-88059420D01*
X155790000Y-88340580D02*
X155790000Y-88059420D01*
%TO.C,D1*%
X158635000Y-118472500D02*
X158635000Y-116187500D01*
X157165000Y-118472500D02*
X158635000Y-118472500D01*
X157165000Y-116187500D02*
X157165000Y-118472500D01*
%TO.C,D2*%
X154165000Y-116200000D02*
X154165000Y-118485000D01*
X154165000Y-118485000D02*
X155635000Y-118485000D01*
X155635000Y-118485000D02*
X155635000Y-116200000D01*
%TO.C,D5*%
X152635000Y-118485000D02*
X152635000Y-116200000D01*
X151165000Y-118485000D02*
X152635000Y-118485000D01*
X151165000Y-116200000D02*
X151165000Y-118485000D01*
%TO.C,D6*%
X148165000Y-116200000D02*
X148165000Y-118485000D01*
X148165000Y-118485000D02*
X149635000Y-118485000D01*
X149635000Y-118485000D02*
X149635000Y-116200000D01*
%TO.C,R1*%
X148622500Y-92912742D02*
X148622500Y-93387258D01*
X147577500Y-92912742D02*
X147577500Y-93387258D01*
%TO.C,R3*%
X154022500Y-93387258D02*
X154022500Y-92912742D01*
X152977500Y-93387258D02*
X152977500Y-92912742D01*
%TO.C,R4*%
X159172500Y-109562742D02*
X159172500Y-110037258D01*
X158127500Y-109562742D02*
X158127500Y-110037258D01*
%TO.C,R5*%
X158422500Y-113587742D02*
X158422500Y-114062258D01*
X157377500Y-113587742D02*
X157377500Y-114062258D01*
%TO.C,R6*%
X154377500Y-113562742D02*
X154377500Y-114037258D01*
X155422500Y-113562742D02*
X155422500Y-114037258D01*
%TO.C,R7*%
X151322500Y-82962742D02*
X151322500Y-83437258D01*
X150277500Y-82962742D02*
X150277500Y-83437258D01*
%TO.C,R8*%
X159222500Y-82987742D02*
X159222500Y-83462258D01*
X158177500Y-82987742D02*
X158177500Y-83462258D01*
%TO.C,R10*%
X152422500Y-114062258D02*
X152422500Y-113587742D01*
X151377500Y-114062258D02*
X151377500Y-113587742D01*
%TO.C,R11*%
X149422500Y-114037258D02*
X149422500Y-113562742D01*
X148377500Y-114037258D02*
X148377500Y-113562742D01*
%TO.C,D7*%
X148935000Y-84685000D02*
X148935000Y-82400000D01*
X147465000Y-84685000D02*
X148935000Y-84685000D01*
X147465000Y-82400000D02*
X147465000Y-84685000D01*
%TO.C,F1*%
X146610000Y-74977064D02*
X146610000Y-73772936D01*
X144790000Y-74977064D02*
X144790000Y-73772936D01*
%TO.C,U2*%
X154380000Y-86540000D02*
X151930000Y-86540000D01*
X152580000Y-89760000D02*
X154380000Y-89760000D01*
%TO.C,Y1*%
X153940000Y-107810000D02*
X150640000Y-107810000D01*
X150640000Y-107810000D02*
X150640000Y-111810000D01*
D10*
%TO.C,D3*%
X156200000Y-82135000D02*
G75*
G03*
X156200000Y-82135000I-50000J0D01*
G01*
%TO.C,D4*%
X153550000Y-82135000D02*
G75*
G03*
X153550000Y-82135000I-50000J0D01*
G01*
D13*
%TO.C,TP1*%
X160250000Y-78050000D02*
X162150000Y-78050000D01*
X162150000Y-78050000D02*
X162150000Y-79950000D01*
X162150000Y-79950000D02*
X160250000Y-79950000D01*
X160250000Y-79950000D02*
X160250000Y-78050000D01*
%TO.C,TP2*%
X159450000Y-87200000D02*
G75*
G03*
X159450000Y-87200000I-950000J0D01*
G01*
%TO.C,TP3*%
X149450000Y-87200000D02*
G75*
G03*
X149450000Y-87200000I-950000J0D01*
G01*
%TO.C,TP4*%
X146650000Y-78900000D02*
G75*
G03*
X146650000Y-78900000I-950000J0D01*
G01*
%TO.C,J6*%
D10*
X153089285Y-74800000D02*
X153625000Y-74800000D01*
X153732142Y-74835714D01*
X153803571Y-74907142D01*
X153839285Y-75014285D01*
X153839285Y-75085714D01*
X153089285Y-74121428D02*
X153089285Y-74264285D01*
X153125000Y-74335714D01*
X153160714Y-74371428D01*
X153267857Y-74442857D01*
X153410714Y-74478571D01*
X153696428Y-74478571D01*
X153767857Y-74442857D01*
X153803571Y-74407142D01*
X153839285Y-74335714D01*
X153839285Y-74192857D01*
X153803571Y-74121428D01*
X153767857Y-74085714D01*
X153696428Y-74050000D01*
X153517857Y-74050000D01*
X153446428Y-74085714D01*
X153410714Y-74121428D01*
X153375000Y-74192857D01*
X153375000Y-74335714D01*
X153410714Y-74407142D01*
X153446428Y-74442857D01*
X153517857Y-74478571D01*
%TO.C,C3*%
X159167857Y-91205000D02*
X159203571Y-91240714D01*
X159239285Y-91347857D01*
X159239285Y-91419285D01*
X159203571Y-91526428D01*
X159132142Y-91597857D01*
X159060714Y-91633571D01*
X158917857Y-91669285D01*
X158810714Y-91669285D01*
X158667857Y-91633571D01*
X158596428Y-91597857D01*
X158525000Y-91526428D01*
X158489285Y-91419285D01*
X158489285Y-91347857D01*
X158525000Y-91240714D01*
X158560714Y-91205000D01*
X158489285Y-90955000D02*
X158489285Y-90490714D01*
X158775000Y-90740714D01*
X158775000Y-90633571D01*
X158810714Y-90562142D01*
X158846428Y-90526428D01*
X158917857Y-90490714D01*
X159096428Y-90490714D01*
X159167857Y-90526428D01*
X159203571Y-90562142D01*
X159239285Y-90633571D01*
X159239285Y-90847857D01*
X159203571Y-90919285D01*
X159167857Y-90955000D01*
%TO.C,U1*%
X156789285Y-105271427D02*
X157396428Y-105271427D01*
X157467857Y-105235713D01*
X157503571Y-105199999D01*
X157539285Y-105128570D01*
X157539285Y-104985713D01*
X157503571Y-104914284D01*
X157467857Y-104878570D01*
X157396428Y-104842856D01*
X156789285Y-104842856D01*
X157539285Y-104092856D02*
X157539285Y-104521427D01*
X157539285Y-104307141D02*
X156789285Y-104307141D01*
X156896428Y-104378570D01*
X156967857Y-104449999D01*
X157003571Y-104521427D01*
%TO.C,R2*%
X152039285Y-91245000D02*
X151682142Y-91495000D01*
X152039285Y-91673571D02*
X151289285Y-91673571D01*
X151289285Y-91387857D01*
X151325000Y-91316428D01*
X151360714Y-91280714D01*
X151432142Y-91245000D01*
X151539285Y-91245000D01*
X151610714Y-91280714D01*
X151646428Y-91316428D01*
X151682142Y-91387857D01*
X151682142Y-91673571D01*
X151360714Y-90959285D02*
X151325000Y-90923571D01*
X151289285Y-90852142D01*
X151289285Y-90673571D01*
X151325000Y-90602142D01*
X151360714Y-90566428D01*
X151432142Y-90530714D01*
X151503571Y-90530714D01*
X151610714Y-90566428D01*
X152039285Y-90995000D01*
X152039285Y-90530714D01*
%TO.C,SW1*%
X161503571Y-75100000D02*
X161539285Y-74992857D01*
X161539285Y-74814285D01*
X161503571Y-74742857D01*
X161467857Y-74707142D01*
X161396428Y-74671428D01*
X161325000Y-74671428D01*
X161253571Y-74707142D01*
X161217857Y-74742857D01*
X161182142Y-74814285D01*
X161146428Y-74957142D01*
X161110714Y-75028571D01*
X161075000Y-75064285D01*
X161003571Y-75100000D01*
X160932142Y-75100000D01*
X160860714Y-75064285D01*
X160825000Y-75028571D01*
X160789285Y-74957142D01*
X160789285Y-74778571D01*
X160825000Y-74671428D01*
X160789285Y-74421428D02*
X161539285Y-74242857D01*
X161003571Y-74100000D01*
X161539285Y-73957142D01*
X160789285Y-73778571D01*
X161539285Y-73100000D02*
X161539285Y-73528571D01*
X161539285Y-73314285D02*
X160789285Y-73314285D01*
X160896428Y-73385714D01*
X160967857Y-73457142D01*
X161003571Y-73528571D01*
X160110714Y-71539285D02*
X159860714Y-71182142D01*
X159682142Y-71539285D02*
X159682142Y-70789285D01*
X159967857Y-70789285D01*
X160039285Y-70825000D01*
X160075000Y-70860714D01*
X160110714Y-70932142D01*
X160110714Y-71039285D01*
X160075000Y-71110714D01*
X160039285Y-71146428D01*
X159967857Y-71182142D01*
X159682142Y-71182142D01*
X160432142Y-71146428D02*
X160682142Y-71146428D01*
X160789285Y-71539285D02*
X160432142Y-71539285D01*
X160432142Y-70789285D01*
X160789285Y-70789285D01*
X161075000Y-71503571D02*
X161182142Y-71539285D01*
X161360714Y-71539285D01*
X161432142Y-71503571D01*
X161467857Y-71467857D01*
X161503571Y-71396428D01*
X161503571Y-71325000D01*
X161467857Y-71253571D01*
X161432142Y-71217857D01*
X161360714Y-71182142D01*
X161217857Y-71146428D01*
X161146428Y-71110714D01*
X161110714Y-71075000D01*
X161075000Y-71003571D01*
X161075000Y-70932142D01*
X161110714Y-70860714D01*
X161146428Y-70825000D01*
X161217857Y-70789285D01*
X161396428Y-70789285D01*
X161503571Y-70825000D01*
X161825000Y-71146428D02*
X162075000Y-71146428D01*
X162182142Y-71539285D02*
X161825000Y-71539285D01*
X161825000Y-70789285D01*
X162182142Y-70789285D01*
X162396428Y-70789285D02*
X162825000Y-70789285D01*
X162610714Y-71539285D02*
X162610714Y-70789285D01*
%TO.C,C1*%
X157417857Y-109900000D02*
X157453571Y-109935714D01*
X157489285Y-110042857D01*
X157489285Y-110114285D01*
X157453571Y-110221428D01*
X157382142Y-110292857D01*
X157310714Y-110328571D01*
X157167857Y-110364285D01*
X157060714Y-110364285D01*
X156917857Y-110328571D01*
X156846428Y-110292857D01*
X156775000Y-110221428D01*
X156739285Y-110114285D01*
X156739285Y-110042857D01*
X156775000Y-109935714D01*
X156810714Y-109900000D01*
X157489285Y-109185714D02*
X157489285Y-109614285D01*
X157489285Y-109400000D02*
X156739285Y-109400000D01*
X156846428Y-109471428D01*
X156917857Y-109542857D01*
X156953571Y-109614285D01*
%TO.C,C2*%
X149817857Y-109925000D02*
X149853571Y-109960714D01*
X149889285Y-110067857D01*
X149889285Y-110139285D01*
X149853571Y-110246428D01*
X149782142Y-110317857D01*
X149710714Y-110353571D01*
X149567857Y-110389285D01*
X149460714Y-110389285D01*
X149317857Y-110353571D01*
X149246428Y-110317857D01*
X149175000Y-110246428D01*
X149139285Y-110139285D01*
X149139285Y-110067857D01*
X149175000Y-109960714D01*
X149210714Y-109925000D01*
X149210714Y-109639285D02*
X149175000Y-109603571D01*
X149139285Y-109532142D01*
X149139285Y-109353571D01*
X149175000Y-109282142D01*
X149210714Y-109246428D01*
X149282142Y-109210714D01*
X149353571Y-109210714D01*
X149460714Y-109246428D01*
X149889285Y-109675000D01*
X149889285Y-109210714D01*
%TO.C,C4*%
X150167857Y-91215000D02*
X150203571Y-91250714D01*
X150239285Y-91357857D01*
X150239285Y-91429285D01*
X150203571Y-91536428D01*
X150132142Y-91607857D01*
X150060714Y-91643571D01*
X149917857Y-91679285D01*
X149810714Y-91679285D01*
X149667857Y-91643571D01*
X149596428Y-91607857D01*
X149525000Y-91536428D01*
X149489285Y-91429285D01*
X149489285Y-91357857D01*
X149525000Y-91250714D01*
X149560714Y-91215000D01*
X149739285Y-90572142D02*
X150239285Y-90572142D01*
X149453571Y-90750714D02*
X149989285Y-90929285D01*
X149989285Y-90465000D01*
%TO.C,C5*%
X155567857Y-91205000D02*
X155603571Y-91240714D01*
X155639285Y-91347857D01*
X155639285Y-91419285D01*
X155603571Y-91526428D01*
X155532142Y-91597857D01*
X155460714Y-91633571D01*
X155317857Y-91669285D01*
X155210714Y-91669285D01*
X155067857Y-91633571D01*
X154996428Y-91597857D01*
X154925000Y-91526428D01*
X154889285Y-91419285D01*
X154889285Y-91347857D01*
X154925000Y-91240714D01*
X154960714Y-91205000D01*
X154889285Y-90526428D02*
X154889285Y-90883571D01*
X155246428Y-90919285D01*
X155210714Y-90883571D01*
X155175000Y-90812142D01*
X155175000Y-90633571D01*
X155210714Y-90562142D01*
X155246428Y-90526428D01*
X155317857Y-90490714D01*
X155496428Y-90490714D01*
X155567857Y-90526428D01*
X155603571Y-90562142D01*
X155639285Y-90633571D01*
X155639285Y-90812142D01*
X155603571Y-90883571D01*
X155567857Y-90919285D01*
%TO.C,C6*%
X157367857Y-91205000D02*
X157403571Y-91240714D01*
X157439285Y-91347857D01*
X157439285Y-91419285D01*
X157403571Y-91526428D01*
X157332142Y-91597857D01*
X157260714Y-91633571D01*
X157117857Y-91669285D01*
X157010714Y-91669285D01*
X156867857Y-91633571D01*
X156796428Y-91597857D01*
X156725000Y-91526428D01*
X156689285Y-91419285D01*
X156689285Y-91347857D01*
X156725000Y-91240714D01*
X156760714Y-91205000D01*
X156689285Y-90562142D02*
X156689285Y-90705000D01*
X156725000Y-90776428D01*
X156760714Y-90812142D01*
X156867857Y-90883571D01*
X157010714Y-90919285D01*
X157296428Y-90919285D01*
X157367857Y-90883571D01*
X157403571Y-90847857D01*
X157439285Y-90776428D01*
X157439285Y-90633571D01*
X157403571Y-90562142D01*
X157367857Y-90526428D01*
X157296428Y-90490714D01*
X157117857Y-90490714D01*
X157046428Y-90526428D01*
X157010714Y-90562142D01*
X156975000Y-90633571D01*
X156975000Y-90776428D01*
X157010714Y-90847857D01*
X157046428Y-90883571D01*
X157117857Y-90919285D01*
%TO.C,C7*%
X150967857Y-86255000D02*
X151003571Y-86290714D01*
X151039285Y-86397857D01*
X151039285Y-86469285D01*
X151003571Y-86576428D01*
X150932142Y-86647857D01*
X150860714Y-86683571D01*
X150717857Y-86719285D01*
X150610714Y-86719285D01*
X150467857Y-86683571D01*
X150396428Y-86647857D01*
X150325000Y-86576428D01*
X150289285Y-86469285D01*
X150289285Y-86397857D01*
X150325000Y-86290714D01*
X150360714Y-86255000D01*
X150289285Y-86005000D02*
X150289285Y-85505000D01*
X151039285Y-85826428D01*
%TO.C,C8*%
X156567857Y-86255000D02*
X156603571Y-86290714D01*
X156639285Y-86397857D01*
X156639285Y-86469285D01*
X156603571Y-86576428D01*
X156532142Y-86647857D01*
X156460714Y-86683571D01*
X156317857Y-86719285D01*
X156210714Y-86719285D01*
X156067857Y-86683571D01*
X155996428Y-86647857D01*
X155925000Y-86576428D01*
X155889285Y-86469285D01*
X155889285Y-86397857D01*
X155925000Y-86290714D01*
X155960714Y-86255000D01*
X156210714Y-85826428D02*
X156175000Y-85897857D01*
X156139285Y-85933571D01*
X156067857Y-85969285D01*
X156032142Y-85969285D01*
X155960714Y-85933571D01*
X155925000Y-85897857D01*
X155889285Y-85826428D01*
X155889285Y-85683571D01*
X155925000Y-85612142D01*
X155960714Y-85576428D01*
X156032142Y-85540714D01*
X156067857Y-85540714D01*
X156139285Y-85576428D01*
X156175000Y-85612142D01*
X156210714Y-85683571D01*
X156210714Y-85826428D01*
X156246428Y-85897857D01*
X156282142Y-85933571D01*
X156353571Y-85969285D01*
X156496428Y-85969285D01*
X156567857Y-85933571D01*
X156603571Y-85897857D01*
X156639285Y-85826428D01*
X156639285Y-85683571D01*
X156603571Y-85612142D01*
X156567857Y-85576428D01*
X156496428Y-85540714D01*
X156353571Y-85540714D01*
X156282142Y-85576428D01*
X156246428Y-85612142D01*
X156210714Y-85683571D01*
%TO.C,D1*%
X159689285Y-117528571D02*
X158939285Y-117528571D01*
X158939285Y-117350000D01*
X158975000Y-117242857D01*
X159046428Y-117171428D01*
X159117857Y-117135714D01*
X159260714Y-117100000D01*
X159367857Y-117100000D01*
X159510714Y-117135714D01*
X159582142Y-117171428D01*
X159653571Y-117242857D01*
X159689285Y-117350000D01*
X159689285Y-117528571D01*
X159689285Y-116385714D02*
X159689285Y-116814285D01*
X159689285Y-116600000D02*
X158939285Y-116600000D01*
X159046428Y-116671428D01*
X159117857Y-116742857D01*
X159153571Y-116814285D01*
X156989285Y-119539285D02*
X156989285Y-118789285D01*
X157167857Y-118789285D01*
X157275000Y-118825000D01*
X157346428Y-118896428D01*
X157382142Y-118967857D01*
X157417857Y-119110714D01*
X157417857Y-119217857D01*
X157382142Y-119360714D01*
X157346428Y-119432142D01*
X157275000Y-119503571D01*
X157167857Y-119539285D01*
X156989285Y-119539285D01*
X158132142Y-119539285D02*
X157703571Y-119539285D01*
X157917857Y-119539285D02*
X157917857Y-118789285D01*
X157846428Y-118896428D01*
X157775000Y-118967857D01*
X157703571Y-119003571D01*
X158382142Y-118789285D02*
X158846428Y-118789285D01*
X158596428Y-119075000D01*
X158703571Y-119075000D01*
X158775000Y-119110714D01*
X158810714Y-119146428D01*
X158846428Y-119217857D01*
X158846428Y-119396428D01*
X158810714Y-119467857D01*
X158775000Y-119503571D01*
X158703571Y-119539285D01*
X158489285Y-119539285D01*
X158417857Y-119503571D01*
X158382142Y-119467857D01*
%TO.C,D2*%
X156689285Y-117553571D02*
X155939285Y-117553571D01*
X155939285Y-117375000D01*
X155975000Y-117267857D01*
X156046428Y-117196428D01*
X156117857Y-117160714D01*
X156260714Y-117125000D01*
X156367857Y-117125000D01*
X156510714Y-117160714D01*
X156582142Y-117196428D01*
X156653571Y-117267857D01*
X156689285Y-117375000D01*
X156689285Y-117553571D01*
X156010714Y-116839285D02*
X155975000Y-116803571D01*
X155939285Y-116732142D01*
X155939285Y-116553571D01*
X155975000Y-116482142D01*
X156010714Y-116446428D01*
X156082142Y-116410714D01*
X156153571Y-116410714D01*
X156260714Y-116446428D01*
X156689285Y-116875000D01*
X156689285Y-116410714D01*
X153900000Y-119539285D02*
X153900000Y-118789285D01*
X154185714Y-118789285D01*
X154257142Y-118825000D01*
X154292857Y-118860714D01*
X154328571Y-118932142D01*
X154328571Y-119039285D01*
X154292857Y-119110714D01*
X154257142Y-119146428D01*
X154185714Y-119182142D01*
X153900000Y-119182142D01*
X154578571Y-118789285D02*
X154757142Y-119539285D01*
X154900000Y-119003571D01*
X155042857Y-119539285D01*
X155221428Y-118789285D01*
X155935714Y-119539285D02*
X155685714Y-119182142D01*
X155507142Y-119539285D02*
X155507142Y-118789285D01*
X155792857Y-118789285D01*
X155864285Y-118825000D01*
X155900000Y-118860714D01*
X155935714Y-118932142D01*
X155935714Y-119039285D01*
X155900000Y-119110714D01*
X155864285Y-119146428D01*
X155792857Y-119182142D01*
X155507142Y-119182142D01*
%TO.C,D5*%
X153689285Y-117553571D02*
X152939285Y-117553571D01*
X152939285Y-117375000D01*
X152975000Y-117267857D01*
X153046428Y-117196428D01*
X153117857Y-117160714D01*
X153260714Y-117125000D01*
X153367857Y-117125000D01*
X153510714Y-117160714D01*
X153582142Y-117196428D01*
X153653571Y-117267857D01*
X153689285Y-117375000D01*
X153689285Y-117553571D01*
X152939285Y-116446428D02*
X152939285Y-116803571D01*
X153296428Y-116839285D01*
X153260714Y-116803571D01*
X153225000Y-116732142D01*
X153225000Y-116553571D01*
X153260714Y-116482142D01*
X153296428Y-116446428D01*
X153367857Y-116410714D01*
X153546428Y-116410714D01*
X153617857Y-116446428D01*
X153653571Y-116482142D01*
X153689285Y-116553571D01*
X153689285Y-116732142D01*
X153653571Y-116803571D01*
X153617857Y-116839285D01*
X151328571Y-118772857D02*
X151757142Y-118772857D01*
X151542857Y-119552857D02*
X151542857Y-118772857D01*
X151935714Y-118772857D02*
X152435714Y-119552857D01*
X152435714Y-118772857D02*
X151935714Y-119552857D01*
%TO.C,D6*%
X150689285Y-117553571D02*
X149939285Y-117553571D01*
X149939285Y-117375000D01*
X149975000Y-117267857D01*
X150046428Y-117196428D01*
X150117857Y-117160714D01*
X150260714Y-117125000D01*
X150367857Y-117125000D01*
X150510714Y-117160714D01*
X150582142Y-117196428D01*
X150653571Y-117267857D01*
X150689285Y-117375000D01*
X150689285Y-117553571D01*
X149939285Y-116482142D02*
X149939285Y-116625000D01*
X149975000Y-116696428D01*
X150010714Y-116732142D01*
X150117857Y-116803571D01*
X150260714Y-116839285D01*
X150546428Y-116839285D01*
X150617857Y-116803571D01*
X150653571Y-116767857D01*
X150689285Y-116696428D01*
X150689285Y-116553571D01*
X150653571Y-116482142D01*
X150617857Y-116446428D01*
X150546428Y-116410714D01*
X150367857Y-116410714D01*
X150296428Y-116446428D01*
X150260714Y-116482142D01*
X150225000Y-116553571D01*
X150225000Y-116696428D01*
X150260714Y-116767857D01*
X150296428Y-116803571D01*
X150367857Y-116839285D01*
X148775000Y-119539285D02*
X148525000Y-119182142D01*
X148346428Y-119539285D02*
X148346428Y-118789285D01*
X148632142Y-118789285D01*
X148703571Y-118825000D01*
X148739285Y-118860714D01*
X148775000Y-118932142D01*
X148775000Y-119039285D01*
X148739285Y-119110714D01*
X148703571Y-119146428D01*
X148632142Y-119182142D01*
X148346428Y-119182142D01*
X149025000Y-118789285D02*
X149525000Y-119539285D01*
X149525000Y-118789285D02*
X149025000Y-119539285D01*
%TO.C,R1*%
X148439285Y-91245000D02*
X148082142Y-91495000D01*
X148439285Y-91673571D02*
X147689285Y-91673571D01*
X147689285Y-91387857D01*
X147725000Y-91316428D01*
X147760714Y-91280714D01*
X147832142Y-91245000D01*
X147939285Y-91245000D01*
X148010714Y-91280714D01*
X148046428Y-91316428D01*
X148082142Y-91387857D01*
X148082142Y-91673571D01*
X148439285Y-90530714D02*
X148439285Y-90959285D01*
X148439285Y-90745000D02*
X147689285Y-90745000D01*
X147796428Y-90816428D01*
X147867857Y-90887857D01*
X147903571Y-90959285D01*
%TO.C,R3*%
X153839285Y-91245000D02*
X153482142Y-91495000D01*
X153839285Y-91673571D02*
X153089285Y-91673571D01*
X153089285Y-91387857D01*
X153125000Y-91316428D01*
X153160714Y-91280714D01*
X153232142Y-91245000D01*
X153339285Y-91245000D01*
X153410714Y-91280714D01*
X153446428Y-91316428D01*
X153482142Y-91387857D01*
X153482142Y-91673571D01*
X153089285Y-90995000D02*
X153089285Y-90530714D01*
X153375000Y-90780714D01*
X153375000Y-90673571D01*
X153410714Y-90602142D01*
X153446428Y-90566428D01*
X153517857Y-90530714D01*
X153696428Y-90530714D01*
X153767857Y-90566428D01*
X153803571Y-90602142D01*
X153839285Y-90673571D01*
X153839285Y-90887857D01*
X153803571Y-90959285D01*
X153767857Y-90995000D01*
%TO.C,R4*%
X160289285Y-109925000D02*
X159932142Y-110175000D01*
X160289285Y-110353571D02*
X159539285Y-110353571D01*
X159539285Y-110067857D01*
X159575000Y-109996428D01*
X159610714Y-109960714D01*
X159682142Y-109925000D01*
X159789285Y-109925000D01*
X159860714Y-109960714D01*
X159896428Y-109996428D01*
X159932142Y-110067857D01*
X159932142Y-110353571D01*
X159789285Y-109282142D02*
X160289285Y-109282142D01*
X159503571Y-109460714D02*
X160039285Y-109639285D01*
X160039285Y-109175000D01*
%TO.C,R5*%
X159379285Y-113955000D02*
X159022142Y-114205000D01*
X159379285Y-114383571D02*
X158629285Y-114383571D01*
X158629285Y-114097857D01*
X158665000Y-114026428D01*
X158700714Y-113990714D01*
X158772142Y-113955000D01*
X158879285Y-113955000D01*
X158950714Y-113990714D01*
X158986428Y-114026428D01*
X159022142Y-114097857D01*
X159022142Y-114383571D01*
X158629285Y-113276428D02*
X158629285Y-113633571D01*
X158986428Y-113669285D01*
X158950714Y-113633571D01*
X158915000Y-113562142D01*
X158915000Y-113383571D01*
X158950714Y-113312142D01*
X158986428Y-113276428D01*
X159057857Y-113240714D01*
X159236428Y-113240714D01*
X159307857Y-113276428D01*
X159343571Y-113312142D01*
X159379285Y-113383571D01*
X159379285Y-113562142D01*
X159343571Y-113633571D01*
X159307857Y-113669285D01*
%TO.C,R6*%
X156379285Y-113925000D02*
X156022142Y-114175000D01*
X156379285Y-114353571D02*
X155629285Y-114353571D01*
X155629285Y-114067857D01*
X155665000Y-113996428D01*
X155700714Y-113960714D01*
X155772142Y-113925000D01*
X155879285Y-113925000D01*
X155950714Y-113960714D01*
X155986428Y-113996428D01*
X156022142Y-114067857D01*
X156022142Y-114353571D01*
X155629285Y-113282142D02*
X155629285Y-113425000D01*
X155665000Y-113496428D01*
X155700714Y-113532142D01*
X155807857Y-113603571D01*
X155950714Y-113639285D01*
X156236428Y-113639285D01*
X156307857Y-113603571D01*
X156343571Y-113567857D01*
X156379285Y-113496428D01*
X156379285Y-113353571D01*
X156343571Y-113282142D01*
X156307857Y-113246428D01*
X156236428Y-113210714D01*
X156057857Y-113210714D01*
X155986428Y-113246428D01*
X155950714Y-113282142D01*
X155915000Y-113353571D01*
X155915000Y-113496428D01*
X155950714Y-113567857D01*
X155986428Y-113603571D01*
X156057857Y-113639285D01*
%TO.C,R7*%
X152289285Y-83325000D02*
X151932142Y-83575000D01*
X152289285Y-83753571D02*
X151539285Y-83753571D01*
X151539285Y-83467857D01*
X151575000Y-83396428D01*
X151610714Y-83360714D01*
X151682142Y-83325000D01*
X151789285Y-83325000D01*
X151860714Y-83360714D01*
X151896428Y-83396428D01*
X151932142Y-83467857D01*
X151932142Y-83753571D01*
X151539285Y-83075000D02*
X151539285Y-82575000D01*
X152289285Y-82896428D01*
%TO.C,R8*%
X160189285Y-83355000D02*
X159832142Y-83605000D01*
X160189285Y-83783571D02*
X159439285Y-83783571D01*
X159439285Y-83497857D01*
X159475000Y-83426428D01*
X159510714Y-83390714D01*
X159582142Y-83355000D01*
X159689285Y-83355000D01*
X159760714Y-83390714D01*
X159796428Y-83426428D01*
X159832142Y-83497857D01*
X159832142Y-83783571D01*
X159760714Y-82926428D02*
X159725000Y-82997857D01*
X159689285Y-83033571D01*
X159617857Y-83069285D01*
X159582142Y-83069285D01*
X159510714Y-83033571D01*
X159475000Y-82997857D01*
X159439285Y-82926428D01*
X159439285Y-82783571D01*
X159475000Y-82712142D01*
X159510714Y-82676428D01*
X159582142Y-82640714D01*
X159617857Y-82640714D01*
X159689285Y-82676428D01*
X159725000Y-82712142D01*
X159760714Y-82783571D01*
X159760714Y-82926428D01*
X159796428Y-82997857D01*
X159832142Y-83033571D01*
X159903571Y-83069285D01*
X160046428Y-83069285D01*
X160117857Y-83033571D01*
X160153571Y-82997857D01*
X160189285Y-82926428D01*
X160189285Y-82783571D01*
X160153571Y-82712142D01*
X160117857Y-82676428D01*
X160046428Y-82640714D01*
X159903571Y-82640714D01*
X159832142Y-82676428D01*
X159796428Y-82712142D01*
X159760714Y-82783571D01*
%TO.C,R10*%
X153379285Y-114302142D02*
X153022142Y-114552142D01*
X153379285Y-114730714D02*
X152629285Y-114730714D01*
X152629285Y-114445000D01*
X152665000Y-114373571D01*
X152700714Y-114337857D01*
X152772142Y-114302142D01*
X152879285Y-114302142D01*
X152950714Y-114337857D01*
X152986428Y-114373571D01*
X153022142Y-114445000D01*
X153022142Y-114730714D01*
X153379285Y-113587857D02*
X153379285Y-114016428D01*
X153379285Y-113802142D02*
X152629285Y-113802142D01*
X152736428Y-113873571D01*
X152807857Y-113945000D01*
X152843571Y-114016428D01*
X152629285Y-113123571D02*
X152629285Y-113052142D01*
X152665000Y-112980714D01*
X152700714Y-112945000D01*
X152772142Y-112909285D01*
X152915000Y-112873571D01*
X153093571Y-112873571D01*
X153236428Y-112909285D01*
X153307857Y-112945000D01*
X153343571Y-112980714D01*
X153379285Y-113052142D01*
X153379285Y-113123571D01*
X153343571Y-113195000D01*
X153307857Y-113230714D01*
X153236428Y-113266428D01*
X153093571Y-113302142D01*
X152915000Y-113302142D01*
X152772142Y-113266428D01*
X152700714Y-113230714D01*
X152665000Y-113195000D01*
X152629285Y-113123571D01*
%TO.C,R11*%
X150379285Y-114282142D02*
X150022142Y-114532142D01*
X150379285Y-114710714D02*
X149629285Y-114710714D01*
X149629285Y-114425000D01*
X149665000Y-114353571D01*
X149700714Y-114317857D01*
X149772142Y-114282142D01*
X149879285Y-114282142D01*
X149950714Y-114317857D01*
X149986428Y-114353571D01*
X150022142Y-114425000D01*
X150022142Y-114710714D01*
X150379285Y-113567857D02*
X150379285Y-113996428D01*
X150379285Y-113782142D02*
X149629285Y-113782142D01*
X149736428Y-113853571D01*
X149807857Y-113925000D01*
X149843571Y-113996428D01*
X150379285Y-112853571D02*
X150379285Y-113282142D01*
X150379285Y-113067857D02*
X149629285Y-113067857D01*
X149736428Y-113139285D01*
X149807857Y-113210714D01*
X149843571Y-113282142D01*
%TO.C,D7*%
X149889285Y-83753571D02*
X149139285Y-83753571D01*
X149139285Y-83575000D01*
X149175000Y-83467857D01*
X149246428Y-83396428D01*
X149317857Y-83360714D01*
X149460714Y-83325000D01*
X149567857Y-83325000D01*
X149710714Y-83360714D01*
X149782142Y-83396428D01*
X149853571Y-83467857D01*
X149889285Y-83575000D01*
X149889285Y-83753571D01*
X149139285Y-83075000D02*
X149139285Y-82575000D01*
X149889285Y-82896428D01*
%TO.C,F1*%
X147346428Y-74625000D02*
X147346428Y-74875000D01*
X147739285Y-74875000D02*
X146989285Y-74875000D01*
X146989285Y-74517857D01*
X147739285Y-73839285D02*
X147739285Y-74267857D01*
X147739285Y-74053571D02*
X146989285Y-74053571D01*
X147096428Y-74125000D01*
X147167857Y-74196428D01*
X147203571Y-74267857D01*
%TO.C,U2*%
X153069285Y-86321428D02*
X153676428Y-86321428D01*
X153747857Y-86285714D01*
X153783571Y-86250000D01*
X153819285Y-86178571D01*
X153819285Y-86035714D01*
X153783571Y-85964285D01*
X153747857Y-85928571D01*
X153676428Y-85892857D01*
X153069285Y-85892857D01*
X153140714Y-85571428D02*
X153105000Y-85535714D01*
X153069285Y-85464285D01*
X153069285Y-85285714D01*
X153105000Y-85214285D01*
X153140714Y-85178571D01*
X153212142Y-85142857D01*
X153283571Y-85142857D01*
X153390714Y-85178571D01*
X153819285Y-85607142D01*
X153819285Y-85142857D01*
%TO.C,Y1*%
X154462142Y-110167142D02*
X154819285Y-110167142D01*
X154069285Y-110417142D02*
X154462142Y-110167142D01*
X154069285Y-109917142D01*
X154819285Y-109274285D02*
X154819285Y-109702857D01*
X154819285Y-109488571D02*
X154069285Y-109488571D01*
X154176428Y-109560000D01*
X154247857Y-109631428D01*
X154283571Y-109702857D01*
%TO.C,D3*%
X157529285Y-83778571D02*
X156779285Y-83778571D01*
X156779285Y-83600000D01*
X156815000Y-83492857D01*
X156886428Y-83421428D01*
X156957857Y-83385714D01*
X157100714Y-83350000D01*
X157207857Y-83350000D01*
X157350714Y-83385714D01*
X157422142Y-83421428D01*
X157493571Y-83492857D01*
X157529285Y-83600000D01*
X157529285Y-83778571D01*
X156779285Y-83100000D02*
X156779285Y-82635714D01*
X157065000Y-82885714D01*
X157065000Y-82778571D01*
X157100714Y-82707142D01*
X157136428Y-82671428D01*
X157207857Y-82635714D01*
X157386428Y-82635714D01*
X157457857Y-82671428D01*
X157493571Y-82707142D01*
X157529285Y-82778571D01*
X157529285Y-82992857D01*
X157493571Y-83064285D01*
X157457857Y-83100000D01*
%TO.C,D4*%
X154889285Y-83778571D02*
X154139285Y-83778571D01*
X154139285Y-83600000D01*
X154175000Y-83492857D01*
X154246428Y-83421428D01*
X154317857Y-83385714D01*
X154460714Y-83350000D01*
X154567857Y-83350000D01*
X154710714Y-83385714D01*
X154782142Y-83421428D01*
X154853571Y-83492857D01*
X154889285Y-83600000D01*
X154889285Y-83778571D01*
X154389285Y-82707142D02*
X154889285Y-82707142D01*
X154103571Y-82885714D02*
X154639285Y-83064285D01*
X154639285Y-82600000D01*
%TO.C,TP1*%
X160628571Y-80375000D02*
X160557142Y-80339285D01*
X160450000Y-80339285D01*
X160342857Y-80375000D01*
X160271428Y-80446428D01*
X160235714Y-80517857D01*
X160200000Y-80660714D01*
X160200000Y-80767857D01*
X160235714Y-80910714D01*
X160271428Y-80982142D01*
X160342857Y-81053571D01*
X160450000Y-81089285D01*
X160521428Y-81089285D01*
X160628571Y-81053571D01*
X160664285Y-81017857D01*
X160664285Y-80767857D01*
X160521428Y-80767857D01*
X160985714Y-81089285D02*
X160985714Y-80339285D01*
X161414285Y-81089285D01*
X161414285Y-80339285D01*
X161771428Y-81089285D02*
X161771428Y-80339285D01*
X161950000Y-80339285D01*
X162057142Y-80375000D01*
X162128571Y-80446428D01*
X162164285Y-80517857D01*
X162200000Y-80660714D01*
X162200000Y-80767857D01*
X162164285Y-80910714D01*
X162128571Y-80982142D01*
X162057142Y-81053571D01*
X161950000Y-81089285D01*
X161771428Y-81089285D01*
%TO.C,TP2*%
X157500000Y-88539285D02*
X157750000Y-89289285D01*
X158000000Y-88539285D01*
X158678571Y-89217857D02*
X158642857Y-89253571D01*
X158535714Y-89289285D01*
X158464285Y-89289285D01*
X158357142Y-89253571D01*
X158285714Y-89182142D01*
X158250000Y-89110714D01*
X158214285Y-88967857D01*
X158214285Y-88860714D01*
X158250000Y-88717857D01*
X158285714Y-88646428D01*
X158357142Y-88575000D01*
X158464285Y-88539285D01*
X158535714Y-88539285D01*
X158642857Y-88575000D01*
X158678571Y-88610714D01*
X159428571Y-89217857D02*
X159392857Y-89253571D01*
X159285714Y-89289285D01*
X159214285Y-89289285D01*
X159107142Y-89253571D01*
X159035714Y-89182142D01*
X159000000Y-89110714D01*
X158964285Y-88967857D01*
X158964285Y-88860714D01*
X159000000Y-88717857D01*
X159035714Y-88646428D01*
X159107142Y-88575000D01*
X159214285Y-88539285D01*
X159285714Y-88539285D01*
X159392857Y-88575000D01*
X159428571Y-88610714D01*
%TO.C,TP3*%
X147678571Y-88539285D02*
X147928571Y-89289285D01*
X148178571Y-88539285D01*
X148428571Y-89289285D02*
X148428571Y-88539285D01*
X148785714Y-89289285D02*
X148785714Y-88539285D01*
X149214285Y-89289285D01*
X149214285Y-88539285D01*
%TO.C,TP4*%
X144325000Y-80239285D02*
X144575000Y-80989285D01*
X144825000Y-80239285D01*
X145325000Y-80596428D02*
X145432142Y-80632142D01*
X145467857Y-80667857D01*
X145503571Y-80739285D01*
X145503571Y-80846428D01*
X145467857Y-80917857D01*
X145432142Y-80953571D01*
X145360714Y-80989285D01*
X145075000Y-80989285D01*
X145075000Y-80239285D01*
X145325000Y-80239285D01*
X145396428Y-80275000D01*
X145432142Y-80310714D01*
X145467857Y-80382142D01*
X145467857Y-80453571D01*
X145432142Y-80525000D01*
X145396428Y-80560714D01*
X145325000Y-80596428D01*
X145075000Y-80596428D01*
X145825000Y-80239285D02*
X145825000Y-80846428D01*
X145860714Y-80917857D01*
X145896428Y-80953571D01*
X145967857Y-80989285D01*
X146110714Y-80989285D01*
X146182142Y-80953571D01*
X146217857Y-80917857D01*
X146253571Y-80846428D01*
X146253571Y-80239285D01*
X146575000Y-80953571D02*
X146682142Y-80989285D01*
X146860714Y-80989285D01*
X146932142Y-80953571D01*
X146967857Y-80917857D01*
X147003571Y-80846428D01*
X147003571Y-80775000D01*
X146967857Y-80703571D01*
X146932142Y-80667857D01*
X146860714Y-80632142D01*
X146717857Y-80596428D01*
X146646428Y-80560714D01*
X146610714Y-80525000D01*
X146575000Y-80453571D01*
X146575000Y-80382142D01*
X146610714Y-80310714D01*
X146646428Y-80275000D01*
X146717857Y-80239285D01*
X146896428Y-80239285D01*
X147003571Y-80275000D01*
%TD*%
M02*
